<?xml version="1.0" encoding="UTF-8"?>
<svg id="Layer_1" data-name="Layer 1" xmlns="http://www.w3.org/2000/svg" viewBox="0 0 595.28 140.16">
  <defs>
    <style>
      .cls-1 {
        fill: #f1c01a;
      }

      .cls-2 {
        fill: #1b492d;
      }

      .cls-3 {
        fill: #e69b23;
      }

      .cls-4 {
        fill: #f4e626;
      }

      .cls-5 {
        fill: #fefefe;
      }

      .cls-6 {
        fill: #4b5b29;
      }

      .cls-7 {
        fill: #2e286d;
      }

      .cls-8 {
        fill: #fff;
      }

      .cls-9 {
        fill: #181b19;
      }

      .cls-10 {
        font-size: 24px;
      }

      .cls-10, .cls-11, .cls-12 {
        fill: #231f20;
        font-family: Arial-BoldMT, Arial;
        font-weight: 700;
      }

      .cls-11 {
        font-size: 16px;
      }

      .cls-13 {
        fill: #f7f6f6;
      }

      .cls-14 {
        fill: #f3d712;
      }

      .cls-15 {
        fill: #d32926;
      }

      .cls-16 {
        fill: #9f4a4b;
      }

      .cls-17 {
        fill: #a4a1a1;
      }

      .cls-18 {
        fill: #35ab4a;
      }

      .cls-19 {
        fill: #127fb8;
      }

      .cls-12 {
        font-size: 11px;
      }

      .cls-20 {
        fill: #0c7b58;
      }
    </style>
  </defs>
  <rect class="cls-8" width="595.28" height="140.16"/>
  <g>
    <text class="cls-11" transform="translate(176.19 44.17)"><tspan x="0" y="0">PEMERINTAH KABUPATEN TANAH BUMBU</tspan></text>
    <text class="cls-10" transform="translate(256.03 72.78)"><tspan x="0" y="0">DINAS SOSIAL</tspan></text>
    <text class="cls-12" transform="translate(147.13 92.23)"><tspan x="0" y="0">Jl. Dharma Praja, Pd. Butun, Kec. Batulicin, Kabupaten Tanah Bumbu</tspan></text>
    <text class="cls-12" transform="translate(264.6 112.04)"><tspan x="0" y="0">Kalimantan Selatan 72273.</tspan></text>
  </g>
  <g>
    <path class="cls-9" d="M119.75,19.83v72.75c-.66,14.32-11.43,21.5-23.53,26.26-5.59,2.2-12.24,3.82-17.45,6.67-.37.2-1.95,1.32-2.15,1.27-2.53-1.83-5.49-2.92-8.4-4.01-14.64-5.47-32.44-10.04-34.44-28.64-.09-.8-.01-1.73-.22-2.51v-.45s.12-.17.12-.38c.05-23.66-.05-47.32,0-70.98h86.07ZM117.41,22.17H36.02v69.07c.59,14.9,10.79,21.06,23.39,25.85,5.79,2.2,11.9,3.75,17.31,6.81,5.41-3.06,11.52-4.61,17.31-6.81,12.58-4.79,22.79-10.96,23.39-25.85V22.17Z"/>
    <path class="cls-17" d="M33.57,91.18V19.83h.11c-.05,23.66.06,47.32,0,70.98,0,.21-.12.36-.12.38Z"/>
    <path class="cls-4" d="M117.41,22.17v69.07c-.59,14.89-10.8,21.06-23.39,25.85-5.79,2.2-11.9,3.75-17.31,6.81-5.41-3.06-11.52-4.61-17.31-6.81-12.59-4.79-22.79-10.95-23.39-25.85V22.17h81.39ZM115.4,24.07H38.03c.11,21.46-.14,42.92,0,64.38.02,2.64-.06,4.98.52,7.62,3.7,16.91,25.23,19.11,38.16,25.55,12.48-6.27,33.03-8.39,37.73-23.97.98-3.25.92-5.9.94-9.21.15-21.46-.1-42.92,0-64.38Z"/>
    <path class="cls-9" d="M115.4,24.07c-.11,21.46.14,42.92,0,64.38-.02,3.3.04,5.96-.94,9.21-4.71,15.58-25.26,17.7-37.73,23.97-12.93-6.44-34.46-8.64-38.16-25.55-.58-2.64-.5-4.98-.52-7.62-.15-21.46.1-42.92,0-64.38h77.36ZM114.95,24.63H38.48v18.54h76.47v-18.54ZM114.95,43.73H38.48v47.63c.91,20.79,23.41,22.63,38.24,29.65,14.82-7,37.32-8.87,38.24-29.65v-47.63Z"/>
    <path class="cls-18" d="M114.95,43.73v47.63c-.91,20.78-23.42,22.65-38.24,29.65-14.83-7.02-37.32-8.86-38.24-29.65v-47.63h76.48ZM75.77,49.76h-3.68c-.06.26.05.18.14.26.35.27,2.59,1.67,2.64,1.83-.17,1.05-.67,2.03-.94,3.05-.03.1-.13.3,0,.34l2.68-1.97c.39.13,2.8,2.13,2.96,1.97l-1.09-3.19,2.88-2.06c.1-.41-.42-.11-.72-.1-.39.01-2.59.05-2.74-.06l-1.17-3.3-.95,3.24ZM60.92,52.88s-.09-.02-.11,0l-.33.22c-.21.17-.48.46-.67.67-.1.11-.52.49-.56.56l-.17-.34c-.17,0-.37.23-.5.34-.19.16-.5.48-.67.67-.23.26-.46.56-.56.89l-.11-.45c-.31-.08-.27.27-.33.33-.33.33-.52.45-.78.89-.11.18-.27.48-.33.67l-.11.22h-.11s-.11-.56-.11-.56c-.08-.06-.18.17-.22.22-.26.29-.63.78-.78,1.12-.07.16-.07.17-.11.33,0,.03,0,.08,0,.11l-.11.22h-.11s-.17-.56-.17-.56c-.13,0-.02.26-.06.34,0,.01-.16-.04-.26.14-.29.49-.42.86-.52,1.43-.28-.06-.23.09-.23.34-.07,0-.09-.11-.11-.11-.13-.27-.14-.26-.34-.06-.24.23-.43.84-.55,1.18s-.2.68-.33,1c-.06-.21-.18-.35-.22-.56-.11-.07-.28.36-.33.45-.4.69-.26,1.1-.56,1.79-.06-.16-.16-.39-.33-.45-.02.24-.15.45-.22.67-.22.61-.2.63-.22,1.29,0,.21.11.45-.22.39-.08-.13-.02-.4-.33-.33.05.22-.07.39-.11.56,0,.04-.16.15-.12.27v1.85c-.06-.08-.23-.23-.33-.33-.19-.21-.2.28-.21.4-.03.4-.04.87-.01,1.27.01.2.16.44.11.67-.22-.03-.32-.23-.45-.33-.02-.02-.09.02-.11,0-.04-.04.09-.34-.22-.22.08.56-.21,1.34.22,1.79,0,.04,0,.07,0,.11.02.21.04.4.09.6l-.09.07c-.07-.08-.15-.14-.22-.22-.06-.06-.09-.23-.22-.22.06.61-.17,1.37.22,1.9.01.07.51.9.17.89-.11,0-.5-.45-.61-.56-.1-.09-.09-.29-.33-.22-.12,1.1.49,1.82.89,2.68.06.12.07.23.11.33l-1.12-.56c.22.78.44,1.44.89,2.12.16.23.2.39-.11.33-.22-.12-.48-.35-.67-.06.36.65.55,1.23,1,1.84.03.55-.82-.21-1-.11l.33.56c.28.81.42.99,1,1.56.02.02.02.14.11.22.17.26.16.26-.14.2-.37-.07-.72-.24-1.09-.31-.08.24.18.26.22.33.4.71.55,1.04,1.23,1.56-.06.16-.22.09-.33.11-.1.02-.31-.06-.33.06.47.79.86,1.28,1.56,1.84.04.03.07.08.11.11-.01,0-.1.11-.26.11-.19,0-.41-.16-.63-.11l.45.78c.24.42.81.88,1.23,1.12l.11.22c-.24.01-.46-.17-.67,0-.11-.01-.39-.04-.45.06.48.71,1.03,1.02,1.67,1.51.09.07.25.09.22.22h-1.23c-.07.25.15.25.22.34.41.53.82.87,1.45,1.12l.17.22h-.95c-.07.24.15.24.22.33.69.86,1.26.97,2.23,1.23.08.31.44.1.45.33h-1.45c-.1.32.2.19.22.22.27.34.17.28.56.56.54.38,1.1.76,1.79.89-.05.33-.61.18-.67.22-.06.26.2.32.33.45.5.48.9.71,1.56.89l.33.22c-.51,0-1.71-.12-.89.45.06.04.15.07.22.11.16.3.58.38.89.45.04,0,.08,0,.11,0l1,.34-.89.33s-.07,0-.11,0c-.07,0-.15,0-.22,0-.06.07.17.18.22.22.31.25.53.33.89.45.91.29,1.7.3,2.64.13.21-.04.43.1.37-.24.07,0,.15,0,.22,0,.85.03,1.42.98,2.23,1.23-.2.14-.67,1.22-.74,1.24-.22.05-1.97-.61-2.4-.72-1.94-.47-3.92-.55-5.9-.41.91.67,1.96,1.06,2.84,1.79.2.17,1.38,1.25,1.18,1.45-1.97.1-3.72,1.3-4.91,2.79,2.75-.54,5.53-.59,8.28-.08.53.1,2.28.67,2.6.64.59-.06.99-1.44,1.56-1.46.63-.02,2.4.5,3.17.64.41.07.83.16,1.25.15l-10.83,3.35.17.22,2.99.09,9.19-3.32c3.74.37,7.49.2,11.21-.06l9.35,3.38,2.96-.11.19-.2c-3.7-1.3-7.61-2.04-11.27-3.41l3.74-.73c.57.02.97,1.4,1.56,1.46.32.03,2.06-.54,2.6-.64,2.75-.51,5.54-.46,8.28.08-1.2-1.49-2.94-2.7-4.91-2.79-.2-.2.97-1.28,1.18-1.45.88-.73,1.94-1.12,2.84-1.79-1.98-.14-3.96-.06-5.9.41-.44.11-2.18.76-2.4.72-.1-.02-.29-.65-.41-.79.86-.31,1.59-1.03,2.36-1.5.15-.09.26-.21.44-.06.12.2.18.21.33.33.54.45,2.28.87,2.79.33.32-.33.14-.66.28-.89s.48-.05.39-.72c-.04-.31-.78-1.47-1.11-1.52.36-.38.75-1.07,1.34-1,.18.36.66.72,1,.89.12.06.14.18.39.22.52.08,2.1.04,2.4-.44.26-.42-.02-.7.02-.94.03-.18.37-.22.31-.67-.07-.52-.46-.46-.61-.63-.17-.2-.12-.43-.51-.67-.61-.37-.82.02-1.34-.11.2-.21.68-.76.78-1,.41-.05.51.31.78.56.76.69,2.12.63,3.05.31.15-.05.15-.17.19-.2.65-.51.17-.64.25-1.05.04-.23.41-.23.3-.9-.08-.53-.43-.44-.6-.62-.32-.33-.14-.53-.84-.78s-.68,0-1.23.11l.09-.28-.09-.05c.33-.53.6-1.12.89-1.67.48.17.59.58,1,.89.47.35.81.45,1.4.45.52,0,1.49-.08,1.84-.45.63-.69.07-.88.11-1.06.03-.12.48-.13.42-.65-.07-.57-.43-.55-.64-.82s-.19-.51-.56-.72c-.49-.27-1.14-.3-1.56.11-.73.25-.76.81-1.34,1.12.15-.4.22-.84.33-1.23.13-.44.2-1.02.41-1.43.13-.24.26-.13.48-.14.22.2.41.32.67.45.24.12.34.25.67.29.61.08,2.7-.54,2.79-1.18.11-.8-.33-.76-.33-.84,0-.09.68-.49.06-1.07-.25-.24-.43-.16-.61-.28-.16-.1-.15-.34-.42-.47-.43-.2-.65-.08-1.03-.03-.03,0-.14-.13-.21-.1-.02,0-.02.15-.1.21-.95.59-1.12,1.1-1.59,2.12.25-.92.32-2.14.61-3.02.09-.27.11-.25.39-.22.99.69,1.6.29,2.46-.22.4-.24.98-.5,1.12-.89.33-.93-.21-.97-.23-1.08-.04-.31.24-.62-.11-.98-.32-.33-.68-.16-.89-.24-.17-.06-.29-.32-.64-.36-.23-.02-.59.1-.81.2-.45.2-.65.57-1,.89.02-.59.08-1.57,0-2.12.95.34,1.79.44,2.57-.33.64-.33.38-.21.67-.67.08-.13.32-.08.35-.5.03-.46-.29-.51-.32-.68-.06-.33.31-.65-.39-.96-.11-.05-.99-.39-1.06-.4-.45-.1-.46.09-.7.2-.06.03-.19-.03-.33.06-.04.03-.66.65-.68.69-.16.29.15.53-.22.48-.04-.53-.13-1.04-.22-1.56.64-.15,1.11.19,1.73-.22.14-.09.19-.26.28-.34.28-.26.83-.76,1.02-1.06.11-.17-.02-.27-.01-.28.09-.2.34-.25.33-.72-.01-.43-.33-.4-.38-.5-.08-.14.27-.6-.22-.91-.32-.21-.43,0-.66-.02-.12-.02-.2-.18-.45-.19-.39,0-.51.23-.74.44s-.29.3-.45.56c-.18.31-.36.62-.42.98-.09.56.1,1.19-.14,1.7-.2-1.01-.47-2-.67-3.01.6.11.89.01,1.34-.33.39-.3.65-.69.89-1.12.02-.04.18-.04.22-.28s.06-.57-.11-.73c-.08-.07-.31-.08-.39-.22-.14-.25,0-.72-.47-.87-.11-.03-.99-.15-1.09-.14-.3.04-.31.28-.4.34-.04.03-.28-.05-.32,0-.05.07.02.26-.02.35-.06.13-.32.24-.33.54l-.11.67c-.07-.58-.46-1.08-.7-1.6-.07-.16.03-.28.03-.3.6-.28,1.03-.33,1.45-.89.33-.44.79-1.53.56-2.01-.1-.21-1.2-1.02-1.4-1.02-.36.23-.83.3-1.2.49-.24.12-.21.23-.31.41-.04.07-.09.16-.11.22-.1.35-.17.6-.11,1-.46-.56-.81-1.2-1.23-1.79.36-.37.74-.23,1.12-.62.4-.41.53-.77.67-1.28.09-.35.4-1.02.08-1.32-.06-.05-.16,0-.2-.02-.42-.23-.76-.5-1.17-.68-.4.24-.92.33-1.28.57-.6.41-.55,1.26-.33,1.9-.48-.39-.82-.88-1.23-1.34.19-.27.42-.29.67-.56.59-.25,1.08-2.11.56-2.46-.15-.1-.38-.09-.55-.17-.21-.11-.3-.44-.61-.38-.34.23-.94.38-1.18.67-.33.38-.45,1.19,0,1.56.03.1.11.21.11.33-.05-.06-1.16-.97-1.23-1,.65-.52.99-1.41.67-2.23-.04-.12-.12-.33-.22-.39-.04-.02-.9-.29-.95-.29-.15,0-.93.52-.95.57l-.22.11c-.04-.34-.27-.62-.56-.78-.3-.38-.33-.39-.78-.67-.23-.14-.5-.6-.89-.22-.14.03-.24.32-.34.38-.17.1-.39.08-.55.18-.13.08-.3.34-.32.5,0,.09,0,.78,0,.87.02.19.12.28.2.42s.16.15.22.22c.08.09.11.14.22.22.22.17.62.47.89.56-.07.44-.38.84-.31,1.26.04.28.24.27.28.34.22.39-.18.33.48.52s.57-.03,1-.33.86-.65,1.23-1.06c0-.03-.47-.35-.56-.39-.35-.33-.87-.47-1.34-.45l.89-.22c.6.42,1.23.85,1.67,1.45-.29-.05-.43-.01-.67.11-.26.13-.65.7-.99.86.1.54-.12.95.32,1.26s.86.28,1.39.21,1.35-.5,1.74-.55c.53-.06.69.57,1,.89-.37-.09-.87-.43-1.23-.11-.1.09-.15.32-.26.41-.12.11-.35.13-.48.25-.29.28-.15,1.18.17,1.46.75.65,2.29-.09,3.13-.33.06.12.31.28.33.45-.19-.07-.33.08-.45.11-.7.18-.37.21-.67.39-.23.14-.68-.06-.84.28-.04.08-.18,1.07-.17,1.17.03.28.21.27.34.4.18.18.14.12.33.22.96.5,1.53.29,2.57.33.62.03.61-.15.89.5l-.22.05c-.56-.12-.64.26-.85.31s-.56-.21-.83.19c-.03.04-.32.86-.33.91-.02.18.12.46.22.61.18.25.25.16.33.22.71.56,2.08.93,3.01.89l.45,2.01c-.33-.45-1.36-1.31-1.9-1.45-.29-.07-.43-.2-.81-.09-.06.02-1.12.62-1.17.67-.06.08-.14,1.22-.12,1.34.06.39.31.32.43.42.01.01-.03.15.03.2.09.08.25,0,.31.03,1.06.41,1.75.18,2.79.11.25-.02.52,0,.77.01.18.77.24,1.55.35,2.33-.34-.57-.74-1.1-1.23-1.56-.19-.18-.18-.28-.51-.33-.53-.08-.34.19-.38.22-.02.01-.14-.03-.23.07-.07.08-.04.29-.13.35-.18.13-.66,0-.83.58-.08.27.06.42.04.6-.06.53-.41.42.14,1.08.05.06.08.16.16.23.11.08.2.07.28.11.92.44,1.82.15,2.79.11-.14.76.1,1.87,0,2.68h-.22c-.14-.7-.45-1.11-.88-1.63-.23-.28.08-.36-.46-.38-.89-.04-.66.3-1.01.5-.29.17-.62-.11-.94.4-.18.63-.62,1.49-.28,2.12.16.29.51.41.78.56.92.49,1.21.43,2.23.45.15,0,.3,0,.45,0,.08.81-.29,1.59-.45,2.35-.18-.66-.67-1.01-1.12-1.45-.07-.07.08-.27-.33-.33-.17-.03-.55-.03-.7.02-.25.08-.25.36-.32.4-.22.12-.76-.08-1.08.43-.25.4,0,.78-.03.81-.1.13-.33,0-.37.56-.03.38.11.52.27.8.24.41.41.49.89.67.77.28,1.11.24,1.92.19.19-.01.36-.24.31.15-.15.46-.28,1.02-.45,1.45h-.78c-.11-.43-.45-.93-.78-1.23-.26-.24-.28-.35-.73-.35-.57,0-.45.34-.57.36-.17.03-.37-.18-.71-.08-.79.23-.38,1.16-1.11,1.29h-12.73c.35-.33,1.08-.29,1.55-.46-.11-.4.17-1.06.13-1.36,0-.03-.31-.29-.43-.49-.71-1.22-1.43-2.45-2.03-3.72l3.8-1.01c.04-.06-.13-.31-.11-.33.06-.08,1.55-.66,1.79-.78l-4.47-4.8c4.2-.01,8.41.01,12.61,0,.76,0,1.53.03,2.29,0,.13,0,.42.08.39-.11-3.77-1.79-7.45-4.01-10.61-6.76-.46-.4-2.88-2.89-3.09-2.95-.31-.08-1.01.86-1.2.86-.22,0-1.16-1.1-1.51-.93l-3.46,4.42c-1.32-1.88-3.81-6.02-4.11-8.24-.02-.13.05-1.42.09-1.48.18-.23.2.11.23.16.12.19.27.57.39.72.47.58.63-.09.69-.52.05-.41-.07-2.21-.22-2.52-.06-.13-.17-.14-.2-.19-.03-.04-.07-.08-.11-.11-.39-.34-.68-.45-1.23-.45v4.75c0,.39-1.05,1.22-1.34,1.57-.88,1.08-2.08,3.44-2.68,4.74l-2.87-2.44c-.43-.12-1.74,1.08-2.21,1.29-.5-.17-1.9-1.4-2.32-1.29-3.7,3.77-7.96,7.09-12.92,9.03-.27-.26-.76.08-.67-.33.07-.08.16-.14.22-.22.16-.21.43-.74.56-1,.09-.18.26-.33.22-.56-.09-.09-1.13.55-.78,0,.25-.22.28-.46.45-.67.19-.25.3-.24.45-.56.22-.05.54-.79.45-.89l-.89.11c.3-.24.33-.43.45-.56.28-.3.5-.46.78-.89.04-.06.27-.3.22-.33-.22.12-.58-.11-.67-.11.17-.14.29-.3.45-.45.39-.37.47-.49.78-.89.03-.04.08-.07.11-.11.02-.02-.02-.09,0-.11.04-.04.32.11.22-.22-.24.12-.58-.11-.67-.11.25-.21,1.68-1.45.56-1.23-.07,0-.1-.11-.11-.11.34-.17.51-.44.78-.67s.5-.35.78-.67c.08-.1.29-.09.22-.33-.23.11-.53-.11-.56-.11.22.04.26-.16.33-.22.5-.38.9-.55,1.23-1.12,0,0,.13.02.11-.11-.19.09-.42-.11-.45-.11.31-.06.53-.28.78-.45.44-.28.9-.75,1.23-.89.08-.03.16,0,.06-.11l-.39-.22c.43-.12,1.31-.58,1.45-1h.22s0-.11,0-.11h-.33s0-.11,0-.11c.13.01.23-.05.33-.11.12-.07.25-.18.33-.22.27-.14,1.02-.34,1.18-.56.05-.06-.06-.1-.06-.11.02-.12.04-.23.11-.33.13-.03.22-.07.33-.11.56-.19,1.01-.57,1.56-.78.04-.2-.18-.07-.22-.11-.01-.01.03-.15-.02-.19-.02-.02-.51-.14-.53-.14l.22-.22s.08,0,.11,0c.14-.02.1-.11.11-.11.44-.18.56-.34.89-.56.46-.3.59-.37,1-.78.06-.06.4-.25.33-.33-.62-.24-1.29.01-1.9.22-.15.04-.4.27-.56.33-.32.12-.55.17-.89.33-.54.26-1.04.43-1.45.89-.03-.03-.25.02-.33,0,.17-.25.38-.7.45-1l.34-1.06c-.17-.22-.27.12-.34.17Z"/>
    <path class="cls-16" d="M114.95,24.63v18.54H38.48v-18.54h76.47ZM48.97,28.2h-5.47v2.57h1.79v7.93h1.9v-7.93h1.79v-2.57ZM48.64,38.7h1.73c.32-.27.14-1.29.33-1.57.16-.23,1.7-.04,2.07-.1l.22,1.67h1.9l-2.13-10.49h-1.94s-2.19,10.49-2.19,10.49ZM57.07,28.2h-1.62v10.5h1.67v-5.58l2.12,5.58h1.79v-10.5h-1.79v5.47l-2.18-5.47ZM61.48,38.7h1.9l.23-1.67c.32.04,1.92-.11,2.01.07l.22,1.6h1.9l-2.11-10.43-2.02-.06-2.12,10.5ZM70.18,28.2h-1.9v10.5h1.9v-4.24h1.9v4.24h1.79v-10.5h-1.79v3.68h-1.9v-3.68ZM81.52,28.2c-1.01-.22-2.76.16-3.85,0v10.5h3.52c.15,0,.97-.32,1.11-.45,1.07-1.02,1.12-4.4-.38-5.19,1.4-.71,1.04-4.55-.39-4.86ZM85.59,28.2h-1.79v7.43c0,.65.47,1.93.9,2.45.92,1.12,2.75,1.12,3.68,0,.4-.49.9-1.84.9-2.45v-7.43h-1.79v7.2c0,.35-.53,1.01-.95,1.01s-.95-.66-.95-1.01v-7.2ZM92.85,28.2h-2.46v10.5h1.56v-7.15l.32,1.75.69,5.4h1.45s1-6.92,1-6.92v6.92h1.56v-10.5h-2.46l-.84,6.14-.84-6.14ZM101.83,28.2c-.97-.21-2.69.16-3.74,0v10.5h3.4c.09,0,.95-.31,1.06-.39,1.16-.86,1.19-4.55-.33-5.25,1.41-.72,1.1-4.53-.39-4.86ZM105.91,28.2h-1.79v7.31c0,.36.28,1.32.43,1.7.27.67.71,1.36,1.45,1.57,2.42.71,3.33-1.09,3.6-3.15.31-2.4,0-5,.11-7.42h-1.9v7.2s-.33.77-.36.81c-.3.29-1.01.2-1.25-.2-.05-.08-.29-.79-.29-.83v-6.98Z"/>
    <path class="cls-9" d="M77.89,56.01l-.89-.22c-.11.42-.1.8-.11,1.23,0,.27-.06.97,0,1.16.02.07.35.12.52.28.22.22.52,1.24.73.75.28-.67.04-1-.01-1.63-.04-.48.04-.97-.11-1.45.03.04.14.06.2.19.15.31.27,2.11.22,2.52-.05.43-.22,1.1-.69.52-.12-.15-.27-.53-.39-.72-.03-.05-.05-.4-.23-.16-.04.06-.11,1.34-.09,1.48.3,2.22,2.79,6.36,4.11,8.24.25.36.08.57.6.23,1.39,1.12,2.85,2.24,4.54,2.89l-4.24-3.3,2.29-3.06c.29.17,1.06.9,1.34.89.24,0,.8-.76,1-.76.16,0,1.96,1.97,2.29,2.27,2.81,2.57,6,4.56,9.38,6.31-4.2.02-8.41-.01-12.61,0l4.47,4.8c-.24.12-1.73.7-1.79.78-.02.02.15.28.11.33l-3.8,1.01c.6,1.27,1.33,2.5,2.03,3.72.12.2.42.46.43.49.05.31-.23.96-.13,1.36-.47.16-1.2.13-1.55.46-.41.39-.87,1.57-1.12,2.12-.33.12-.32.57-.45.78-.35.59-.73,1.22-1.12,1.79-.12.18-.29.27-.33.33.91-1.86,2.23-3.5,2.9-5.47.78.08,1.69-.15,1.45-1.12-3.67-.05-6.9-2.03-9.99-3.76-3.18,1.64-6.38,3.75-10.1,3.76-.03.03.09.84.18.91.16.11,1.15.24,1.38.21-.04.23.04.4.12.6,1.3,3.16,3.63,5.79,5.35,8.67-.06-.04-.18-.07-.22-.11-.29-.28-.64-.87-.89-1.23-.13-.19-.3-.45-.45-.67-.31-.45-.6-.89-.89-1.34-.14-.22-.31-.45-.45-.67-.37-.59-.76-1.18-1.12-1.79-.15-.25-.3-.53-.45-.78-.28-.5-.83-1.92-1.12-2.23-.32-.34-1.3-.24-1.57-.5-.06-.06-.24-1.22-.23-1.33,0-.08.19-.08.23-.15.52-.94,1.43-2.28,1.81-3.19.06-.14.12-.25.09-.41-1.45-.01-2.85-.44-4.24-.78-.08-.1,1.84-1.33,2.01-1.73.12-.29-.72-.18-.67-.55.06-.26,1.85-1.64,2.01-2.01.08-.18-.06-.15-.14-.19-.38-.19-1.79-.33-1.64-.8.06-.2,1.73-.88,1.89-1.29-4.58,0-9.16,0-13.73,0,1.27-.67,2.61-1.19,3.87-1.88,3.08-1.69,5.79-3.98,8.24-6.48.39.15,1.61,1.2,1.9,1.2.81.02,1.98-2.28,2.74-.5l-5.36,4.3,5.77-4.01c.22-.04,1.1,1.08,1.38.88.05-.04.07-.47.11-.56.6-1.31,1.8-3.66,2.68-4.74.29-.35,1.34-1.18,1.34-1.57v-4.75c.55,0,.83.11,1.23.45ZM68.05,75.54s.08-.23.18-.33c3.26-3.4,4.79-6.44,7.12-10.42.44-.76,1.52-2.13,1.79-2.79.17-.43-.14-.66-.14-1.08-.93.42-1.53,1.29-2.06,2.13-1.13,1.79-1.92,3.91-2.95,5.76-1.31,2.36-3.01,4.86-5.49,6.07-.05.29.03.17.16.23.16.07,1.33.47,1.39.43ZM83.69,76.44c.05-.21-.12-.26-.22-.39-.48-.59-1.12-1.11-1.61-1.74-2.64-3.4-3.32-7.82-4.59-11.83l-1.84,2.9.38-.23,1.18-1.67c.89,3.94,1.68,7.82,4.41,10.94.39.45,1.4,1.52,1.84,1.85.15.11.23.21.45.16ZM66.17,78c2.06.78,4.19,1.55,6.42,1.68,3.63.21,7.42-1.16,10.43-3.07-3.69-3.17-5.32-7.54-6.14-12.23-.18-.19-2.82,3.98-3.03,4.28-2.35,3.32-4.83,6.44-7.68,9.34ZM78.56,65.17l-.22.05c1.2,4.23,2.56,8.34,6.03,11.28l-2.12.95.89,1.34-3.01.89c2.59.55,5.14.39,7.7-.22.08-.08-.37-.62-.45-.72-.42-.5-.96-.99-1.39-1.51-3.02-3.62-5.54-7.74-7.42-12.06ZM89.61,78.34c-2.22-2.47-4.68-4.75-6.81-7.32-.75-.91-1.55-2.27-2.3-3.06-.12-.12-.16-.28-.38-.23,1.44,2.65,2.96,5.25,4.8,7.64.37.48,2.89,3.56,3.19,3.62.24.05,1.14-.66,1.49-.65ZM82.58,78.56c-.15-.14-.61-.86-.72-.87-.09,0-1.3.67-1.55.77-4.47,1.92-9.03,2.09-13.53.13l-1.73,1.52c5.92,1.55,11.85.27,17.53-1.56ZM84.14,80.35c-1.64.08-3.25-.19-4.85-.46l-3.18.79c2.3.29,4.65.37,6.94-.03l1.1-.3ZM86.48,84.71l-2.06-3.8-.62-.11,2.14,3.89.54.02ZM74.54,80.91l-2.79.28-.78,1.4c1.34-.3,2.62-.6,3.57-1.67ZM76.55,81.02c-.52.06-1.09-.24-1.6-.09-.16.05-1.16.96-1.53,1.15-1.14.62-3.16.41-3.13,2.06,1.81-.64,3.55-1.49,5.21-2.44.34-.19.78-.4,1.04-.69ZM85.59,84.7c-.7-1.06-1.27-2.63-2.02-3.61-.25-.33-.6-.2-.5.16l1.85,3.26c.16.2.45.19.68.19ZM69.51,81.13l-.62.11-1.95,3.46.61-.11,1.95-3.46ZM70.41,81.13s-.35,0-.45.05c-.19.33-2.16,3.38-2.01,3.52.05.04.42,0,.51-.1.17-.35,2.09-3.34,1.94-3.47ZM71.3,81.13l-.5.11c-.06.33-1.99,3.12-1.84,3.24.08.06.48-.01.56-.16l1.78-3.19ZM83.36,84.15c-.21-1.61-1.75-1.38-2.87-1.88-.48-.21-1.15-.87-1.48-.98-.46-.15-1.27-.02-1.79-.16.26.28.7.5,1.04.69,1.62.91,3.32,1.77,5.1,2.33ZM79.45,81.25c.81.88,2.01,1.09,3.12,1.28l-.85-1.39c-.74.17-1.51.08-2.27.1ZM82.66,81.16c-.11-.06-.51-.11-.42.14.61.82,1.03,2.06,1.62,2.84.16.21.31.39.61.34-.2-.43-1.64-3.23-1.81-3.32Z"/>
    <path class="cls-9" d="M60.81,54.78s-.03.16.02.2c.03.03.57-.02.76.36v.11s-.08.1-.11.11c-.48.18-1.14.3-1.34.89-.11,0-.32-.13-.33-.11-.03.03.02.24,0,.34,0,.04-.12.14-.11.22-.49-.06-.81.42-1.12.67-.15.12-.6.27-.56.56-.5.23-.66.51-1,.89-.18.2-.44.31-.45.56-.38.23-.62.66-.89,1-.19.24-.45.3-.45.67v.11c-.28-.02-.82.8-1,1.06-.17.24-.4.8-.56,1.06-.14.23-.42.49-.56.78-.07.15-.12.28-.11.45-.41.31-.47.89-.78,1.28.12.13.41-.02.56-.06v.11c-.49.17-.66.5-.89.89-.2.34-.2.47-.33.78-.01.03.01.08,0,.11-.08.2-.13.31-.22.56-.04.12-.07.22-.11.33-.11.33-.23.64-.33,1-.01.05-.08.13-.11.22-.09.32-.07.6-.11.78-.08.35-.29.64-.33,1,.18.02.38-.02.56,0-.49.24-.63-.07-.68.74,0,.16.12.25.12.27,0,.04,0,.08,0,.11-.02.15-.35.6-.34.84,0,.09.26.07.34.06v.11h-.33c.1.37-.26.85,0,1.12-.07.2-.1.56-.11.78-.02.33-.08.87.11,1.12-.06.23-.1.54-.11.78,0,.04,0,.07,0,.11,0,.38-.04.86,0,1.23.08.75.19.52.78.56-.29.15-.64.09-.67.11-.06.06.18,1.15.22,1.34.04.16.08.22.11.33.06.19-.13.51.45.33v.11c-.15.01-.3-.01-.45,0l.34,1.23s.1-.02.11.06c.04.36-.17.59.34.5v.11c-.08.03-.23-.02-.34,0l.45,1.79.11-1h.11c-.02.1,0,.23,0,.33-.02.3.01.6,0,.89h.45c-.15.09-.44.12-.45.17-.02.12.16.62.23.75.06.12.21.07.22.08.03.05.1.53.22.78.08.16,0,.36.33.33-.06.03-.22.13-.21.16.23.46.35.86.66,1.29.19.26.24.54.56.45-.39.23-.17.16-.11.33.16.51.33.61.56,1,.06.1.15.22.22.33.08.13.15.22.22.33.2.3.31.56.56.89.32.41.08.49.67.33-.1.06-.35.12-.33.17.27.3.45.88.89.95.04.38.19.42.45.72.05.06.2.04.22.06.04.04.36.65.58.93.04.06.24.43.31.19.09.21.31.39.45.56.44.55.78.72,1.23,1.12.16.14.29.18.33.22.38.33.78.76,1.23,1.12.14.11.3.22.45.33.27.21.5.46.83.68.14.09.18.29.39.1.22.34.36.3.56.45.11.09.17.34.43.39.16.03.37-.08.6-.03,1.2.26,2.61.85,3.86,1.18,6.27,1.64,11.08,1.64,17.35,0,1.42-.37,2.83-.93,4.25-1.18.25.07.33.5.67.41.57-.14,2-1.37,2.54-1.77.53.16.36.46.56.78-.18-.15-.29-.03-.44.06-.77.48-1.49,1.2-2.36,1.5.12.14.31.77.41.79.22.05,1.97-.61,2.4-.72,1.94-.47,3.92-.55,5.9-.41-.91.67-1.96,1.06-2.84,1.79-.2.17-1.38,1.25-1.18,1.45,1.97.1,3.72,1.3,4.91,2.79-2.75-.54-5.53-.59-8.28-.08-.53.1-2.28.67-2.6.64-.59-.06-.99-1.44-1.56-1.46l-3.74.73c3.67,1.37,7.57,2.11,11.27,3.41l-.19.2-2.96.11-9.35-3.38c-3.72.26-7.47.43-11.21.06l-9.19,3.32-2.99-.09-.17-.22,10.83-3.35c-.42.01-.84-.07-1.25-.15-.77-.14-2.54-.66-3.17-.64-.57.02-.97,1.4-1.56,1.46-.32.03-2.06-.54-2.6-.64-2.75-.51-5.54-.46-8.28.08,1.2-1.49,2.94-2.7,4.91-2.79.2-.2-.97-1.28-1.18-1.45-.88-.73-1.94-1.12-2.84-1.79,1.98-.14,3.96-.06,5.9.41.44.11,2.18.76,2.4.72.07-.01.54-1.09.74-1.24-.81-.25-1.38-1.2-2.23-1.23.05-.09.33-.09.16-.23-.2-.16-.85-.63-1.06-.67.04-.17-.2-.33-.33-.45-.28-.23-.64-.43-.89-.67-.08-.07-.15-.15-.22-.22-.42-.39-.94-.92-1.34-1.34-.07-.08-.15-.15-.22-.22-.48-.51-1.01-1.13-1.45-1.67-.08-.1-.18-.17-.22-.22-.31-.4-.7-.91-1-1.34-.07-.1-.15-.23-.22-.33-.26-.39-.53-.83-.78-1.23-.07-.11-.15-.22-.22-.33-.24-.38-.39-1.09-.78-1.34.05-.16-.08-.25-.11-.33-.15-.39-.38-1.05-.67-1.34.02-.23-.16-.4-.22-.56-.19-.49-.3-1.03-.67-1.45l.09-.07c0-.13-.05-.25-.09-.38-.1-.33-.24-.67-.33-1-.07-.26-.15-.44-.22-.67-.22-.69-.19-1.46-.89-1.95l.45.06c-.06-.84-.19-1.62-.89-2.18l.56.17c.08-.81-.17-1.55-.67-2.18.12-.05.48.13.56.06.07-.07-.11-1.19-.11-1.45,0-.12,0-.31,0-.45,0-.04,0-.07,0-.11,0-.02.11-.18.11-.45,0-.62.05-1.1-.22-1.68l.22.11c.02-.23.14-.44.18-.66.18-1.08.3-2.13.38-3.17,0-.07.41-.67.54-1.16.14-.52.12-.45.28-.84.28-.69.49-1.21.41-1.98h.11l.22.11c.18-.67.71-1.14.56-1.9l.17.22c.14-.06.69-1.02.78-1.23s.09-.57.16-.7c.07-.11.3-.1.45-.24.31-.28.61-1.09.67-1.51h.11c.47-.08.73-.49.89-.89.48-.06.67-.61.89-.89.08-.1.15-.23.22-.33.1-.14.21-.25.33-.45.25.2,1.09-.65.89-.89.11-.07.22-.17.33-.22.71-.32,1.25-.82,1.79-1.45.12-.14.22-.3.33-.45.16-.21.4-.44.56-.67.08.02.3-.03.33,0ZM60.69,55.23c.13-.13-.05-.36-.22-.05-.01.1.21.06.22.05ZM91.27,105.57c-.04-1.57-.41-3.45-1.83-4.34-2.49.71-4.97,1.52-7.53,1.96-3.59.62-7.38.58-10.97-.09-2.36-.44-4.64-1.24-6.95-1.87-1.43.89-1.79,2.78-1.83,4.34,6.42,1.67,12.9,2.66,19.56,1.9,3.22-.37,6.39-1.18,9.54-1.9ZM62.25,103.02c-2.23-.86-4.63-1.29-7.03-1.23.63.53,1.38.86,2.01,1.39.17.14,1.71,1.74,1.56,1.84-1.75.04-3.51.76-4.69,2.07,3.22-.51,6.46-.24,9.6.61-.24-.49-1.65-1.47-1.76-1.86-.24-.8.15-2.02.31-2.82ZM98.2,101.79c-2.4-.06-4.79.38-7.03,1.23.16.8.54,2.02.31,2.82-.12.4-1.53,1.37-1.76,1.86,3.11-.81,6.36-1.2,9.55-.56-.08-.27-.41-.55-.62-.71-1.09-.87-2.62-1.38-4.01-1.41-.15-.11,1.39-1.7,1.56-1.84.63-.54,1.38-.86,2.01-1.39Z"/>
    <path class="cls-9" d="M104.57,78.79c-.16,0-.09-.12-.11-.22h.11c0,.07,0,.15,0,.22Z"/>
    <path class="cls-9" d="M94.41,55.56c.3.3.58.9.94,1.12.24.14.43.07.51.11.07.03,1.18.94,1.23,1,.02.03-.03.2,0,.22.06.05.3-.15.33-.11.02.02-.04.21.03.3.11.15.49.43.64.6.41.46.75.95,1.23,1.34.17.52.4.4.61.68.17.22.33.53.51.77.42.59.77,1.23,1.23,1.79.06.4.21.37.33.56.25.38.59.82.78,1.23,0,.01-.1.14-.03.3.24.52.62,1.02.7,1.6l.11-.67c0,.12-.01.89,0,.93,0,.07.19.06.22.15.1.32.04.89.12,1.15.03.09.24.21.33.22.2,1.01.47,2,.67,3.01.04.18.08.37.11.56.09.52.18,1.03.22,1.56.02.19.12.37.12.61-.02.73-.26.67,0,1.4.01.03,0,.07,0,.11.08.55.02,1.53,0,2.12,0,.03.08.13.08.25-.04.68-.3,1.62-.41,2.31.14.02.32-.03.45,0v.11c-.28-.03-.3-.05-.39.22-.3.88-.37,2.1-.61,3.02-.23.5-.33.48.11.89-.22.01-.35-.1-.48.14-.21.41-.28.98-.41,1.43-.27.44-.79,1.28-.56,1.79-.12.25-.38.43-.45.56-.3.55-.56,1.14-.89,1.67-.05.09-.17.26-.22.33-.07.09-.29.12-.22.33-.19.15-1.28,1.58-1.39,1.8-.06.12,0,.27-.06.44-.1.24-.58.8-.78,1-.09.09-.25.11-.22.33-.03.02-.39.34-.45.39-.1.11-1.03,1.32-1.06,1.39-.05.1.02.14.06.22-.59-.07-.98.63-1.34,1-.07,0-.15,0-.22,0-.37-.02-.75.02-1.12,0-.06-.21.1-.19.11-.22.11.26.32.05.45-.05.32-.26.6-.68.89-.95.34-.32,1.05-.48.11-.67.57-.02.65.19.89-.33.06-.13,0-.11,0-.11.03-.09.11-.21.11-.22.48.02.49-.36.67-.56.24-.26.34-.4.56-.67.34-.43.7-.83,1-1.28-.17-.13-.47-.03-.67-.06.15-.25.93-.04,1-.11.02-.02-.02-.44.08-.64.07-.14.31-.33.48-.58.45-.72.73-1.27,1.12-2.01.05-.09.15-.19.22-.33.11-.23.23-.44.33-.67.27-.58.55-1.19.78-1.79.17-.43.3-1,.45-1.45.04-.11.08-.22.11-.33.22-.7.29-1.17.45-1.9s.53-1.53.45-2.35c-.15,0-.3,0-.45,0v-.11c.31.02.59,0,.89.11-.05-.61-.22-1.17-.22-1.79.16,0,.1-.11.11-.22.1-.81-.14-1.92,0-2.68,0-.04-.01-.1,0-.11.04-.03.23.06.22-.05-.15-.24-.36-.68-.4-.95-.03-.19.07-.32.06-.33-.1-.78-.17-1.57-.35-2.33-.25-.02-.52-.03-.77-.01v-.11c.29-.03.6.02.89,0-.39-.35-.18-.76-.45-1.12l-.45-2.01c.07,0,.15,0,.22,0,.03-.1-.11-.1-.11-.11-.36-.9-.41-1.99-1.28-2.68-.11.14,0,.26-.17.45,0-.25.1-.72-.22-.78l.22-.05c-.28-.65-.28-.48-.89-.5v-.11c.19,0,.86.12.78-.16-.2-.67-.97-1.73-1.53-2.16-.23-.18-.35-.12-.37-.13-.1-.05-.15-.34-.45-.22.12-.03.25-.18.45-.11-.03-.17-.28-.33-.33-.45-.01-.03.02-.08,0-.11-.31-.59-.44-.82-1.12-1.23.03-.23-.14-.24-.22-.33-.31-.33-.47-.95-1-.89v-.11l.22-.06c-.47-.52-1.01-.97-1.56-1.4-.15-.12-.08-.28-.45-.33-.44-.6-1.07-1.03-1.67-1.45v-.11s.08,0,.11,0c.02,0,.33-.2.33-.22Z"/>
    <path class="cls-13" d="M72.64,66.62c-.04.09-.06.52-.11.56-.28.19-1.16-.92-1.38-.88l-5.77,4.01,5.36-4.3c-.76-1.78-1.92.53-2.74.5-.29,0-1.51-1.05-1.9-1.2-2.45,2.49-5.16,4.79-8.24,6.48-1.26.69-2.6,1.21-3.87,1.88-.57,0-1.29.09-1.79-.11.03-.04-.03-.18,0-.22,0-.02.14-.01.11-.11,4.96-1.94,9.22-5.26,12.92-9.03.42-.11,1.82,1.12,2.32,1.29.47-.21,1.78-1.41,2.21-1.29l2.87,2.44Z"/>
    <path class="cls-13" d="M81.12,68.18l3.46-4.42c.35-.17,1.28.94,1.51.93.19,0,.89-.94,1.2-.86.21.05,2.63,2.55,3.09,2.95,3.15,2.74,6.83,4.97,10.61,6.76.03.19-.25.11-.39.11-.76.03-1.53,0-2.29,0-3.38-1.75-6.57-3.74-9.38-6.31-.33-.3-2.12-2.27-2.29-2.27-.2,0-.76.75-1,.76-.29,0-1.05-.72-1.34-.89l-2.29,3.06,4.24,3.3c-1.68-.65-3.15-1.77-4.54-2.89-.52.34-.35.12-.6-.23Z"/>
    <path class="cls-19" d="M98.2,86.6c.07.29.07.59.11.89,0,.02-.11.11-.05.22.08.18.48.42.62.61.1.15-.02.27,0,.28-.42.41-.85.24-1.26.36-.19.05-.53.5-.69.5-.07,0-1.14-.45-1.33-.53-1.21-.54-2.61-1.64-3.92-1.77-2.54-.25-4.95.85-7.31,1.56.24-.55.7-1.74,1.12-2.12h12.73Z"/>
    <path class="cls-14" d="M50.76,65.5c.08.28.19.48.22.78.07.77-.13,1.29-.41,1.98-.16.39-.15.32-.28.84-.13.49-.53,1.09-.54,1.16-.08,1.04-.2,2.1-.38,3.17-.04.22-.15.44-.18.66l-.22-.11c.28.58.22,1.06.22,1.68l-.11.45s0,.07,0,.11l-.56-.39.56.84c0,.26.18,1.38.11,1.45-.08.08-.43-.11-.56-.06.5.63.74,1.36.67,2.18l-.56-.17c.7.56.83,1.33.89,2.18l-.45-.06c.7.49.67,1.26.89,1.95-.57-.27-1.31-.6-1.79-1-.09-.08-.09-.2-.11-.22.38.36.46-.97.45-1.06-.03-.23-.21-.25-.23-.28-.07-.13-.14-.34-.22-.45.1-.24.08-1.13.22-1.23.04-.03.23.06.22-.06-.45-.19-.56-.65-.78-.95.28-.71.27-1,0-1.67-.04-.1-.05-.21-.11-.33-.01-.07.02-.17,0-.22.34.07.2-.16.24-.37.11-.56.17-.77-.13-1.3.1,0,.26,0,.33-.05.2-.15.33-1.52.22-1.85-.01-.03.01-.08,0-.11.38-.21.17-.74.27-1.13.05-.19.24-.17.33-.45.13-.42.32-1.68.29-2.11,0-.04,0-.08,0-.11.36.06.19-.18.22-.39.04-.26.17-1.56.23-1.62.22-.21.25.47.44.22.13-.16-.02-2.03.34-2.34.05.14.18.31.22.45Z"/>
    <path class="cls-20" d="M95.3,96.43c-.14.43-.24.82-.45,1.23-.02.03-.17.01-.11.22.37.02.75-.02,1.12,0,.04.3-.48.49-.44.71.05.28.68.3.72.61.05.4-1.22,1.15-.06,1.8-.04,0-.11.12-.27.12-.68,0-1.44-.24-2.07-.45-.15-.13-.21-.13-.33-.33-.2-.33-.03-.62-.56-.78-.03,0-.08,0-.11,0,.03-.21-.85-.86-1-.89-.23-.3-.48-.57-.67-.89-.15-.42-.21-.73-.23-1.17,0-.21-.1-.45.23-.39.07.08.61.44.71.43.27-.02.78-.68,1.01-.64.07.01.56.46.78.56,1.1.51,1.05-.14,1.75-.13ZM94.63,97.88c-.16-.08-.3.07-.22.11.16.08.3-.07.22-.11Z"/>
    <path class="cls-20" d="M104.68,86.72c.38-.13.92-.29.78.22-.57,1.08.88.68.89,1.06,0,.3-1.25,1.14.11,1.84-.04.01-.13.17-.3.2-.82.15-1.72.13-2.5-.2-.41-.31-.53-.72-1-.89.07-.13.33-.31.45-.56.06-.12.17-.41.22-.56.58-.31.61-.86,1.34-1.12Z"/>
    <path class="cls-20" d="M106.35,81.91c.24.31-.15.7.11,1,.31.36,1.1-.08.89.67-.2.74.03,1.14.78,1.34-.94.59-1.75.89-2.9.56-.26-.13-.45-.25-.67-.45-.44-.41-.34-.39-.11-.89.47-1.02.64-1.53,1.59-2.12.08-.05.08-.2.1-.21.06-.04.17.1.21.1Z"/>
    <path class="cls-20" d="M101.33,91.29c.29-.23.65-.32,1-.4s.21,0,.23.29c-.45.67.17.94.78,1.01-.32.96-.88,1.27.22,2.01-.99.24-1.93.44-2.9-.11-.28-.25-.37-.61-.78-.56.07-.17,0-.32.06-.44.11-.22,1.2-1.65,1.39-1.8Z"/>
    <path class="cls-9" d="M75.77,49.76l.95-3.24,1.17,3.3c.15.1,2.36.07,2.74.06.3-.01.82-.31.72.1l-2.88,2.06,1.09,3.19c-.16.16-2.57-1.85-2.96-1.97l-2.68,1.97c-.13-.04-.03-.24,0-.34.27-1.02.77-1.99.94-3.05-.05-.15-2.29-1.55-2.64-1.83-.09-.07-.2,0-.14-.26h3.68ZM75.65,49.98c-.91.14-1.98-.15-2.9.06l2.4,1.73-.84,2.91c.58-.29,1.06-.86,1.56-1.23.22-.16.47-.35.72-.44.16,0,.77.43.95.55.46.32.94.82,1.45,1.12-.09-.96-.6-1.82-.87-2.74l2.54-1.78-3.02-.06c0-.74-.79-2.1-.89-2.9l-.8,2.6-.09.14c-.06.05-.15.04-.23.05Z"/>
    <path class="cls-20" d="M106.58,78.23c.26.43.58.03,1,.11.03.44-.13.89.22,1.23.32.3.82.43,1.23.22-.14.39-.72.66-1.12.89-.47.15-.88.46-1.4.45-.37,0-.72-.25-1.06-.34-.12-.03-.31.02-.45,0,.11-.7.38-1.63.41-2.31,0-.13-.08-.23-.08-.25.36-.32.56-.69,1-.89.18.3.03.57.22.89Z"/>
    <path class="cls-14" d="M53.89,58.8c.33.51-.11,1.72.22,2.12,0,.04,0,.08,0,.11-.05.42-.36,1.23-.67,1.51-.16.14-.39.13-.45.24-.08.13-.07.5-.16.7s-.64,1.17-.78,1.23l-.17-.22c.15.75-.38,1.23-.56,1.9l-.22-.11c.28-.84.24-1.75.33-2.63.02-.2.03-.38.23-.5.03.15-.11.56.11.56l.11-2.01c.12-.34.32-.94.55-1.18.2-.2.2-.21.34.06-.05-.01-.09,0-.11.05.3.43-.15,1.2.33,1.51-.03-.63,0-1.17.11-1.79.1-.56.23-.94.52-1.43.1-.17.25-.12.26-.14Z"/>
    <path class="cls-14" d="M55.11,60.14c-.16.4-.43.82-.89.89-.03-.04-.08-.07-.11-.11.09-.7.05-1.37.22-2.12,0-.04,0-.08,0-.11l.11-.33c.15-.34.53-.83.78-1.12.18.18.23.48.23.73,0,.59-.13,1.65-.34,2.18Z"/>
    <path class="cls-20" d="M104.57,78.79c0-.07,0-.15,0-.22h.11c-.01.11.05.22-.11.22Z"/>
    <path class="cls-20" d="M103.12,76.55c.54.02.23.1.46.38.43.52.74.93.88,1.63.02.1-.05.22.11.22,0,.62.18,1.18.22,1.79-.31-.11-.58-.09-.89-.11-.76-.05-1.51-.1-2.23-.33-.27-.15-.63-.27-.78-.56.17-.12.96-.19,1-.23s0-.42,0-.55.11-.33,0-.56c.37.04,1.03-.12,1.23-.45.19-.31.16-.91,0-1.23Z"/>
    <path class="cls-20" d="M103.9,82.92c-.15.73-.23,1.2-.45,1.9-.81.11-1.54.17-2.34,0-.49-.18-.65-.26-.89-.67.78-.21.85-.06.89-.89,0-.12-.02-.54,0-.56.04-.04.6.03,1.01-.22.12-.07.26-.22.33-.33.15-.24.11-.5.33-.67.45.44.94.79,1.12,1.45Z"/>
    <path class="cls-20" d="M102.11,86.6c.15.6.02,1.12-.22,1.67-.07.16-.24.36-.29.57-1.21.08-2.46-.12-3.17-1.18.29-.16.63.08.89-.17,0,0,.1-.19.11-.22.12-.31.08-.75.11-.78.04-.04.65.07,1.01-.11.52-.26.46-.69.78-1,.33.3.67.8.78,1.23Z"/>
    <path class="cls-20" d="M106.47,72.76c0,.26-.01.52,0,.78,0,.07,0,.15,0,.22l1-.11c0,.47-.09.74.22,1.12.22.26.56.4.89.33-.29.46-.02.34-.67.67-.29.15-.98.43-1.29.45-.54.04-.79-.22-1.28-.23-.26-.73-.01-.67,0-1.4,0-.24-.1-.42-.12-.61.37.06.06-.19.22-.48.02-.04.64-.66.68-.69.13-.09.27-.04.33-.06Z"/>
    <path class="cls-20" d="M98.87,94.87c.31-.18,1.07-.45.89.11-.47.9.72.67.78.95.05.22-.94.99,0,1.62l.05.22c-.75.13-1.42.16-2.18,0-.34-.18-.83-.53-1-.89-.04-.08-.11-.12-.06-.22.04-.08.96-1.29,1.06-1.39.05-.05.42-.38.45-.39Z"/>
    <path class="cls-20" d="M105.91,68.63c.12.15.16.85.22.89.09.07.73-.51.99-.21.22.25-.41,1.59.9,1.22,0,.01.12.11.01.28-.19.3-.73.8-1.02,1.06-.65.54-1.12.41-1.9.34-.03-1.02,0-2.04.34-3.02.15-.26.21-.34.45-.56Z"/>
    <path class="cls-20" d="M102.11,59.02s.11.1.11.19c0,.16-.12.41,0,.48-.14.52-.27.87-.67,1.28-.38.39-.75.24-1.12.62-.18-.25-.34-.56-.51-.77-.21-.28-.43-.16-.61-.68-.22-.64-.26-1.49.33-1.9-.27.26.02.84.3.88.2.03.58-.54.77-.66.4.55.67,1.08,1.4.56Z"/>
    <path class="cls-20" d="M102,69.41c.54.14,1.57,1,1.9,1.45.26.36.06.76.45,1.12-.29.02-.6-.02-.89,0-.94.08-1.84.22-2.79,0-.06-.02-.22.05-.31-.03-.06-.05-.01-.19-.03-.2.93-.08.88-.4.45-1.12.4-.01,1.17-.29,1.23-.73.02-.17-.15-.41,0-.49Z"/>
    <path class="cls-20" d="M104.57,74.43s-.09.14-.06.33c.04.27.25.71.4.95,0,.12-.18.03-.22.05-.94,0-1.86.26-2.79,0-.08-.04-.18-.02-.28-.11-.08-.06-.11-.16-.16-.23,1.33-.16.37-.91.61-1.23.05-.07.75-.36.96-.55.34-.33.12-.42.33-.78.48.46.89.99,1.23,1.56Z"/>
    <path class="cls-20" d="M101.89,62.15c.66.85.65.27,1.39,0,.39.62.52,1.05,1.29.57,0,.02.15.13.09.35-.1.41-.33.8-.43,1.21-.42.56-.85.61-1.45.89-.19-.41-.53-.85-.78-1.23-.18-.52-.28-1-.22-1.56.02-.06.08-.16.11-.22Z"/>
    <path class="cls-20" d="M104.23,65.5l.12.78c.22.12.8-.25.89-.17.16.13.2.83.55,1.07.27.19.48.03.67.22-.24.42-.51.82-.89,1.12-.59.38-1.04.14-1.67.11-.07-.25-.02-.82-.12-1.15-.03-.1-.21-.08-.22-.15,0-.05,0-.81,0-.93,0-.3.27-.41.33-.54.04-.09-.03-.28.02-.35.05-.06.28.02.32,0Z"/>
    <path class="cls-20" d="M100.1,62.6s.14-.05.37.13c.56.43,1.33,1.49,1.53,2.16.08.28-.59.16-.78.16-.87.02-1.73.04-2.57-.22-.19-.1-.15-.05-.33-.22l.73-.22c.19-.24-.21-.56-.18-.73.05-.21,1.5-.24,1.23-1.06Z"/>
    <path class="cls-20" d="M93.63,53.78c.58.74.47,1.08.45,2.01-.03,0-.08,0-.11,0-.71.17-1.92.24-2.57-.11-.11-.08-.14-.13-.22-.22,1.23-.11.32-.91.5-1.12.13-.15.75-.13.95-.55.13-.27.06-.47.22-.67.45.28.48.29.78.67Z"/>
    <path class="cls-20" d="M103.56,68.74c-1.07-.13-2.16-.28-3.13-.78-.08-.06-.16.02-.33-.22.75-.02.99-.11.67-.89.36.02,1.1-.05,1.34-.34.16-.19.06-.31.17-.45.88.69.92,1.78,1.28,2.68Z"/>
    <path class="cls-20" d="M96.98,56.34c.59.67.78-.4,1.06-.33.46.41.42.94,1.06.45.32-.06.24.18.22.39-.04.5-.21,1.03-.56,1.4-.25.26-.48.29-.67.56-.15-.17-.53-.45-.64-.6-.07-.09-.01-.28-.03-.3-.03-.03-.28.16-.33.11-.03-.03.02-.2,0-.22,0-.12-.09-.23-.11-.33-.13-.53-.09-.63,0-1.12Z"/>
    <path class="cls-13" d="M106.35,77.34c.22-.1.58-.22.81-.2.35.03.47.29.64.36.21.08.57-.09.89.24.36.36.07.68.11.98.02.11.56.15.23,1.08-.41.2-.91.08-1.23-.22-.25-1.2.39-1.48-1.23-1.34-.19-.32-.04-.59-.22-.89Z"/>
    <path class="cls-13" d="M106.35,81.91c.39-.05.61-.18,1.03.03.28.13.27.37.42.47.18.12.36.04.61.28.62.58-.07.98-.06,1.07,0,.07.45.04.33.84-.15.18-.4.24-.56.33-.75-.2-.99-.6-.78-1.34.03-.1.19-.26.21-.39-.02-.21-.89-.33-1.11-.28-.26-.31.13-.7-.11-1Z"/>
    <path class="cls-13" d="M103.01,90.85c.7.25.52.45.84.78.18.18.52.09.6.62.1.67-.26.67-.3.9-.08.41.4.54-.25,1.05-.1.02-.24-.02-.33,0-1.1-.74-.54-1.05-.22-2.01-.61-.07-1.23-.34-.78-1.01.11-.16.24-.34.45-.33Z"/>
    <path class="cls-13" d="M106.24,86.6c.38.21.36.47.56.72.21.26.57.24.64.82.06.52-.4.53-.42.65-.04.18.52.37-.11,1.06-.13.02-.34-.03-.45,0-1.36-.71-.11-1.54-.11-1.84,0-.38-1.47.02-.89-1.06.05-.1.12-.32.18-.34.16-.04.41.03.6,0Z"/>
    <path class="cls-13" d="M101.33,85.38c-.32.32-.27.74-.78,1h-1.12s0,.89,0,.89c-.01.03-.1.21-.11.22h-1c-.05-.3-.04-.6-.11-.89.73-.14.32-1.06,1.11-1.29.34-.1.54.1.71.08.12-.02,0-.35.57-.36.45,0,.46.11.73.35Z"/>
    <path class="cls-13" d="M102.45,81.13v1c-.07.11-.22.26-.33.33-.54.12-1.47-.02-1,.78-.05.83-.11.68-.89.89-.16-.28-.3-.42-.27-.8.04-.56.27-.42.37-.56.03-.03-.22-.41.03-.81.32-.5.86-.3,1.08-.43.07-.04.07-.33.32-.4.15-.05.54-.05.7-.02Z"/>
    <path class="cls-13" d="M103.12,76.55c.16.32.19.92,0,1.23-.21.19-1.29.29-1.34.34-.06.06.01.55.11.67,0,.13.03.52,0,.55s-.83.11-1,.23c-.33-.63.1-1.49.28-2.12.32-.5.65-.23.94-.4.35-.2.11-.54,1.01-.5Z"/>
    <path class="cls-1" d="M48.86,68.63c.12.16.15.56.45.67.02.43-.17,1.69-.29,2.11-.08.28-.28.25-.33.45-.1.39.11.92-.27,1.13,0-.01-.15-.07-.2-.19-.11-.27-.11-.62-.36-.82,0-.04,0-.07,0-.11-.05-.49-.24-1.14,0-1.56.02.02.09-.02.11,0l.84,1.11c0-.46-.34-1.03-.39-1.45-.06-.5-.01-1.18.11-1.67.1.11.27.25.33.33Z"/>
    <path class="cls-1" d="M50.42,64.38c.03.08.06.52.11.67-.35.32-.21,2.18-.34,2.34-.19.25-.23-.43-.44-.22-.06.06-.19,1.36-.23,1.62-.03.21.14.45-.22.39-.04-.32-.28-.77-.32-1.19-.05-.49,0-1-.01-1.49.04-.17.16-.34.11-.56.31-.06.26.2.33.33.14.24.23.63.45.78-.16-.85-.1-1.61,0-2.46.08-.22.2-.43.22-.67.17.05.28.29.33.45Z"/>
    <path class="cls-13" d="M108.59,75.1c-.34.07-.68-.08-.89-.33-.21-.23-.02-1.07-.05-1.12-.2-.29-.84.13-1.18-.11-.01-.26,0-.52,0-.78.25-.11.25-.3.7-.2.07.01.95.35,1.06.4.7.31.33.64.39.96.03.17.35.22.32.68-.02.42-.26.37-.35.5Z"/>
    <path class="cls-20" d="M94.52,55c.22-.13.24.33.33.22.08-.1.21-.62.4-.67.27-.06.51.45.55.44.16-.03.55-.36.73-.45.32.82-.02,1.72-.67,2.23-.08-.04-.27.04-.51-.11-.36-.22-.65-.82-.94-1.12.01-.03.11-.53.11-.56Z"/>
    <path class="cls-13" d="M105.91,68.63c.23-.22.36-.45.74-.44.25,0,.33.17.45.19.22.03.34-.18.66.02.49.31.14.77.22.91.06.1.37.07.38.5.01.47-.23.52-.33.72-1.32.37-.68-.97-.9-1.22-.26-.3-.9.28-.99.21-.06-.05-.11-.74-.22-.89Z"/>
    <path class="cls-13" d="M96.08,97.88c.33.05,1.07,1.2,1.11,1.52.09.66-.26.5-.39.72-.14.23.04.56-.28.89-.14.02-.31-.02-.45,0-1.16-.64.11-1.4.06-1.8-.04-.31-.68-.33-.72-.61-.04-.22.48-.42.44-.71.07,0,.15,0,.22,0Z"/>
    <path class="cls-13" d="M100.44,94.64c.39.24.34.47.51.67.15.17.53.11.61.63.06.45-.28.49-.31.67-.05.24.23.52-.02.94-.23.1-.44.08-.67,0-.94-.63.05-1.4,0-1.62-.06-.28-1.25-.05-.78-.95.14-.27.37-.39.67-.33Z"/>
    <path class="cls-13" d="M102,69.41c-.15.08.02.33,0,.49-.06.45-.83.72-1.23.73.43.71.49,1.03-.45,1.12-.12-.1-.37-.03-.43-.42-.02-.12.06-1.26.12-1.34.04-.05,1.1-.66,1.17-.67.38-.11.53.01.81.09Z"/>
    <path class="cls-20" d="M94.41,56.57c.09.05.56.36.56.39-.36.41-.78.75-1.23,1.06-.34.34-.6.11-.78.11.31-.44-.43-.59-.44-.72,0-.09.62-.68.22-1.06.69,0,.88-.19,1.67.22Z"/>
    <path class="cls-13" d="M102.45,72.76l.56-.11v1.01c-.2.2-.9.48-.96.55-.23.33.72,1.07-.61,1.23-.56-.66-.2-.55-.14-1.08.02-.18-.11-.33-.04-.6.16-.57.64-.45.83-.58.08-.06.06-.27.13-.35.09-.11.22-.06.23-.07Z"/>
    <path class="cls-13" d="M106.58,66.39c.08.72-.06.86-.78.78-.35-.24-.39-.94-.55-1.07-.09-.07-.67.29-.89.17l-.12-.78c.09-.06.1-.3.4-.34.1-.01.98.11,1.09.14.48.15.33.62.47.87.08.14.31.15.39.22Z"/>
    <path class="cls-13" d="M104.79,62.26c.03.16-.22.37-.22.45-.77.48-.91.05-1.29-.57-.74.28-.73.85-1.39,0,.1-.19.08-.29.31-.41.37-.19.83-.26,1.2-.49.2,0,1.29.8,1.4,1.02Z"/>
    <path class="cls-13" d="M91.95,52.88c.71-.18.69.31.67.89-.21.42-.83.4-.95.55-.17.21.73,1.01-.5,1.12-.06-.07-.14-.09-.22-.22-.23-.39.07-.69.08-.86.02-.27-.17-.6.03-.93.17-.1.38-.08.55-.18.1-.06.2-.35.34-.38Z"/>
    <path class="cls-13" d="M99.66,62.37c.29-.11.34.17.45.22.27.82-1.18.85-1.23,1.06-.04.17.36.49.18.73l-.73.22c-.13-.13-.3-.12-.34-.4-.01-.1.13-1.09.17-1.17.16-.34.61-.14.84-.28.3-.19-.03-.21.67-.39Z"/>
    <path class="cls-13" d="M102.11,58.35c.24.24,0,.53,0,.67-.72.52-.99,0-1.4-.56-.18.12-.56.69-.77.66-.27-.05-.57-.62-.3-.88.36-.24.88-.33,1.28-.57.41.18.75.46,1.17.68Z"/>
    <path class="cls-13" d="M101.89,65.72c.32.07.22.53.22.78-.24.29-.98.35-1.34.34.32.78.08.87-.67.89-.1-.14-.24-.43-.22-.61,0-.05.3-.87.33-.91.27-.4.63-.14.83-.19s.29-.42.85-.31Z"/>
    <path class="cls-1" d="M55.23,61.37c.26.02.55.44.78.56-.08.06-.11.26-.33.22-.2,0-.61.21-.78.33-.11.03-.53.11-.45.28l.78.5c-.27.23-.44.5-.78.67-.07-.01-.28-.02-.33,0l-.45-.45c.16-.26.39-.81.56-1.06.18-.27.72-1.08,1-1.06Z"/>
    <path class="cls-1" d="M51.54,62.71c.03.11.09.34.11.45-.19.12-.2.3-.23.5-.1.87-.06,1.78-.33,2.63h-.11c-.03-.31-.14-.5-.22-.78,0-.98-.08-1.96.22-2.9.05-.08.23-.52.33-.45.05.2.16.35.22.56Z"/>
    <path class="cls-1" d="M53.55,93.08c-.14.23-.28.88-.22,1.12-.98-.26-1.54-.37-2.23-1.23.82-.32,1.67-.05,2.46.11Z"/>
    <path class="cls-14" d="M50.09,85.82s.53.42.56.45c.37.42.48.96.67,1.45-.62.15-1.33-.65-1.79-.67-.04-.03-.07-.08-.11-.11.12-.36-.01-.93.33-1.12h.33Z"/>
    <path class="cls-14" d="M50.31,84.82c.1.34.23.67.33,1h-.56c-.18-.11-.28-.08-.33-.11-.14-.07-.3-.16-.45-.22-.03-.12-.13-.16-.22-.22l.11-1.34c.44.26.73.58,1.12.89Z"/>
    <path class="cls-13" d="M99.32,55.79c.03.39.07.45-.22.67-.64.49-.61-.04-1.06-.45-.28-.06-.47,1-1.06.33.02-.13-.02-.3,0-.45.24-.29.85-.44,1.18-.67.31-.06.4.27.61.38.17.09.4.08.55.17Z"/>
    <path class="cls-1" d="M60.03,57.91c-.14.42-1.02.89-1.45,1-.51.14-1.04.12-1.56.11.35-.38.5-.66,1-.89.55-.25,1.44-.47,2.01-.22Z"/>
    <path class="cls-1" d="M49.2,83.92l-.11,1.34c-.17-.13-.41-.22-.56-.33-.68-.52-.83-.85-1.23-1.56.53-.16,1.44.29,1.9.56Z"/>
    <path class="cls-1" d="M56.68,96.65c-.28.3-.23.74-.22,1.12-.1-.02-.25.02-.33,0-.66-.18-1.06-.42-1.56-.89l-.11-.33c.31.12.84-.11,1-.11.33,0,.89.17,1.23.22Z"/>
    <path class="cls-13" d="M95.53,58.02c-.16.29-.57.5-.89.56l.44.62s-.27.24-.32.28c-.08.04-.34.05-.45.11-.44-.31-.22-.72-.32-1.26.35-.16.74-.72.99-.86.38-.06.51.23.56.56Z"/>
    <path class="cls-14" d="M58.8,55.23c-.02.19,0,.29,0,.33-.33-.11-.25.56-.33.89,0,.04.01.08,0,.11l-.33.45c-.08.08-.19.09-.22.11-.39-.53.24-1.27-.11-1.79.06-.1.09-.22.11-.33.17-.19.48-.51.67-.67l.33-.11c.08.36-.07.68-.11,1Z"/>
    <path class="cls-1" d="M49.75,89.17c.57.06,1.15.27,1.67.45l-.11,1.12c-.06-.03-.24.02-.33,0-.65-.49-1.19-.79-1.67-1.51.06-.1.34-.07.45-.06Z"/>
    <path class="cls-1" d="M54.67,94.76l-.11,1.23c-.51-.19-.98-.42-1.45-.67-.39-.28-.29-.22-.56-.56.49-.18,1.22-.15,1.74-.12.2.01.34.12.38.12Z"/>
    <path class="cls-3" d="M62.26,53.89c-.16.24.73.83.89.89l-.22.22c-.44-.02-.92.22-1.34.33-.19-.38-.72-.33-.76-.36-.05-.05,0-.19-.02-.2.41-.46.92-.63,1.45-.89Z"/>
    <path class="cls-14" d="M56.79,58.13c-.06.27-.14.21-.22.33-.12.19-.24.3-.33.45-.36-.59.42-1.75-.11-2.23.26-.45.45-.56.78-.89.33-.26.25.09.22.28-.1.64-.21,1.46-.33,2.07Z"/>
    <path class="cls-14" d="M60.92,53.78c-.07.31-.28.75-.45,1-.16.23-.4.46-.56.67-.33-.49.08-1.16-.11-1.67.19-.21.46-.5.67-.67.04-.03.24-.16.33-.22.03-.02.09.02.11,0,.09-.02.11.09.1.16-.03.19-.07.58-.1.74Z"/>
    <path class="cls-13" d="M97.76,60.36c-.04.08.02.23-.1.4-.14.18-.65.3-.68.44-.05.22.72.54.11.84-.09.05-.33.05-.45.11-.32-.28-.46-1.18-.17-1.46.13-.12.36-.14.48-.25.11-.1.16-.32.26-.41.29-.03.57-.01.56.33Z"/>
    <path class="cls-1" d="M59.13,99.45l-.11,1c-.44,0-.86-.11-1.29-.18l-.05.07c-.37-.12-.59-.2-.89-.45v-.22s.07,0,.11,0c.75-.08,1.48-.17,2.23-.22Z"/>
    <path class="cls-1" d="M50.65,87.72l-.11,1.23s-.18.03-.22,0c-.41-.24-.99-.7-1.23-1.12-.07-.13-.09-.4-.22-.56.18-.13,1.51.32,1.79.45Z"/>
    <path class="cls-14" d="M60.03,99.33c.21.03.85.51,1.06.67.17.13-.11.14-.16.23-.07,0-.15,0-.22,0-.55.03-1.04.24-1.67.22l.11-1c.24-.02.5-.18.89-.11Z"/>
    <path class="cls-1" d="M48.42,81.58s.2.05.23.28c.01.09-.07,1.41-.45,1.06-.59-.58-.73-.75-1-1.56-.03-.1-.28-.4.05-.33.37.08.77.48,1.18.55Z"/>
    <path class="cls-1" d="M52.1,91.29l-.11,1.12c-.08-.03-.26.03-.33,0-.63-.25-1.04-.59-1.45-1.12.58-.26,1.32-.09,1.9,0Z"/>
    <path class="cls-1" d="M59.91,55.45c-.11.14-.22.31-.33.45-.19,0-.3.14-.45.22l-.45.11c-.04-.24.09-.45.11-.67,0-.05-.02-.15,0-.33l.11.11c.09-.2.26-.88.34-1,.04-.06.46-.44.56-.56.19.51-.22,1.19.11,1.67Z"/>
    <path class="cls-1" d="M47.52,79.12c.28.15.71.5.89.78-.15.1-.13.99-.22,1.23-.06-.08-.28-.15-.33-.22-.45-.61-.64-1.19-1-1.84.19-.3.44-.07.67.06Z"/>
    <path class="cls-1" d="M47.86,72.65c.16.17.24.45.56.45.11.32-.02,1.69-.22,1.85-.07.06-.23.05-.33.05.29.53.24.74.13,1.3-.04.21.1.43-.24.37-.11-.28-.4-.54-.53-.98-.09-.34-.27-.96-.03-1.25.11.1.5.55.61.56.35.01-.15-.82-.17-.89-.09-.46-.21-1.26,0-1.67.08.08.15.15.22.22Z"/>
    <path class="cls-15" d="M77.89,56.01s.08.07.11.11c.15.49.07.97.11,1.45-.48-.04-.74-.58-1.23-.56,0-.43,0-.81.11-1.23l.89.22Z"/>
    <path class="cls-1" d="M48.19,85.04c.33.22.74.29,1.12.45.15.06.3.15.45.22v.11c-.35.18-.22.76-.33,1.12-.7-.57-1.09-1.05-1.56-1.84.03-.12.23-.04.33-.06Z"/>
    <path class="cls-1" d="M47.86,77.22c.27.67.28.96,0,1.67-.03-.04-.2-.07-.22-.11-.45-.68-.67-1.34-.89-2.12l1.12.56Z"/>
    <path class="cls-13" d="M96.53,54.56c-.18.09-.57.42-.73.45-.04,0-.28-.5-.55-.44-.19.04-.32.57-.4.67-.1.11-.11-.36-.33-.22,0-.08-.19-.37-.11-.56.02-.05.8-.57.95-.57.05,0,.91.27.95.29.1.06.18.27.22.39Z"/>
    <path class="cls-1" d="M57.68,98.11l-.11,1c-.24-.02-.55-.07-.78-.11-.04,0-.08,0-.11,0-.24-.23-.59-.29-.89-.45-.07-.04-.16-.07-.22-.11,0-.3.13-.31.39-.34.47-.05,1.24-.02,1.74,0Z"/>
    <path class="cls-1" d="M56.23,58.91c-.08.11-.14.23-.22.33l-.56.22c-.14-.16.23-1.82.33-2.12.07-.19.23-.49.33-.67.53.49-.25,1.64.11,2.23Z"/>
    <path class="cls-1" d="M63.15,53.55c.43.08.65.6,1.12.56-.33.22-.46.38-.89.56l-.11.11s-.09,0-.11,0c-.17-.07-1.06-.65-.89-.89.34-.17.58-.22.89-.33Z"/>
    <path class="cls-13" d="M92.73,56.34c.4.39-.23.97-.22,1.06.01.14.75.28.44.72-.1,0-.19.13-.22.22-.67-.19-.26-.14-.48-.52-.04-.07-.23-.05-.28-.34-.07-.42.25-.82.31-1.26.06.02.42.11.45.11Z"/>
    <path class="cls-4" d="M63.71,53.22c.33-.09,1.03-.12,1.4-.11.28,0,.36-.07.17.22-.41.41-.55.48-1,.78-.47.04-.69-.47-1.12-.56.16-.06.41-.29.56-.33Z"/>
    <path class="cls-1" d="M57.68,60.14c-.25.16-.47.39-.78.45-.36-.01-.9.31-1.23,0,.27-.34.51-.78.89-1,.05-.03.24-.07.33-.11.03.32.49.58.78.67Z"/>
    <path class="cls-14" d="M63.49,55.34s.27-.09.22.11c-.55.21-1,.59-1.56.78-.2-.27-.66-.29-.67-.67.04-.01.08-.1.11-.11.57-.17,1.34-.35,1.9-.11Z"/>
    <path class="cls-1" d="M52.77,68.51c-.12.13-.15.32-.45.56-.17.14-.37.23-.56.33-.15-.28-.57-.3-.56-.67.04-.12.07-.22.11-.33.23.03.42-.32.56-.33.26-.03.56.49.89.45Z"/>
    <path class="cls-1" d="M52.77,66.06c0,.26.51.58.78.67-.16.15-.28.31-.45.45-.12,0-.41.16-.56.22l-.67-.45c.23-.4.4-.72.89-.89Z"/>
    <path class="cls-1" d="M52.32,70.41c-.16.21-.19.45-.45.67-.04.03-.23.03-.33.11l-.78-.45c.12-.25.36-.6.56-.78.05-.05.16-.07.22-.11l.78.56Z"/>
    <path class="cls-14" d="M54.44,65.61s.02.09,0,.11l-.11.11c-.31.4-.39.53-.78.89-.27-.09-.79-.41-.78-.67v-.11c.24-.06.41-.18.56-.22.31-.09.88-.33,1.12-.11Z"/>
    <path class="cls-1" d="M51.88,72.65c-.07.08-.15.15-.22.22-.14.15-.49.44-.67.56l-.67-.56s0-.08,0-.11c.16-.25.34-.47.56-.67.42-.02.68.36,1,.56Z"/>
    <path class="cls-14" d="M58.91,59.25c-.33.14-.79.61-1.23.89-.29-.09-.75-.35-.78-.67.56-.22,1.44-.5,2.01-.22Z"/>
    <path class="cls-14" d="M57.23,60.81c-.33.56-.73.74-1.23,1.12-.23-.12-.52-.54-.78-.56v-.11c.63-.26,1.31-.46,2.01-.45Z"/>
    <path class="cls-14" d="M51.88,67.96c.39-.17.77-.44,1.2-.53.18-.04.55-.16.47.2-.28.44-.5.59-.78.89-.34.04-.63-.48-.89-.45v-.11Z"/>
    <path class="cls-14" d="M61.7,56.68s.11.05.06.11c-.16.22-.91.42-1.18.56-.37.08-.59-.41-.89-.45,0-.09.1-.18.11-.22.63.04,1.29-.3,1.9,0Z"/>
    <path class="cls-14" d="M54.56,64.05c1.12-.22-.31,1.01-.56,1.23-.03,0-.08,0-.11,0,0-.37-.41-.39-.56-.67.36-.2.78-.47,1.23-.56Z"/>
    <path class="cls-1" d="M61.48,55.56c0,.38.47.4.67.67-.12.04-.2.08-.33.11-.54.11-1.12.14-1.67.11.2-.6.86-.72,1.34-.89Z"/>
    <path class="cls-14" d="M51.54,69.85c.41-.32.85-.63,1.39-.67.21.01-.12.58-.17.67-.14.32-.26.31-.45.56l-.78-.56Z"/>
    <path class="cls-14" d="M51.09,71.86c.23-.16.92-.52,1.17-.56.35-.05-.05.28.17.34-.13.26-.39.8-.56,1-.32-.2-.59-.58-1-.56.07-.07.15-.17.22-.22Z"/>
    <path class="cls-1" d="M59.69,56.9c.3.04.53.53.89.45-.08.04-.22.15-.33.22-.55.04-1.14.27-1.67,0,.3-.25.62-.73,1.12-.67Z"/>
    <path class="cls-6" d="M59.69,98.89c.14.12.37.28.33.45-.39-.07-.66.09-.89.11-.76.06-1.48.14-2.23.22l.89-.33-1-.34c.23.05.55.09.78.11.72.08.99.14,1.74,0,.21-.04.45.13.38-.23Z"/>
    <path class="cls-14" d="M54.89,62.48c.3-.07,1.26-.28,1.12.11-.28.32-.51.44-.78.67l-.78-.5c-.08-.17.34-.25.45-.28Z"/>
    <path class="cls-6" d="M51.32,90.74s.06.15.19.19c.51.19,1.07.24,1.59.36.07.11.15.22.22.33-.39-.21-.79-.27-1.23-.33-.58-.09-1.32-.26-1.9,0-.07-.09-.29-.09-.22-.33h1.23c.02-.13-.13-.15-.22-.22.09.02.27-.03.33,0Z"/>
    <path class="cls-19" d="M102.89,86.6c-.23.6-.52,1.21-.78,1.79-.23.14-.24.19-.22-.11.25-.55.38-1.08.22-1.67h.78Z"/>
    <path class="cls-6" d="M55.23,57.24c.05-.05.15-.28.22-.22l.11.56h.11s.11-.22.11-.22c-.11.31-.48,1.96-.33,2.12l.56-.22c-.22.28-.41.84-.89.89.22-.53.34-1.59.34-2.18,0-.24-.05-.55-.23-.73Z"/>
    <path class="cls-6" d="M47.3,83.37c-.04-.07-.3-.1-.22-.33.37.07.71.24,1.09.31.3.06.31.06.14-.2.48.41,1.22.73,1.79,1,.07.23.15.41.22.67-.39-.31-.68-.63-1.12-.89s-1.37-.72-1.9-.56Z"/>
    <path class="cls-2" d="M105.46,69.18c-.33.97-.37,2-.34,3.02.78.08,1.25.21,1.9-.34-.09.08-.13.24-.28.34-.62.41-1.1.07-1.73.22-.03-.18-.08-.37-.11-.56.24-.52.05-1.14.14-1.7.05-.36.24-.67.42-.98Z"/>
    <path class="cls-6" d="M56.45,97.77c.71.15,1.36.34,2.12.22.08.07.15.15.22.22-.38,0-.73-.09-1.12-.11-.5-.02-1.26-.06-1.74,0-.25.03-.39.04-.39.34-.82-.57.38-.45.89-.45l-.33-.22c.09.02.24-.02.33,0Z"/>
    <path class="cls-2" d="M93.96,55.79v.11l-.89.22c.47-.02.99.12,1.34.45-.79-.41-.98-.22-1.67-.22-.02,0-.39-.09-.45-.11-.27-.09-.67-.39-.89-.56.64.35,1.86.28,2.57.11Z"/>
    <path class="cls-2" d="M55.34,94.53c.04.06.14.13.22.22-.29-.02-.6.03-.89,0-.04,0-.17-.11-.38-.12-.52-.03-1.26-.06-1.74.12-.03-.03-.33.1-.22-.22h1.45c-.01-.23-.37-.03-.45-.34.66.18,1.3.42,2.01.33Z"/>
    <path class="cls-6" d="M52.32,69.07l.89-.11c.1.1-.23.84-.45.89.04-.09.38-.66.17-.67-.55.04-.98.35-1.39.67-.06.05-.17.07-.22.11-.1-.2-.4-.11-.56,0,.03-.1.1-.17.11-.22.41.08.61-.18.89-.33.19-.11.39-.2.56-.33Z"/>
    <path class="cls-6" d="M57.79,55.34c-.38.62-.63.98-.75,1.76-.05.31-.18.69.31.58-.2.14-.43.24-.56.45.13-.61.23-1.43.33-2.07.03-.18.11-.54-.22-.28.06-.06.02-.42.33-.33l.11.45c.1-.34.33-.63.56-.89-.02.12-.05.23-.11.33Z"/>
    <path class="cls-6" d="M51.99,92.41c.7.25,1.33.61,2.12.45.07.11.15.23.22.33-.24-.13-.56-.07-.78-.11-.79-.16-1.64-.43-2.46-.11-.07-.09-.29-.09-.22-.33h.95s-.17-.22-.17-.22c.08.03.25-.03.33,0Z"/>
    <path class="cls-6" d="M51.65,72.87c-.09.42.4.08.67.33.03.1-.1.09-.11.11-.59-.27-1.35.46-1.67.89-.03,0-.08,0-.11,0,.16-.21.2-.38-.11-.33v-.11c.25-.04.46-.2.67-.33.18-.12.53-.41.67-.56Z"/>
    <path class="cls-6" d="M56.9,60.59s.26.2.45.11c.02.13-.11.1-.11.11-.7-.01-1.38.18-2.01.45,0-.37.26-.43.45-.67.33.31.87-.01,1.23,0Z"/>
    <path class="cls-6" d="M58.57,58.91l.39.22c.11.11.02.08-.06.11-.57-.28-1.45,0-2.01.22-.1.04-.28.08-.33.11.01-.25.27-.36.45-.56.52,0,1.05.03,1.56-.11Z"/>
    <path class="cls-6" d="M50.76,65.5c-.04-.13-.18-.31-.22-.45-.05-.15-.08-.59-.11-.67.3-.68.16-1.1.56-1.79-.3.94-.22,1.93-.22,2.9Z"/>
    <path class="cls-2" d="M106.47,89.84c.11-.03.32.02.45,0-.35.38-1.33.45-1.84.45-.59,0-.93-.1-1.4-.45.78.33,1.67.36,2.5.2.16-.03.26-.19.3-.2Z"/>
    <path class="cls-2" d="M58.57,57.57c.54.27,1.12.04,1.67,0-.11.06-.2.13-.33.11v.11s.33,0,.33,0v.11s-.22,0-.22,0c-.57-.25-1.46-.03-2.01.22-.04-.28.41-.43.56-.56Z"/>
    <path class="cls-2" d="M93.63,53.78c.29.16.52.44.56.78l.22-.11c-.07.19.12.48.11.56,0,.03-.1.53-.11.56,0,.02-.32.22-.33.22.02-.93.13-1.27-.45-2.01Z"/>
    <path class="cls-6" d="M59.02,100.45c.64.01,1.12-.19,1.67-.22.07.33-.16.2-.37.24-.94.18-1.73.16-2.64-.13l.05-.07c.43.07.85.17,1.29.18Z"/>
    <path class="cls-6" d="M49.87,64.61c-.1.85-.16,1.6,0,2.46-.22-.15-.31-.54-.45-.78.34.06.21-.17.22-.39.03-.66,0-.68.22-1.29Z"/>
    <path class="cls-6" d="M49.53,87.05c.46.02,1.17.82,1.79.67.06.16.24.33.22.56-.12-.12-.72-.48-.89-.56-.28-.13-1.6-.58-1.79-.45.14.15.15.43.22.56l-.45-.78c.22-.05.44.1.63.11.16,0,.24-.11.26-.11Z"/>
    <path class="cls-2" d="M101.22,97.55c-.3.48-1.87.52-2.4.44-.26-.04-.27-.15-.39-.22.75.15,1.42.13,2.18,0l-.05-.22c.23.08.44.1.67,0Z"/>
    <path class="cls-6" d="M53.1,60.36c-.11.61-.15,1.15-.11,1.79-.48-.31-.03-1.08-.33-1.51.02-.05.06-.07.11-.05.02,0,.04.12.11.11,0-.24-.06-.4.23-.34Z"/>
    <path class="cls-2" d="M53.1,67.17c.09,0,.45.23.67.11.05.04-.19.27-.22.33.08-.35-.29-.23-.47-.2-.43.09-.81.36-1.2.53l-.33-.11s-.01-.08,0-.11c.46.14.72-.21,1-.33.15-.06.44-.23.56-.22Z"/>
    <path class="cls-2" d="M60.14,56.46c.55.03,1.13,0,1.67-.11-.07.1-.09.22-.11.33-.61-.3-1.27.04-1.9,0,.02-.09-.03-.3,0-.34.02-.02.23.11.33.11Z"/>
    <path class="cls-6" d="M54.22,61.03h-.11s0-.08,0-.11c.03.04.08.07.11.11Z"/>
    <path class="cls-6" d="M53.89,58.8c.04-.08-.07-.34.06-.34l.17.56h.11s.11-.22.11-.22c-.17.75-.13,1.42-.22,2.12-.33-.41.1-1.61-.22-2.12Z"/>
    <path class="cls-6" d="M54.44,63.94s.04.11.11.11c-.45.09-.86.35-1.23.56-.08.04-.23.04-.33.11-.01-.17.04-.3.11-.45.37.08.79-.28,1-.33.06-.02.26-.01.33,0Z"/>
    <path class="cls-2" d="M99.77,61.7s-.01.08,0,.11c-.83.25-2.38.98-3.13.33.12-.07.35-.07.45-.11-.04.3.19.24.39.23.8-.02,1.53-.4,2.29-.57Z"/>
    <path class="cls-2" d="M98.76,58.24c.34-.37.51-.9.56-1.4.02-.21.1-.45-.22-.39.29-.22.25-.28.22-.67.52.35.04,2.2-.56,2.46Z"/>
    <path class="cls-6" d="M54.56,95.98c.26.1.64.28.89.33v.11c-.17,0-.7.24-1,.11l.11.33c-.13-.13-.39-.19-.33-.45.06-.05.62.11.67-.22-.68-.13-1.25-.51-1.79-.89.48.25.94.48,1.45.67Z"/>
    <path class="cls-2" d="M103.56,94.2c.09-.02.23.02.33,0-.04.03-.03.15-.19.2-.93.32-2.29.38-3.05-.31.98.55,1.91.35,2.9.11Z"/>
    <path class="cls-6" d="M51.88,71.08c-.35.55.69-.09.78,0,.04.23-.14.38-.22.56-.22-.06.18-.39-.17-.34-.26.04-.95.4-1.17.56-.07-.02-.16-.1-.22-.11.29-.14.47-.41.67-.56.1-.08.3-.08.33-.11Z"/>
    <path class="cls-19" d="M103.34,87.83c-.06.15-.16.44-.22.56-.24-.51.29-1.35.56-1.79-.11.39-.18.82-.33,1.23Z"/>
    <path class="cls-6" d="M50.54,88.95c.51.27,1.01.72,1.67.67.03.09.16.18.11.33-.21-.13-.64-.25-.89-.33-.53-.18-1.1-.38-1.67-.45.21-.17.43,0,.67,0l-.11-.22s.18-.02.22,0Z"/>
    <path class="cls-6" d="M62.93,55s.51.12.53.14c.06.04.01.18.02.19-.56-.24-1.33-.06-1.9.11v-.11c.42-.11.9-.36,1.34-.33Z"/>
    <path class="cls-2" d="M103.9,80.46v.11c-1.02-.02-1.32.04-2.23-.45.72.23,1.48.28,2.23.33Z"/>
    <path class="cls-2" d="M104.68,75.77s0,.07,0,.11c-.97.04-1.87.33-2.79-.11.93.26,1.86,0,2.79,0Z"/>
    <path class="cls-2" d="M96.08,101.01c.13-.02.3.02.45,0-.51.53-2.25.11-2.79-.33.63.21,1.4.45,2.07.45.16,0,.23-.11.27-.12Z"/>
    <path class="cls-6" d="M47.19,74.43c-.24.29-.06.91.03,1.25.12.44.41.7.53.98.02.05-.01.16,0,.22-.41-.86-1.01-1.58-.89-2.68.24-.06.24.13.33.22Z"/>
    <path class="cls-2" d="M103.45,71.98v.11c-1.04.06-1.73.29-2.79-.11.95.22,1.85.08,2.79,0Z"/>
    <path class="cls-6" d="M48.42,69.97c.05.42.39.99.39,1.45l-.84-1.11c.13.11.22.31.45.33.05-.23-.1-.47-.11-.67h.11Z"/>
    <path class="cls-2" d="M97.42,59.14v.11c-.39.05-1.22.49-1.74.55s-.96.09-1.39-.21c.11-.06.37-.07.45-.11-.04.3.19.24.39.23.78-.02,1.56-.34,2.29-.57Z"/>
    <path class="cls-2" d="M51.88,61.7l-.11,2.01c-.22,0-.08-.4-.11-.56-.02-.11-.08-.33-.11-.45.14-.33.21-.67.33-1Z"/>
    <path class="cls-2" d="M107.92,80.69c-.86.52-1.47.91-2.46.22v-.11c.34.08.69.33,1.06.34.52,0,.93-.29,1.4-.45Z"/>
    <path class="cls-2" d="M101.22,65.05v.11c-1.03-.05-1.61.17-2.57-.33.84.26,1.7.24,2.57.22Z"/>
    <path class="cls-2" d="M103.45,84.82c-.04.12-.07.22-.11.33.05-.39-.12-.16-.31-.15-.81.05-1.15.09-1.92-.19.81.17,1.54.11,2.34,0Z"/>
    <path class="cls-6" d="M47.86,71.86c-.43-.45-.15-1.23-.22-1.79.31-.12.18.18.22.22-.24.43-.05,1.07,0,1.56Z"/>
    <path class="cls-6" d="M54,65.28c.09,0,.43.23.67.11.1.33-.19.19-.22.22-.23-.22-.81.02-1.12.11l-.11-.11c.26.04.5-.3.67-.34.03,0,.08,0,.11,0Z"/>
    <path class="cls-6" d="M58.57,54.33c.13-.11.33-.34.5-.34l.17.34c-.08.13-.25.8-.34,1l-.11-.11c.04-.32.19-.65.11-1l-.33.11Z"/>
    <path class="cls-2" d="M103.56,68.74s.14,0,.11.11c-.07,0-.15,0-.22,0-.93.03-2.3-.34-3.01-.89.97.5,2.06.65,3.13.78Z"/>
    <path class="cls-2" d="M107.92,75.77c-.78.77-1.62.68-2.57.33,0-.04.01-.08,0-.11.49,0,.74.27,1.28.23.31-.02,1-.3,1.29-.45Z"/>
    <path class="cls-2" d="M96.98,56.34c-.09.49-.13.58,0,1.12-.45-.38-.33-1.18,0-1.56-.02.14.02.31,0,.45Z"/>
    <path class="cls-6" d="M47.63,72.42c-.21.42-.09,1.21,0,1.67-.4-.53-.17-1.29-.22-1.9.14,0,.16.16.22.22Z"/>
    <path class="cls-2" d="M106.24,86.6c-.18.03-.44-.05-.6,0-.07.02-.13.24-.18.34.14-.52-.41-.35-.78-.22.42-.42,1.07-.38,1.56-.11Z"/>
    <path class="cls-6" d="M63.71,53.22c.6-.21,1.27-.46,1.9-.22.06.09-.27.27-.33.33.2-.29.11-.22-.17-.22-.36,0-1.07.02-1.4.11Z"/>
    <path class="cls-2" d="M95.64,57.35c.37.06.3.22.45.33l-.56-.11c.07.27.11.25,0,.45-.04-.33-.17-.61-.56-.56.24-.12.38-.16.67-.11Z"/>
    <path class="cls-6" d="M48.42,72.98s-.01.08,0,.11c-.32,0-.39-.28-.56-.45l.09-.07c-.04-.2-.07-.4-.09-.6.25.2.25.54.36.82.05.12.19.17.2.19Z"/>
    <path class="cls-6" d="M55.67,62.15s.33.22.56.11c.07.24-.14.24-.22.33.14-.39-.82-.18-1.12-.11.18-.13.58-.34.78-.33Z"/>
    <path class="cls-2" d="M102.11,58.35s.14-.03.2.02c.32.3,0,.97-.08,1.32-.13-.07,0-.33,0-.48,0-.09-.11-.17-.11-.19,0-.14.24-.43,0-.67Z"/>
    <path class="cls-2" d="M102,63.94c-.12-.19-.28-.15-.33-.56s0-.66.11-1c-.05.56.04,1.04.22,1.56Z"/>
    <path class="cls-20" d="M90.95,55.23c-.08-.14-.18-.23-.2-.42-.01-.09-.01-.78,0-.87.02-.16.19-.42.32-.5-.2.33-.01.66-.03.93-.01.16-.31.47-.08.86Z"/>
    <path class="cls-2" d="M106.47,67.4c-.19-.2-.4-.04-.67-.22.72.08.86-.06.78-.78.17.16.15.5.11.73s-.2.23-.22.28Z"/>
    <path class="cls-2" d="M102.78,81.47c-.22.17-.18.43-.33.67v-1c.42.06.26.26.33.33Z"/>
    <path class="cls-2" d="M100.44,94.64c-.3-.06-.53.07-.67.33.18-.56-.58-.29-.89-.11-.03-.23.14-.24.22-.33.52.13.73-.26,1.34.11Z"/>
    <path class="cls-2" d="M103.34,72.87c-.21.36,0,.45-.33.78v-1.01s-.56.11-.56.11c.04-.03-.15-.3.38-.22.34.05.33.15.51.33Z"/>
    <path class="cls-6" d="M47.19,81.36l-.33-.56c.19-.09,1.03.67,1,.11.06.08.28.15.33.22.08.11.15.31.22.45-.41-.07-.81-.47-1.18-.55-.32-.07-.08.23-.05.33Z"/>
    <path class="cls-2" d="M108.7,84.59c-.09.64-2.18,1.26-2.79,1.18-.33-.04-.43-.17-.67-.29,1.15.34,1.96.03,2.9-.56.16-.1.41-.15.56-.33Z"/>
    <path class="cls-2" d="M103.01,90.85c-.21,0-.34.18-.45.33-.02-.28.13-.37-.23-.29s-.71.17-1,.4c-.06-.22.15-.24.22-.33.07,0,.16.01.22,0,.54-.12.55-.35,1.23-.11Z"/>
    <path class="cls-2" d="M105.57,68.51c-.45.35-.74.44-1.34.33-.09-.02-.31-.13-.33-.22.63.02,1.09.27,1.67-.11Z"/>
    <path class="cls-2" d="M49.31,69.18s0,.07,0,.11c-.3-.11-.33-.51-.45-.67v-1.85c-.05-.12.1-.23.11-.27.02.49-.04,1,.01,1.49.04.41.28.87.32,1.19Z"/>
    <path class="cls-6" d="M60.92,52.88c.06-.04.17-.39.34-.17l-.34,1.06c.03-.15.08-.54.1-.74,0-.07-.02-.18-.1-.16Z"/>
    <path class="cls-2" d="M98.43,60.14c.09.09.25.11.22.33-.36-.21-.68-.56-.89-.11.01-.35-.27-.37-.56-.33.36-.32.86.02,1.23.11Z"/>
    <path class="cls-6" d="M49.09,85.26c.09.07.19.1.22.22-.37-.16-.79-.23-1.12-.45.12-.02.28.04.33-.11.14.11.38.21.56.33Z"/>
    <path class="cls-2" d="M48.53,68.29c-.13.49-.18,1.17-.11,1.67h-.11c-.02-.4-.02-.87.01-1.27.01-.12.02-.61.21-.4Z"/>
    <path class="cls-2" d="M104.23,64.27c.1-.41.33-.8.43-1.21.05-.22-.1-.34-.09-.35,0-.07.25-.29.22-.45.23.48-.22,1.57-.56,2.01Z"/>
    <path class="cls-2" d="M92.85,53.11c-.16.2-.09.4-.22.67.02-.58.04-1.07-.67-.89.39-.37.66.08.89.22Z"/>
    <path class="cls-6" d="M47.86,78.9c.22.3.33.76.78.95,0,.12-.18.03-.22.06-.18-.28-.61-.63-.89-.78.31.05.28-.1.11-.33.03.04.19.07.22.11Z"/>
    <path class="cls-2" d="M92.73,58.35c.03-.09.12-.22.22-.22.18,0,.45.23.78-.11-.44.3-.37.52-1,.33Z"/>
    <path class="cls-20" d="M101.78,90.96c-.07.01-.15,0-.22,0,.06-.08.17-.25.22-.33l.09.05-.09.28Z"/>
    <path class="cls-6" d="M54.33,58.69c.04-.17.04-.18.11-.33l-.11.33Z"/>
    <path class="cls-6" d="M56.68,99c-.31-.07-.74-.15-.89-.45.3.16.65.21.89.45Z"/>
    <path class="cls-6" d="M56.79,99.67v.22c-.05-.04-.29-.16-.22-.22.07,0,.15,0,.22,0Z"/>
    <path class="cls-6" d="M60.47,53.11l.33-.22c-.1.07-.29.19-.33.22Z"/>
    <path class="cls-3" d="M63.26,54.78l.11-.11s.03.09-.11.11Z"/>
    <path class="cls-6" d="M54.33,65.83l.11-.11s-.08.07-.11.11Z"/>
    <polygon class="cls-13" points="92.85 28.2 93.68 34.35 94.52 28.2 96.98 28.2 96.98 38.7 95.41 38.7 95.41 31.78 94.41 38.7 92.96 38.7 92.27 33.3 91.95 31.55 91.95 38.7 90.39 38.7 90.39 28.2 92.85 28.2"/>
    <polygon class="cls-13" points="57.07 28.2 59.24 33.68 59.24 28.2 61.03 28.2 61.03 38.7 59.24 38.7 57.12 33.12 57.12 38.7 55.45 38.7 55.45 28.2 57.07 28.2"/>
    <path class="cls-13" d="M81.52,28.2c1.43.31,1.8,4.15.39,4.86,1.5.79,1.45,4.16.38,5.19-.14.14-.96.45-1.11.45h-3.52v-10.5c1.09.16,2.84-.22,3.85,0ZM79.56,32.34c2.03.48,2.03-2.49,0-2.01v2.01ZM79.56,36.47c.93.05,1.68.07,1.68-1.06,0-1.26-.66-1.07-1.68-1.06v2.12Z"/>
    <path class="cls-5" d="M101.83,28.2c1.49.33,1.8,4.14.39,4.86,1.52.7,1.49,4.38.33,5.25-.11.08-.96.39-1.06.39h-3.4v-10.5c1.05.16,2.77-.21,3.74,0ZM99.88,32.34c2.03.48,2.03-2.49,0-2.01v2.01ZM99.88,36.47c.77.02,1.59.12,1.68-.83.14-1.41-.49-1.36-1.68-1.29v2.12Z"/>
    <polygon class="cls-13" points="70.18 28.2 70.18 31.89 72.08 31.89 72.08 28.2 73.87 28.2 73.87 38.7 72.08 38.7 72.08 34.46 70.18 34.46 70.18 38.7 68.29 38.7 68.29 28.2 70.18 28.2"/>
    <path class="cls-5" d="M105.91,28.2v6.98s.24.75.29.83c.23.4.94.49,1.25.2.04-.04.36-.76.36-.81v-7.2h1.9c-.12,2.42.2,5.03-.11,7.42-.27,2.06-1.17,3.86-3.6,3.15-.73-.21-1.18-.9-1.45-1.57-.15-.37-.43-1.34-.43-1.7v-7.31h1.79Z"/>
    <path class="cls-5" d="M85.59,28.2v7.2c0,.35.53,1.01.95,1.01s.95-.66.95-1.01v-7.2h1.79v7.43c0,.62-.49,1.97-.9,2.45-.92,1.12-2.76,1.12-3.68,0-.43-.52-.9-1.8-.9-2.45v-7.43h1.79Z"/>
    <path class="cls-5" d="M61.48,38.7l2.12-10.5,2.02.06,2.11,10.43h-1.9l-.22-1.6c-.09-.17-1.69-.02-2.01-.07l-.23,1.67h-1.9ZM65.27,34.68l-.61-3.46-.62,3.46h1.23Z"/>
    <path class="cls-5" d="M48.64,38.7l2.19-10.5h1.94s2.13,10.5,2.13,10.5h-1.9l-.22-1.67c-.37.06-1.91-.13-2.07.1-.19.28,0,1.3-.33,1.57h-1.73ZM52.32,34.68c-.13-1.04-.26-2.13-.48-3.15-.03-.13-.01-.44-.19-.43l-.56,3.57h1.23Z"/>
    <polygon class="cls-13" points="48.97 28.2 48.97 30.77 47.19 30.77 47.19 38.7 45.29 38.7 45.29 30.77 43.5 30.77 43.5 28.2 48.97 28.2"/>
    <path class="cls-18" d="M54,73.65c4.58,0,9.16,0,13.73,0-.16.41-1.83,1.09-1.89,1.29-.15.47,1.26.61,1.64.8.08.04.22.01.14.19-.16.37-1.95,1.76-2.01,2.01-.05.37.79.27.67.55-.17.4-2.09,1.63-2.01,1.73,1.39.34,2.79.77,4.24.78.03.16-.03.27-.09.41-.39.91-1.29,2.25-1.81,3.19-.04.07-.22.07-.23.15-.01.11.17,1.27.23,1.33.27.26,1.25.16,1.57.5h-13.62c0-.11.05-.34-.06-.34-.18,0-.73.33-.84.45h-.11c.01-.07-.02-.16,0-.22.21-.78.46-1.51.33-2.34-.25-.03-.39.21-.56.33-.14.11-.34.21-.45.33v-.45c.07-.16.07-.16.11-.33.24-.2.42-1.79.33-1.9-.27-.06-.32.23-.45.33-.14.12-.36.24-.45.33l-.11-.22c.05-.07.17-.36.22-.45.08-.15.14-.32.15-.5.29-.25.19-.81.41-1.18-.28,0-.52.14-.78.22s-.5.29-.45-.11c.04-.05.1-.06,0-.11.17-.23.26-.39.33-.67l.33-1.23-.95.34c-.14-.08.16-.21.17-.34,0-.11-.07-.07-.11-.11.25-.14.37-.51.45-.78l.33-1.12c-.16-.12-.95.62-.89.11.03-.04.08-.07.11-.11.08-.1.51-.97.56-1.12s.29-.5-.06-.45c-.25.04-.64.28-.84.45-.2.11-.32.34-.45.45-.09.07-.26.05-.45.28-.16.2-.15.39-.22.51-.02.03-.13-.12-.22.22-.19-.24-.13-.79-.11-1.12.52-.07.72-.14,1.12-.45.2-.15.35-.45.45-.56.33-.4.51-.8.78-1.23.5.21,1.22.11,1.79.11Z"/>
    <path class="cls-5" d="M66.17,78c2.85-2.9,5.33-6.03,7.68-9.34.21-.3,2.85-4.47,3.03-4.28.82,4.69,2.45,9.06,6.14,12.23-3.02,1.91-6.8,3.28-10.43,3.07-2.23-.13-4.36-.89-6.42-1.68Z"/>
    <path class="cls-7" d="M85.37,86.16c-.67,1.97-1.99,3.61-2.9,5.47-.08.11-.15.23-.22.33-.51.72-1.13,1.41-1.45,2.23-.04.05-.14.12-.22.22-.78,1-2.56,3.48-3.46,4.13v-14.74c2.12-.01,4.29.47,6.22,1.32.49.22,1.65.99,2.05,1.02Z"/>
    <path class="cls-7" d="M68.29,86.16c.27-.04,1.5-.83,1.93-1.02,1.9-.84,4.13-1.32,6.22-1.32v14.63c-.86-.63-1.7-1.93-2.46-2.68-.2-.2-.13-.18-.22-.33-1.71-2.88-4.05-5.51-5.35-8.67-.08-.2-.16-.37-.12-.6Z"/>
    <path class="cls-13" d="M68.29,86.16c-.23.03-1.22-.1-1.38-.21-.09-.06-.21-.87-.18-.91,3.72-.01,6.92-2.12,10.1-3.76,3.1,1.73,6.33,3.71,9.99,3.76.24.97-.68,1.19-1.45,1.12-.4-.04-1.55-.81-2.05-1.02-1.93-.85-4.1-1.33-6.22-1.32v14.74c-.55.4-.32.14-.67-.11v-14.63c-2.08,0-4.31.48-6.22,1.32-.43.19-1.66.99-1.93,1.02Z"/>
    <path class="cls-13" d="M78.56,65.17c1.89,4.32,4.4,8.44,7.42,12.06.43.51.98,1.01,1.39,1.51.08.1.53.65.45.72-2.56.61-5.11.77-7.7.22l3.01-.89-.89-1.34,2.12-.95c-3.46-2.94-4.83-7.05-6.03-11.28l.22-.05Z"/>
    <path class="cls-19" d="M68.17,86.6c.29.31.83,1.73,1.12,2.23-2.53-.61-4.97-1.89-7.65-1.68-1.81.15-3.38,1.63-5.19,2.13-.11.03-.21.08-.33.11-.22.05-.45.08-.67.11.02-.27.26-1.23.09-1.43-.05-.05-.18,0-.2-.02-.02-.02.09-.39-.33-.17-.28.15-.33.4-.45.61-.14-.06-.11-.21-.11-.33,0-.53.15-1,.11-1.56h13.62Z"/>
    <path class="cls-13" d="M68.05,75.54c-.06.04-1.23-.35-1.39-.43-.13-.06-.2.05-.16-.23,2.48-1.21,4.18-3.71,5.49-6.07,1.03-1.85,1.82-3.98,2.95-5.76.53-.84,1.13-1.71,2.06-2.13,0,.43.31.66.14,1.08-.27.67-1.35,2.04-1.79,2.79-2.33,3.97-3.86,7.02-7.12,10.42-.09.1-.15.31-.18.33Z"/>
    <path class="cls-13" d="M82.58,78.56c-5.67,1.83-11.61,3.12-17.53,1.56l1.73-1.52c4.5,1.96,9.06,1.79,13.53-.13.25-.11,1.46-.78,1.55-.77.11,0,.58.73.72.87Z"/>
    <path class="cls-13" d="M89.61,78.34c-.35,0-1.25.7-1.49.65-.3-.06-2.82-3.13-3.19-3.62-1.85-2.39-3.37-4.99-4.8-7.64.22-.05.26.11.38.23.75.79,1.55,2.15,2.3,3.06,2.13,2.56,4.58,4.84,6.81,7.32Z"/>
    <path class="cls-13" d="M83.69,76.44c-.23.05-.3-.05-.45-.16-.44-.32-1.45-1.4-1.84-1.85-2.72-3.13-3.52-7.01-4.41-10.94l-1.18,1.67-.38.23,1.84-2.9c1.27,4.01,1.94,8.42,4.59,11.83.49.63,1.13,1.15,1.61,1.74.1.13.27.18.22.39Z"/>
    <path class="cls-13" d="M69.29,88.84c.14.26.3.53.45.78-2.58-.38-5.22-1.98-7.87-1.79-1.91.14-3.35,1.73-5.19,2.13-.01-.27.04-.3-.11-.56-.02-.04-.08-.07-.11-.11,1.81-.49,3.38-1.98,5.19-2.13,2.68-.21,5.12,1.06,7.65,1.68Z"/>
    <path class="cls-15" d="M76.55,81.02c-.26.29-.7.49-1.04.69-1.66.95-3.4,1.8-5.21,2.44-.03-1.65,1.98-1.45,3.13-2.06.37-.2,1.37-1.1,1.53-1.15.51-.15,1.08.15,1.6.09Z"/>
    <path class="cls-13" d="M84.14,80.35l-1.1.3c-2.29.41-4.65.33-6.94.03l3.18-.79c1.61.26,3.22.54,4.85.46Z"/>
    <path class="cls-15" d="M83.36,84.15c-1.78-.56-3.48-1.41-5.1-2.33-.34-.19-.79-.41-1.04-.69.52.14,1.33.01,1.79.16.33.11,1,.76,1.48.98,1.11.5,2.66.26,2.87,1.88Z"/>
    <path class="cls-18" d="M74.54,80.91c-.95,1.07-2.23,1.38-3.57,1.67l.78-1.4,2.79-.28Z"/>
    <polygon class="cls-18" points="86.48 84.71 85.94 84.69 83.8 80.8 84.42 80.91 86.48 84.71"/>
    <path class="cls-18" d="M85.59,84.7c-.23,0-.52,0-.68-.19l-1.85-3.26c-.1-.36.25-.49.5-.16.75.98,1.32,2.55,2.02,3.61Z"/>
    <polygon class="cls-18" points="69.51 81.13 67.56 84.59 66.95 84.7 68.9 81.24 69.51 81.13"/>
    <path class="cls-18" d="M70.41,81.13c.15.13-1.77,3.12-1.94,3.47-.09.1-.46.15-.51.1-.15-.13,1.82-3.19,2.01-3.52.1-.05.41-.09.45-.05Z"/>
    <path class="cls-13" d="M78.11,57.57c.05.63.29.96.01,1.63-.21.5-.5-.53-.73-.75-.17-.16-.5-.21-.52-.28-.05-.19,0-.89,0-1.16.48-.02.74.51,1.23.56Z"/>
    <path class="cls-18" d="M71.3,81.13l-1.78,3.19c-.08.15-.49.22-.56.16-.15-.11,1.78-2.9,1.84-3.24l.5-.11Z"/>
    <path class="cls-18" d="M82.66,81.16c.17.1,1.61,2.9,1.81,3.32-.3.05-.45-.13-.61-.34-.6-.78-1.01-2.03-1.62-2.84-.09-.24.31-.2.42-.14Z"/>
    <path class="cls-18" d="M79.45,81.25c.76-.02,1.53.07,2.27-.1l.85,1.39c-1.12-.19-2.31-.41-3.12-1.28Z"/>
    <path class="cls-13" d="M91.27,105.57c-3.15.72-6.33,1.53-9.54,1.9-6.66.76-13.14-.22-19.56-1.9.04-1.56.4-3.45,1.83-4.34,2.31.63,4.59,1.42,6.95,1.87,3.58.67,7.38.71,10.97.09,2.56-.44,5.04-1.25,7.53-1.96,1.42.89,1.79,2.77,1.83,4.34ZM66.72,104.36s.38-.05.51-.44c.36-1.14-.62-.98-1.4-1.23l-1.12,3.01c.86.23,2.18.58,2.23-.74.01-.26-.24-.58-.22-.6ZM88.35,105.67c.6-.56-.05-2.56-.94-2.62-.31-.02-.7.24-1.05.19-.1.1.53,2.57.62,2.68.13.18,1.22-.12,1.37-.26ZM68.96,104.58c-.07-.09.02-.39.18-.44.22-.06,1.31.41,1.04-.39-.08-.24-1.26-.32-1.55-.4-.04.43-.96,2.84-.79,3.01.82-.14,1.78.76,1.9-.45-.27-.06-.56-.08-.84-.12-.18-.02-.31.11-.28-.16.09-.81.99-.19,1.11-.28.03-.02.16-.63.11-.67-.14.01-.87-.08-.89-.11ZM85.14,103.58c-1.25-.23.18,2.03-.5,2.23-.64.19-.65-1.6-.72-2.01l-.67.11c.25.99.05,2.99,1.66,2.49,1.12-.35.34-2,.24-2.83ZM72.54,105.6c.14-.19.54-.11.56-.85.02-.78-1.44-.97-1.69-.78-.11.08-.62,2.59-.5,2.75.1.14.39.15.52.06l.38-1.07c.46.62-.05,1.43,1.06,1.23.12-.26-.38-1.26-.33-1.33ZM82.01,104.15c-.08-.06-.41.01-.55-.01-.15.43.24,1.74.06,2.01-.29.45-.37-.31-.4-.34s-.66.19-.66.28c.34,1.18,1.84.95,1.78-.33,0-.21-.18-1.56-.24-1.61ZM75.99,105.14c.05-1.45-2.23-1.04-1.6.42.17.38,1.17.25.93.92-.74.17-.49-.27-.66-.4-.14-.1-.4-.04-.57-.05-.28,1.71,2.5,1.12,1.84-.33-.17-.37-1.41-.56-1.06-.89.28-.26.71.59,1.12.33ZM79.34,106.31c.11-.52-.08-1.39,0-1.95h-.67v1.73c0,.39-.83.67-.79-.45.02-.62.52-1.42-.55-1.28.06.73-.38,1.83.17,2.45.46.52,1.7.16,1.84-.5Z"/>
    <path class="cls-19" d="M92.73,99.56s.08,0,.11,0c-.54.4-1.97,1.63-2.54,1.77-.33.08-.42-.34-.67-.41-1.42.25-2.83.81-4.25,1.18-6.27,1.64-11.08,1.64-17.35,0-1.25-.33-2.66-.92-3.86-1.18-.23-.05-.44.07-.6.03-.26-.05-.32-.3-.43-.39.21-.28.41-.45.56-.78.02-.05-.02-.16,0-.22,2.9,1.17,4.9,2.77,8.18,1.65,1.38-.47,2.66-1.4,4.16-1.53,3.49-.31,5.46,2.75,9.4,1.7,2.79-.74,3.99-2.62,7.28-1.82Z"/>
    <path class="cls-14" d="M55.56,94.76c.44.55.97,1.16,1.45,1.67-.47-.02-1.11-.02-1.56-.11-.25-.05-.63-.24-.89-.33l.11-1.23c.29.03.6-.02.89,0Z"/>
    <path class="cls-14" d="M53.33,91.63c.25.4.52.84.78,1.23-.79.17-1.42-.2-2.12-.45l.11-1.12c.43.07.84.13,1.23.33Z"/>
    <path class="cls-1" d="M52.99,83.7c-.02.11.02.24,0,.33-.04.18-.04.17-.11.33-.1.22-.4.68-.56.89l-.89-.45c0-.11-.02-.23,0-.33.08-.51.37-.85.67-1.23.24.24.54.46.89.45Z"/>
    <path class="cls-14" d="M54.33,93.19c.3.43.69.94,1,1.34-.7.08-1.35-.16-2.01-.33-.06-.24.08-.88.22-1.12.23.05.54-.02.78.11Z"/>
    <path class="cls-14" d="M57.23,96.65c.4.42.92.95,1.34,1.34-.76.12-1.41-.08-2.12-.22,0-.38-.05-.82.22-1.12.17.03.38-.02.56,0Z"/>
    <path class="cls-14" d="M51.54,88.28c.29.29.52.95.67,1.34-.67.05-1.17-.4-1.67-.67l.11-1.23c.18.08.77.44.89.56Z"/>
    <path class="cls-14" d="M58.8,98.22c.26.24.62.44.89.67.06.35-.18.19-.38.23-.75.13-1.02.07-1.74,0l.11-1c.38.02.74.11,1.12.11Z"/>
    <path class="cls-14" d="M52.32,89.95c.4.25.54.96.78,1.34-.53-.13-1.08-.18-1.59-.36-.13-.05-.18-.19-.19-.19l.11-1.12c.25.08.68.2.89.33Z"/>
    <path class="cls-1" d="M57.9,57.13s-.07.16-.11.22c-.12.05-.22.15-.33.22-.04.03-.07.08-.11.11-.49.1-.36-.27-.31-.58.12-.78.37-1.14.75-1.76.36.51-.28,1.26.11,1.79Z"/>
    <path class="cls-1" d="M53.33,64.61c.15.28.57.3.56.67-.17.04-.41.37-.67.34l.11.11c-.15.04-.32.16-.56.22-.15.04-.44.19-.56.06.31-.4.37-.98.78-1.28.1-.08.26-.07.33-.11Z"/>
    <path class="cls-3" d="M57.68,94.64c0,.13-.04.32.02.42.07.11,1.02.69,1.2.7-.07.33-.44.71-.78.78-.14-.17-.36-.35-.45-.56-.02-.04-.23-.8-.23-.84-.03-.27.12-.45.12-.5h.11Z"/>
    <path class="cls-3" d="M55,91.41c.19.46.71.64,1.12.89-.2.32,0,.3-.56.67-.59.16-.35.08-.67-.33.02-.29-.03-.6,0-.89.01-.13.1-.26.11-.33Z"/>
    <path class="cls-3" d="M57.46,94.2s0,.07,0,.11c-.3.14-.31.51-.67.56-.02-.02-.16,0-.22-.06-.26-.3-.41-.34-.45-.72-.02-.16-.01-.39,0-.56.54,0,.87.49,1.34.67Z"/>
    <path class="cls-19" d="M58.91,95.76s.11-.16.22-.11c-.05.53.02.95.11,1.45.04.19.04.38.11.56-.44-.4-.79-.56-1.23-1.12.34-.07.72-.45.78-.78Z"/>
    <path class="cls-3" d="M63.71,99.78c-.15.33-.35.5-.56.78-.2-.15-.34-.11-.56-.45-.1-.16-.3-.61-.33-.78,0-.04,0-.08,0-.11.58-.09.88.6,1.45.56Z"/>
    <path class="cls-3" d="M51.88,83.03c-.25.24-.34.49-.78.56-.5.08-.29-.14-.34-.5,0-.07-.11-.05-.11-.06,0-.26.24-.55.33-.78.04.41.63.47.89.78Z"/>
    <path class="cls-19" d="M56.45,92.3c-.24.46-.3.72-.33,1.23-.01.16-.02.4,0,.56-.45-.07-.62-.65-.89-.95-.01-.04.24-.1.33-.17.56-.37.36-.35.56-.67,0-.01.21-.11.22-.11.06-.01.13.04.11.11Z"/>
    <path class="cls-19" d="M60.7,98.33c.03.29.14.42.22.67-.45-.36-.84-.78-1.23-1.12.28.01.32-.19.45-.33.11-.12.19-.26.33-.33,0,.01.11.13.12.27.02.27-.11.67.11.85Z"/>
    <path class="cls-3" d="M55,90.74c-.01.07.01.15,0,.22l-.89.45c-.07-.12-.17-.24-.22-.33,0-.33,0-.67,0-1,.41.11.69.57,1.12.67Z"/>
    <path class="cls-3" d="M54,89.06c-.04.13-.09.31-.11.45-.11.14-.33.15-.45.22-.32.09-.37-.18-.56-.45,0-.22,0-.45,0-.67l1.12.45Z"/>
    <path class="cls-18" d="M51.32,84.48l-.11,1-.45-1.79c.1-.02.25.03.34,0,.19-.06.37-.15.56-.22l-.33,1Z"/>
    <path class="cls-19" d="M57.57,94.64s-.15.23-.12.5c0,.04.22.8.23.84-.07.24-.27-.13-.31-.19-.22-.28-.54-.89-.58-.93.36-.05.37-.42.67-.56,0,.02.12.12.11.33Z"/>
    <path class="cls-3" d="M61.92,98.78c-.14.28-.21.34-.45.56h-.11c-.15-.11-.3-.22-.45-.33-.08-.25-.19-.38-.22-.67,0-.04,0-.07,0-.11.48-.02.74.51,1.23.56Z"/>
    <path class="cls-3" d="M51.54,71.19c-.19.15-.38.42-.67.56-.18-.02-.38.02-.56,0,.04-.36.25-.65.33-1h.11l.78.45Z"/>
    <path class="cls-3" d="M52.99,87.27s-.1.3-.11.33c-.11.14-.33.15-.45.22-.33.02-.26-.18-.33-.33,0-.22-.01-.45,0-.67.37-.03.6.29.89.45Z"/>
    <path class="cls-19" d="M52.88,88.06c-.01.18,0,.37,0,.56,0,.22,0,.45,0,.67-.31-.43-.43-.83-.66-1.29,0-.04.16-.13.21-.16.12-.07.33-.08.45-.22,0,.02.01.27,0,.45Z"/>
    <path class="cls-3" d="M50.2,76.67l.67.67c-.33.23-.55.41-1,.33.01-.25.05-.55.11-.78.1-.35.2-.19.22-.22Z"/>
    <path class="cls-3" d="M50.2,78.56c-.01.3.53.51.78.67-.1.09-.2.27-.33.33-.59-.04-.7.19-.78-.56.17-.08.26-.29.33-.45Z"/>
    <path class="cls-18" d="M50.65,79.57c.08,0,.23-.05.22.06l-.67,1.4c-.04-.19-.28-1.28-.22-1.34.03-.02.38.03.67-.11Z"/>
    <path class="cls-18" d="M51.09,81.8c-.1.18-.07.34-.11.45-.1.23-.34.52-.33.78l-.34-1.23c.15-.01.3.01.45,0,.09,0,.2-.14.33,0Z"/>
    <path class="cls-3" d="M50.98,73.43c-.21.14-.42.29-.67.33-.08.01-.33.04-.34-.06-.01-.24.31-.69.34-.84l.67.56Z"/>
    <path class="cls-3" d="M52.32,85.26c-.07.09-.16.28-.22.33-.05.04-.16.07-.22.11h-.45c.01-.3-.02-.6,0-.89l.89.45Z"/>
    <path class="cls-3" d="M50.98,75.33c-.4.31-.6.38-1.12.45.01-.23.04-.58.11-.78.02-.06,0-.13.11-.11.25.2.57.45.89.45Z"/>
    <path class="cls-18" d="M51.88,86.72s-.16.04-.22-.08c-.06-.14-.25-.64-.23-.75,0-.05.3-.08.45-.17.07-.04.17-.07.22-.11.22.24-.1.84-.22,1.12Z"/>
    <path class="cls-19" d="M62.26,99.33c.03.18.23.62.33.78-.21.18-.26-.01-.39-.1-.33-.22-.56-.47-.83-.68h.89Z"/>
    <path class="cls-3" d="M51.76,69.41c-.28.16-.49.42-.89.33.11-.37.22-.67.33-1,0,.37.41.39.56.67Z"/>
    <path class="cls-3" d="M52.55,67.4c-.29.12-.54.47-1,.33.13-.31.14-.44.33-.78l.67.45Z"/>
    <path class="cls-18" d="M50.54,77.89c-.21.19-.23.47-.33.67-.08.16-.17.37-.33.45-.04-.36,0-.85,0-1.23.29-.08.46.05.67.11Z"/>
    <path class="cls-18" d="M59.58,55.9c-.53.63-1.07,1.13-1.79,1.45.04-.06.07-.18.11-.22.03-.03.15-.04.22-.11.16-.16.25-.19.33-.45.01-.03,0-.08,0-.11.23-.1.45-.21.67-.33.15-.08.26-.22.45-.22Z"/>
    <path class="cls-19" d="M55,90.96c-.02.1.01.23,0,.33,0,.04,0,.07,0,.11,0,.08-.1.2-.11.33h-.56c-.08-.12-.14-.21-.22-.33l.89-.45Z"/>
    <path class="cls-3" d="M60.14,97.55c-.13.14-.17.35-.45.33-.05-.04-.18-.08-.33-.22-.07-.18-.08-.37-.11-.56.37-.03.6.29.89.45Z"/>
    <path class="cls-3" d="M51.09,81.36c-.08.07-.25.31-.33.33-.57.17-.39-.14-.45-.33.04-.15.08-.3.11-.45l.67.45Z"/>
    <path class="cls-6" d="M51.88,80.57c-.05.4.19.19.45.11-.24.27-.51.41-.78.67-.15.14-.34.25-.45.45-.14-.14-.24,0-.33,0v-.11c.09-.03.25-.27.33-.33.3-.24.53-.5.78-.78Z"/>
    <path class="cls-3" d="M54.11,63.94c-.21.06-.64.41-1,.33.14-.29.42-.56.56-.78l.45.45Z"/>
    <path class="cls-18" d="M51.09,71.86c-.08.06-.15.15-.22.22-.22.2-.39.42-.56.67,0-.01-.13-.11-.12-.27.05-.8.19-.49.68-.74.06,0,.15.09.22.11Z"/>
    <path class="cls-18" d="M50.31,73.87c.31-.05.27.12.11.33-.23.05-.29.47-.33.67-.11-.01-.09.05-.11.11-.26-.26.1-.74,0-1.12h.33Z"/>
    <path class="cls-19" d="M53.89,90.07c0,.33,0,.67,0,1-.23-.39-.4-.49-.56-1,.17.03.41-.04.56,0Z"/>
    <path class="cls-18" d="M51.32,69.97c-.2.18-.44.53-.56.78h-.11c.04-.18.02-.46.11-.78.16-.11.46-.2.56,0Z"/>
    <path class="cls-2" d="M57.01,96.43c.07.07.15.15.22.22-.18-.02-.39.03-.56,0-.34-.05-.89-.23-1.23-.22v-.11c.45.09,1.09.09,1.56.11Z"/>
    <path class="cls-13" d="M54.89,91.74c-.03.29.02.6,0,.89-.25-.33-.36-.6-.56-.89h.56Z"/>
    <path class="cls-18" d="M56.56,58.47c.08-.12.17-.06.22-.33.13-.21.36-.31.56-.45.04-.03.07-.09.11-.11.2.25-.65,1.09-.89.89Z"/>
    <path class="cls-13" d="M53.89,89.62c-.01.15,0,.3,0,.45-.15-.04-.39.03-.56,0-.05-.17-.28-.11.11-.33.12-.07.33-.08.45-.22,0,.04,0,.07,0,.11Z"/>
    <path class="cls-20" d="M51.88,67.96v.11c-.14.02-.33.37-.56.33.09-.25.14-.36.22-.56l.33.11Z"/>
    <path class="cls-6" d="M51.54,76.67c-.06.51.74-.23.89-.11l-.33,1.12s-.1.02-.08-.05c.03-.15.38-.94.03-.84-.39.11-1.22.72-1.4,1.11-.03-.01-.08.01-.11,0-.21-.06-.38-.19-.67-.11,0-.04,0-.07,0-.11.45.07.67-.1,1-.33.28-.2.46-.4.67-.67Z"/>
    <path class="cls-6" d="M49.09,76.22c0,.13,0,.33,0,.45l-.56-.84.56.39Z"/>
    <path class="cls-6" d="M50.65,85.82c.04.12.09.25.09.38l-.09.07s-.52-.42-.56-.45h.56Z"/>
    <path class="cls-6" d="M50.09,85.82h-.33v-.11c.06.03.15,0,.33.11Z"/>
    <path class="cls-6" d="M52.88,84.82c-.15.18-.34.66-.45.89-.23.5-.3.48-.33,1.12-.01.22,0,.45,0,.67-.12-.25-.19-.73-.22-.78.12-.28.44-.88.22-1.12.07-.06.16-.24.22-.33.16-.22.46-.67.56-.89v.45Z"/>
    <path class="cls-6" d="M52.43,82.81c-.11.12-.23.31-.33.45-.3.38-.59.72-.67,1.23h-.11l.33-1c-.18.07-.37.16-.56.22v-.11c.44-.07.54-.31.78-.56.13-.12.35-.32.45-.45l.11.22Z"/>
    <path class="cls-6" d="M51.76,78.56c0,.13-.31.26-.17.34l.95-.34-.33,1.23c.04-.17.25-1.09-.05-1-.63.18-.97.61-1.29,1.11-.27.44-.31.46-.45,1-.04.15-.08.3-.11.45-.03-.11-.08-.18-.11-.33l.67-1.4c0-.1-.15-.05-.22-.06.13-.07.23-.24.33-.33.28-.25.48-.59.78-.67Z"/>
    <path class="cls-6" d="M49.09,76.11l.11-.45c0,.26-.11.42-.11.45Z"/>
    <path class="cls-3" d="M60.69,55.23s-.24.04-.22-.05c.17-.3.35-.07.22.05Z"/>
    <path class="cls-13" d="M62.25,103.02c-.16.8-.54,2.02-.31,2.82.12.4,1.53,1.37,1.76,1.86-3.14-.85-6.38-1.12-9.6-.61,1.17-1.3,2.93-2.03,4.69-2.07.15-.11-1.39-1.7-1.56-1.84-.63-.54-1.38-.86-2.01-1.39,2.4-.06,4.79.38,7.03,1.23Z"/>
    <path class="cls-13" d="M98.2,101.79c-.63.53-1.38.86-2.01,1.39-.17.14-1.71,1.74-1.56,1.84,1.39.02,2.92.54,4.01,1.41.21.17.55.45.62.71-3.18-.64-6.44-.25-9.55.56.24-.49,1.65-1.47,1.76-1.86.24-.8-.15-2.02-.31-2.82,2.23-.86,4.63-1.29,7.03-1.23Z"/>
    <path class="cls-20" d="M99.99,89.4c.07.1.18.32.22.45.19.51.31.95.14,1.5l.09.07c-.16.26-.41.44-.48.58-.1.21-.06.62-.08.64-.07.08-.85-.14-1,.11-.61-.08-1.19-.33-1.79-.45-.07.07.27.75.33.89.23.8.09,1.37-.11,2.12,0,.02-.08.14-.11.22v.11c-.24.52-.32.31-.89.33-.51-.1-1-.03-1.53-.31-.41-.22-.64-.7-.93-.92-.07-.47.48-.07.7-.13.54-.13.36-1.16.41-1.21.11-.11.91.3,1.45-.22.41-.41.78-1.35.11-1.67-.11-.09,0-.21,0-.22.3-.02.76.08,1-.11.31-.23.19-.97.22-1.01.05-.05.94.14,1.34-.22.21-.19.26-.57.45-.78.02.02.14-.2.45.22Z"/>
    <path class="cls-13" d="M93.63,94.64c.07.04.16.07.22.11.29.22.51.7.93.92.53.28,1.02.21,1.53.31.94.19.23.35-.11.67-.34,0-.54-.22-.89-.22-.7,0-.65.64-1.75.13-.22-.1-.71-.55-.78-.56-.23-.04-.73.61-1.01.64-.09,0-.64-.35-.71-.43s-.09-.23-.11-.33c.55-.75.61-.3,1.18-.38.04,0,.56-.32.5-.46-2.67-1.19-5.63.63-8.26,1.23-1.69.38-3.26.43-4.91-.17.14-.18.31-.38.45-.56.62.05,1.21.31,1.84.34,3.88.19,8.08-3.45,11.89-1.23Z"/>
    <path class="cls-20" d="M98.65,60.47c.68.4.81.64,1.12,1.23-.76.17-1.49.54-2.29.57-.2,0-.43.07-.39-.23.6-.29-.16-.62-.11-.84.03-.15.54-.27.68-.44.12-.16.07-.32.1-.4.21-.45.54-.1.89.11Z"/>
    <path class="cls-20" d="M96.08,57.68c.55.43,1.09.87,1.56,1.4l-.22.06c-.73.23-1.52.55-2.29.57-.2,0-.43.07-.39-.23.06-.03.32-.25.32-.28l-.44-.62c.32-.06.73-.26.89-.56.11-.2.07-.18,0-.45l.56.11Z"/>
    <path class="cls-19" d="M98.87,92.75c.2.03.5-.07.67.06-.31.45-.67.86-1,1.28h-.78c0-.38-.23-.63-.33-.89-.06-.15-.4-.82-.33-.89.6.12,1.18.36,1.79.45Z"/>
    <path class="cls-19" d="M100.44,91.41l-.09-.07c.18-.55.05-.99-.14-1.5l1.34-.45c-.38.74-.66,1.29-1.12,2.01Z"/>
    <path class="cls-2" d="M99.32,87.5c-.26.25-.6,0-.89.17.71,1.06,1.96,1.26,3.17,1.18.05-.21.22-.4.29-.57-.02.3,0,.25.22.11-.11.23-.22.44-.33.67-.58-.02-.89-.11-1.45.06-.18.05-.4-.02-.33.27-.31-.42-.43-.2-.45-.22-.02-.03.03-.25-.11-.39-.16-.17-.52-.14-.56-.17-.01,0,.11-.13,0-.28-.14-.19-.54-.44-.62-.61-.05-.12.06-.2.05-.22h1Z"/>
    <path class="cls-13" d="M101.78,89.06c-.07.14-.17.24-.22.33l-1.34.45c-.05-.12-.15-.35-.22-.45-.06-.3.15-.22.33-.27.56-.17.88-.08,1.45-.06Z"/>
    <path class="cls-19" d="M96.2,96.65c-.29.27-.57.7-.89.95-.13.1-.34.31-.45.05.21-.41.31-.79.45-1.23.35,0,.56.23.89.22Z"/>
    <path class="cls-13" d="M98.54,94.09c-.21.27-.32.41-.56.67l-.33.11c-.12-.24.11-.7.11-.78h.78Z"/>
    <path class="cls-2" d="M97.76,94.09c0,.08-.24.54-.11.78l.33-.11c-.18.2-.19.57-.67.56.21-.75.35-1.32.11-2.12.11.27.33.51.33.89Z"/>
    <path class="cls-2" d="M97.2,95.65v-.11s.06-.02,0,.11Z"/>
    <path class="cls-14" d="M52.21,73.32s.03.18,0,.22c-.27.43-.45.83-.78,1.23-.26-.12-.63-.51-.89-.56.32-.43,1.08-1.16,1.67-.89Z"/>
    <path class="cls-13" d="M98.87,88.61s.4,0,.56.17c.14.14.09.36.11.39-.19.21-.23.59-.45.78-.26.16-1.4.06-1.45.11-.04.04-.04.93-.11,1.12-.25.19-.71.09-1,.11-.03-.15-.13-.28-.12-.5.01-.3.25-.6.24-.67-.02-.1-1.04-.41-1.27-.52-1.23-.57-2.59-1.62-3.94-1.76-2.55-.27-5.07,1.21-7.52,1.66.13-.21.12-.66.45-.78,2.37-.71,4.77-1.81,7.31-1.56,1.32.13,2.72,1.23,3.92,1.77.18.08,1.25.53,1.33.53.16,0,.51-.44.69-.5.41-.11.84.05,1.26-.36Z"/>
    <path class="cls-19" d="M90.73,96.99c.05.37.17.5.33.78.19.33.44.6.67.89-2.37-.51-5.1,2.07-7.53,2.24-2.66.18-4.55-1.76-7.2-1.9.45-.51.9-1.03,1.34-1.56.88.56,1.84,1.02,2.88,1.2,3.34.58,6.26-1.5,9.52-1.65Z"/>
    <path class="cls-13" d="M91.73,98.66c.16.03,1.03.68,1,.89-3.3-.8-4.49,1.07-7.28,1.82-3.95,1.05-5.92-2.01-9.4-1.7-1.5.13-2.78,1.06-4.16,1.53-3.28,1.12-5.28-.48-8.18-1.65.13-.41.15-.21.11-.67,1.25.31,2.35,1.1,3.54,1.54,4.23,1.53,5.44-1.32,9.18-1.43.06,0,.4,0,.45,0,2.66.14,4.55,2.09,7.2,1.9,2.43-.17,5.16-2.75,7.53-2.24Z"/>
    <path class="cls-2" d="M91.06,96.21c-.32-.07-.23.18-.23.39.01.45.08.76.23,1.17-.17-.29-.29-.42-.33-.78-.02-.17-.02-.5,0-.67.05-.4.08-.25.22-.45.02.11.04.25.11.33Z"/>
    <path class="cls-9" d="M94.63,97.88c.08.04-.07.19-.22.11-.08-.04.07-.19.22-.11Z"/>
    <path class="cls-2" d="M107.36,83.59c.2-.75-.59-.31-.89-.67.22-.05,1.09.07,1.11.28-.03.13-.19.3-.21.39Z"/>
    <path class="cls-14" d="M77.66,50.09c0,.07-.12.28-.12.49.01.99,0,1.98,0,2.97-.18-.13-.79-.56-.95-.55-.25.09-.51.28-.72.44-.34.06-.21-.17-.22-.39-.04-1.02.03-2.05,0-3.08.07-.01.16,0,.23-.05l.09-.14.8-2.6c.11.8.89,2.17.89,2.9Z"/>
    <path class="cls-4" d="M77.66,50.09l3.02.06-2.54,1.78c.26.92.78,1.78.87,2.74-.51-.3-.99-.79-1.45-1.12,0-.99,0-1.98,0-2.97,0-.21.12-.42.12-.49Z"/>
    <path class="cls-1" d="M75.65,49.98c.03,1.02-.04,2.05,0,3.08,0,.22-.11.45.22.39-.5.37-.98.93-1.56,1.23l.84-2.91-2.4-1.73c.92-.21,1.99.09,2.9-.06Z"/>
    <path class="cls-2" d="M107.81,79.57c-.35-.34-.2-.79-.22-1.23-.43-.08-.75.32-1-.11,1.61-.14.98.14,1.23,1.34Z"/>
    <path class="cls-2" d="M103.12,77.78c-.2.32-.86.49-1.23.45.11.23,0,.43,0,.56-.1-.12-.17-.6-.11-.67.05-.05,1.13-.15,1.34-.34Z"/>
    <path class="cls-2" d="M102.11,82.47c-.41.25-.97.19-1.01.22-.02.02,0,.44,0,.56-.47-.8.47-.66,1-.78Z"/>
    <path class="cls-2" d="M100.55,86.38c-.35.18-.97.07-1.01.11-.03.03,0,.47-.11.78v-.89s1.12,0,1.12,0Z"/>
    <path class="cls-2" d="M107.69,74.77c-.31-.37-.23-.65-.22-1.12l-1,.11c0-.07,0-.15,0-.22.33.24.98-.18,1.18.11.03.05-.16.88.05,1.12Z"/>
    <path class="cls-6" d="M58.8,55.56c-.02.22-.15.43-.11.67l.45-.11c-.22.12-.44.23-.67.33.08-.33,0-1,.33-.89Z"/>
    <path class="cls-6" d="M58.13,57.01l.33-.45c-.08.25-.17.29-.33.45Z"/>
    <path class="cls-16" d="M79.56,36.47v-2.12c1.02-.01,1.69-.2,1.68,1.06,0,1.13-.75,1.11-1.68,1.06Z"/>
    <path class="cls-16" d="M79.56,32.34v-2.01c2.03-.48,2.03,2.49,0,2.01Z"/>
    <path class="cls-16" d="M99.88,36.47v-2.12c1.19-.06,1.82-.12,1.68,1.29-.09.95-.91.85-1.68.83Z"/>
    <path class="cls-16" d="M99.88,32.34v-2.01c2.03-.48,2.03,2.49,0,2.01Z"/>
    <polygon class="cls-16" points="65.27 34.68 64.04 34.68 64.66 31.22 65.27 34.68"/>
    <path class="cls-16" d="M52.32,34.68h-1.23s.56-3.57.56-3.57c.17-.02.16.3.19.43.22,1.02.35,2.11.48,3.15Z"/>
    <path class="cls-14" d="M53.66,86.72c.1-.12.66-.44.84-.45.11,0,.05.23.06.34.04.57-.11,1.03-.11,1.56-.07.06-.08.14-.11.22-.4-.15-.87-.43-1.12-.78.09-.17.26-.68.33-.78.03-.04.08-.07.11-.11Z"/>
    <path class="cls-14" d="M53.33,84.48l.45-.06c-.03.6-.07,1.26-.22,1.84l-1.12-.56c.11-.23.29-.71.45-.89.11-.13.3-.23.45-.33Z"/>
    <path class="cls-1" d="M52.55,82.14c-.05.09-.17.38-.22.45-.1.13-.32.32-.45.45-.26-.31-.85-.37-.89-.78.04-.1,0-.27.11-.45.11-.19.3-.31.45-.45.21.38.7.47,1,.78Z"/>
    <path class="cls-14" d="M50.87,79.9c.31-.5.66-.93,1.29-1.11.3-.09.09.84.05,1-.07.28-.16.44-.33.67-.36-.17-.7-.29-1-.56Z"/>
    <path class="cls-14" d="M50.65,77.89c.17-.4,1.01-1,1.4-1.11.35-.1,0,.69-.03.84-.02.07.08.05.08.05-.07.28-.19.64-.45.78-.2-.19-.73-.46-1-.56Z"/>
    <path class="cls-14" d="M52.32,80.69c.26-.08.5-.23.78-.22-.22.36-.12.92-.41,1.18,0,.18-.06.35-.15.5-.3-.31-.79-.4-1-.78.27-.26.55-.4.78-.67Z"/>
    <path class="cls-1" d="M51.65,78.45s.12,0,.11.11c-.3.08-.5.42-.78.67-.26-.16-.79-.37-.78-.67.1-.2.13-.48.33-.67.04.01.08-.01.11,0,.28.1.8.36,1,.56Z"/>
    <path class="cls-1" d="M50.87,75.88c-.04.32.57.38.78.67-.03.04-.08.07-.11.11-.21.27-.39.47-.67.67l-.67-.67c.07-.12.06-.31.22-.51.19-.23.36-.2.45-.28Z"/>
    <path class="cls-1" d="M51.88,80.46c.1.05.04.07,0,.11-.26.28-.48.54-.78.78l-.67-.45c.13-.54.17-.57.45-1,.31.27.64.39,1,.56Z"/>
    <path class="cls-14" d="M51.32,75.44c.26-.15.79-.38.89,0-.04.14-.48,1.02-.56,1.12-.22-.29-.82-.35-.78-.67.13-.11.25-.33.45-.45Z"/>
    <path class="cls-1" d="M51.43,74.77c-.09.11-.25.41-.45.56-.33,0-.65-.24-.89-.45.04-.2.1-.62.33-.67.03,0,.08,0,.11,0,.27.05.63.44.89.56Z"/>
    <path class="cls-14" d="M52.88,82.47c.46-.08.16.87.11,1.23-.36.01-.65-.21-.89-.45.11-.14.22-.33.33-.45.09-.09.31-.22.45-.33Z"/>
    <path class="cls-6" d="M52.88,82.47c.12-.1.17-.4.45-.33.09.1-.1,1.7-.33,1.9.02-.09-.02-.23,0-.33.05-.36.35-1.3-.11-1.23Z"/>
    <path class="cls-2" d="M53.55,86.72v.11c-.07.1-.24.61-.33.78-.09.16-.16.36-.33.45.01-.18,0-.42,0-.45,0-.04.1-.31.11-.33.14-.27.29-.34.45-.78h.11c-.02.06.01.15,0,.22Z"/>
    <path class="cls-6" d="M53.33,84.48c.17-.13.31-.36.56-.33.13.83-.12,1.57-.33,2.34h-.11c.03-.08.09-.15.11-.22.15-.58.19-1.24.22-1.84l-.45.06Z"/>
    <path class="cls-6" d="M51.32,75.44c.19-.17.59-.41.84-.45.34-.05.1.31.06.45-.1-.38-.63-.15-.89,0Z"/>
    <path class="cls-6" d="M53.55,86.83v-.11h.11s-.08.07-.11.11Z"/>
    <path class="cls-13" d="M96.53,91.52c.67.33.3,1.27-.11,1.67-.35.22-1.23,0-1.46.16-.35.25.37,1.44-1.22,1.07,0-.4-.16-.71.22-1.12-.44-.06-.78-.37-1.2-.53-3.92-1.51-7.87,2.19-11.86,1.31.14-.18.32-.39.45-.56,4.27.26,7.74-3.05,12.02-1.25.23.1.64.44.78.45.2.02.54-.47.79-.52.36-.07.64.41.92-.08-1.67-.76-3.14-2.09-5.08-2.07-2.97.15-5.59,1.79-8.54,2.02v-.11c.08-.11.15-.22.22-.33.04-.07.22-.16.33-.33,3.07-.36,6.35-2.55,9.49-1.73,1.09.28,2.18,1.1,3.2,1.61.32.16.8.23,1.04.35Z"/>
    <path class="cls-19" d="M80.9,94.09c4,.88,7.94-2.82,11.86-1.31.42.16.76.47,1.2.53-.38.4-.22.71-.22,1.12,0,.02-.12.14-.11.22-3.81-2.22-8.01,1.43-11.89,1.23-.63-.03-1.22-.28-1.84-.34.25-.33.44-.78.78-1.06l-.11-.06c.08-.1.18-.17.22-.22.03-.04.08-.07.11-.11Z"/>
    <path class="cls-9" d="M79.9,95.54c-.13.18-.31.38-.45.56-.21.26-.46.52-.67.78-.15.18-.3.38-.45.56-.44.53-.88,1.05-1.34,1.56-.04,0-.38,0-.45,0-.47-.64-1.05-1.19-1.56-1.79-.08-.1-.18-.27-.33-.45-.16-.18-.47-.75-.67-.78v-.22c.76.75,1.6,2.05,2.46,2.68.35.26.12.51.67.11.9-.65,2.69-3.14,3.46-4.13l.11.06c-.34.28-.53.74-.78,1.06Z"/>
    <path class="cls-9" d="M82.24,92.08c-.29.45-.58,1.03-.89,1.45-.12.17-.31.38-.45.56-.03.04-.08.07-.11.11.32-.83.94-1.51,1.45-2.23v.11Z"/>
    <path class="cls-13" d="M73.53,95.31s.16.07.22.11c.09.16.02.13.22.33v.22c-2.05.82-3.86.64-5.94.08-1.21-.33-3.74-1.42-4.83-1.42h-1.79c-.12,0-.52.24-.73.22h-.11c-.02-.23-.09-.44-.11-.67.19.04.6-.22.73-.22h2.23c1.06,0,3.62,1.11,4.83,1.42,1.79.46,3.53.81,5.27-.08Z"/>
    <path class="cls-14" d="M56.56,89.4c-.02.56.03,1.12,0,1.67-.41-.01-.76-.36-1.12-.56.02-.05,0-.15,0-.22l.67-.89c.13-.03.23-.08.33-.11.03.04.09.07.11.11Z"/>
    <path class="cls-14" d="M54.56,88.5c.12-.21.17-.46.45-.61.43-.23.31.14.33.17-.03.48.04.98,0,1.45-.41.04-.62-.39-1-.45.08-.17.11-.36.22-.56Z"/>
    <path class="cls-6" d="M55.34,88.06s.15-.03.2.02c.18.2-.06,1.16-.09,1.43-.02.24-.08.38-.11.56h-.11c.03-.19.09-.31.11-.56.04-.47-.03-.98,0-1.45Z"/>
    <path class="cls-13" d="M56.12,89.4l-.67.89s-.13-.12-.11-.22c.03-.18.09-.32.11-.56.22-.04.45-.06.67-.11Z"/>
    <path class="cls-2" d="M54.56,88.5c-.11.2-.14.39-.22.56-.1.22-.26.65-.45.56,0-.04,0-.08,0-.11.02-.14.07-.31.11-.45.04-.12.25-.46.33-.67.03-.08.04-.16.11-.22,0,.13-.03.27.11.33Z"/>
    <path class="cls-19" d="M69.74,89.62c.35.6.74,1.2,1.12,1.79-3.43-.35-7.07-2.92-10.52-1.65-.76.28-1.62.82-2.35,1.2-.1.05-.07.22-.08.22-.03.02-.56.19-.67.22-.16.05-.39.03-.56.11-.02-.52.02-1.05,0-1.56,1.84-.39,3.28-1.99,5.19-2.13,2.66-.19,5.29,1.41,7.87,1.79Z"/>
    <path class="cls-2" d="M56.68,89.95c.02.52-.02,1.04,0,1.56h-.11s0-.33,0-.45c.03-.55-.02-1.12,0-1.67.15.26.1.29.11.56Z"/>
    <path class="cls-9" d="M66.72,104.36s.23.34.22.6c-.05,1.31-1.37.96-2.23.74l1.12-3.01c.78.25,1.76.09,1.4,1.23-.13.39-.47.4-.51.44ZM66.61,104.02c.26-.39-.54-1.04-.56,0,.11.05.5.08.56,0ZM66.27,104.71c-.24-.38-.73.17-.66.55.33.13.91-.14.66-.55Z"/>
    <path class="cls-9" d="M72.54,105.6c-.05.07.45,1.07.33,1.33-1.11.21-.6-.61-1.06-1.23l-.38,1.07c-.13.09-.42.08-.52-.06-.11-.16.39-2.67.5-2.75.25-.18,1.71,0,1.69.78s-.42.66-.56.85ZM71.75,105.14c1.24.13.43-.88.11-.56-.02.02,0,.43-.11.56Z"/>
    <path class="cls-9" d="M68.96,104.58s.75.13.89.11c.04.04-.08.65-.11.67-.12.09-1.02-.53-1.11.28-.03.27.1.14.28.16.28.04.56.06.84.12-.12,1.2-1.08.31-1.9.45-.17-.17.75-2.58.79-3.01.29.08,1.47.16,1.55.4.27.8-.81.32-1.04.39-.17.05-.26.35-.18.44Z"/>
    <path class="cls-9" d="M88.35,105.67c-.15.14-1.23.43-1.37.26-.08-.11-.71-2.59-.62-2.68.35.06.73-.21,1.05-.19.89.05,1.53,2.06.94,2.62ZM87.04,103.8c.2.26.19,1.62.72,1.45.44-.14.01-1.89-.72-1.45Z"/>
    <path class="cls-9" d="M79.34,106.31c-.14.66-1.38,1.02-1.84.5-.55-.62-.11-1.72-.17-2.45,1.07-.13.57.66.55,1.28-.04,1.12.79.83.79.45v-1.73h.67c-.08.57.11,1.43,0,1.95Z"/>
    <path class="cls-9" d="M85.14,103.58c.1.82.88,2.48-.24,2.83-1.61.5-1.4-1.5-1.66-2.49l.67-.11c.07.41.08,2.2.72,2.01.69-.2-.75-2.46.5-2.23Z"/>
    <path class="cls-9" d="M75.99,105.14c-.41.26-.84-.59-1.12-.33-.35.33.89.52,1.06.89.66,1.45-2.12,2.04-1.84.33.17.01.43-.05.57.05.18.13-.07.57.66.4.24-.66-.76-.53-.93-.92-.63-1.46,1.65-1.88,1.6-.42Z"/>
    <path class="cls-9" d="M82.01,104.15c.06.05.23,1.4.24,1.61.05,1.28-1.44,1.51-1.78.33,0-.08.64-.31.66-.28s.1.79.4.34c.18-.28-.21-1.59-.06-2.01.14.02.47-.05.55.01Z"/>
    <path class="cls-1" d="M62.37,98.22c.47-.05,1.14,1.05,1.45.45,0,.07,0,.15,0,.22.04.46.02.26-.11.67-.02.06.02.17,0,.22-.58.04-.87-.65-1.45-.56,0-.11,0-.23,0-.33,0-.1.09-.46.11-.67Z"/>
    <path class="cls-1" d="M59.13,94.42c.17.25-.03.11.33.45.33.31.6.72,1.12.78,0,.54-.12,1.1-.11,1.56-.15.08-.23.22-.33.33-.29-.16-.53-.47-.89-.45-.1-.5-.16-.92-.11-1.45-.11-.04-.21.11-.22.11-.18,0-1.13-.59-1.2-.7-.06-.1-.03-.29-.02-.42.02-.32.13-.5.22-.78.17,0,1.19.5,1.23.56Z"/>
    <path class="cls-6" d="M58.02,93.42s-.07.32-.11.45c-.1.28-.21.46-.22.78h-.11c0-.21-.11-.32-.11-.33,0-.04,0-.08,0-.11.02-.18.27-.58.33-.89l.22.11Z"/>
    <path class="cls-1" d="M56.56,91.07c0,.12,0,.4,0,.45-.03.24-.13.45-.22.67-.01,0-.22.1-.22.11-.4-.25-.93-.43-1.12-.89,0-.04,0-.08,0-.11.1-.15.41-.66.45-.78.35.2.7.54,1.12.56Z"/>
    <path class="cls-1" d="M57.79,93.08c-.01.07.01.16,0,.22-.07.31-.31.71-.33.89-.47-.18-.8-.68-1.34-.67.04-.51.09-.77.33-1.23h.11c.31.34.79.67,1.23.78Z"/>
    <path class="cls-13" d="M62.03,98.66c.24-.03.25-.01.22.22,0,.11,0,.23,0,.33,0,.04,0,.08,0,.11h-.78c.24-.22.31-.28.45-.56.02-.04.1-.07.11-.11Z"/>
    <path class="cls-13" d="M57.23,91.41c-.26.26-.72.45-.67.89h-.11c.02-.07-.06-.13-.11-.11.09-.22.19-.43.22-.67h.11c.17-.08.4-.06.56-.11Z"/>
    <path class="cls-6" d="M60.7,94.87c.06.49-.14,1.14.11,1.56-.14.51-.15,1.26-.11,1.79,0,.04,0,.07,0,.11-.21-.18-.09-.57-.11-.85-.01-.14-.12-.25-.12-.27,0-.46.11-1.02.11-1.56,0-.24.02-.57,0-.78h.11Z"/>
    <path class="cls-1" d="M55.34,89.51c-.02.25-.08.37-.11.56-.04.24-.2.49-.22.67-.42-.1-.7-.56-1.12-.67,0-.15-.01-.3,0-.45.19.09.34-.34.45-.56.39.06.6.49,1,.45Z"/>
    <path class="cls-2" d="M55.45,90.29c0,.07.02.17,0,.22-.03.12-.34.63-.45.78.01-.11-.02-.23,0-.33.01-.07-.01-.15,0-.22.03-.18.18-.43.22-.67h.11c-.02.1.11.21.11.22Z"/>
    <path class="cls-1" d="M54.33,88.39c-.08.21-.3.55-.33.67l-1.12-.45c0-.19-.01-.37,0-.56.17-.08.25-.29.33-.45.24.35.71.63,1.12.78Z"/>
    <path class="cls-1" d="M62.15,96.99c-.01.54.1,1.04-.11,1.67-.01.04-.09.07-.11.11-.48-.04-.74-.58-1.23-.56-.04-.53-.03-1.28.11-1.79.01-.04.1-.07.11-.11l1.23.67Z"/>
    <path class="cls-1" d="M53.55,86.27c-.02.07-.08.15-.11.22-.16.44-.3.51-.45.78-.29-.16-.53-.47-.89-.45.03-.64.1-.61.33-1.12l1.12.56Z"/>
    <path class="cls-19" d="M96.53,91.29s-.11.13,0,.22c-.24-.12-.72-.19-1.04-.35-1.01-.51-2.1-1.32-3.2-1.61-3.15-.81-6.42,1.37-9.49,1.73.38-.57.76-1.2,1.12-1.79,2.46-.45,4.97-1.93,7.52-1.66,1.35.14,2.71,1.19,3.94,1.76.23.11,1.25.42,1.27.52.01.06-.22.37-.24.67,0,.22.09.35.12.5Z"/>
    <path class="cls-2" d="M99.1,89.95c-.4.36-1.29.17-1.34.22-.04.04.09.77-.22,1.01.07-.19.07-1.08.11-1.12.05-.05,1.2.05,1.45-.11Z"/>
    <path class="cls-2" d="M96.42,93.19c-.54.52-1.34.11-1.45.22-.05.05.13,1.08-.41,1.21-.22.05-.77-.34-.7.13-.06-.04-.15-.07-.22-.11-.01-.08.11-.2.11-.22,1.59.37.87-.82,1.22-1.07.23-.16,1.11.06,1.46-.16Z"/>
    <path class="cls-19" d="M79.45,96.1c1.65.6,3.22.55,4.91.17,2.63-.6,5.59-2.42,8.26-1.23.06.13-.46.45-.5.46-.57.08-.62-.37-1.18.38-.14.2-.18.05-.22.45-4.05.15-8.05,3.33-11.95.56.21-.26.46-.52.67-.78Z"/>
    <path class="cls-13" d="M90.73,96.32c-.02.17-.02.5,0,.67-3.26.15-6.17,2.22-9.52,1.65-1.03-.18-2-.64-2.88-1.2.15-.18.3-.37.45-.56,3.89,2.77,7.89-.41,11.95-.56Z"/>
    <path class="cls-19" d="M74.98,97.21c.51.6,1.09,1.15,1.56,1.79-3.74.11-4.96,2.96-9.18,1.43-1.19-.43-2.3-1.22-3.54-1.54,0-.07,0-.15,0-.22-.07-.49-.22-1.12-.33-1.56,2.83.49,5.45,2.04,8.4,1.53,1.1-.19,2.28-.66,3.1-1.42Z"/>
    <path class="cls-19" d="M81.35,93.53c.31-.43.6-1,.89-1.45,2.95-.23,5.57-1.86,8.54-2.02,1.94-.01,3.4,1.32,5.08,2.07-.28.49-.56,0-.92.08-.25.05-.59.54-.79.52-.14-.01-.55-.36-.78-.45-4.28-1.8-7.75,1.51-12.02,1.25Z"/>
    <path class="cls-19" d="M72.64,94.09c.26.36.61.95.89,1.23-1.74.89-3.48.54-5.27.08-1.22-.31-3.78-1.42-4.83-1.42h-2.23c-.12,0-.54.26-.73.22-.07-.02-.09-.28-.27-.22-.23.08-.54.69-.73.89-.36-.33-.16-.2-.33-.45.06-.29-.07-.57-.09-.84,0-.08.09-.15.09-.17,4.36-2.96,8.87,1.74,13.51.67Z"/>
    <path class="cls-19" d="M73.98,95.98c.2.04.51.6.67.78-1.07.54-2.06,1.12-3.3,1.23-3.21.29-5.95-1.71-9.1-1.67-.03-.19-.28-1.05-.5-1-.04,0-.63.52-.67.57-.14.16-.11.3-.17.44-.02.04-.1.08-.11.11-.25-.43-.05-1.07-.11-1.56.2.02.6-.22.73-.22h1.79c1.09,0,3.63,1.09,4.83,1.42,2.08.56,3.89.74,5.94-.08Z"/>
    <path class="cls-14" d="M59.47,94.87c.19-.2.51-.81.73-.89.18-.06.2.2.27.22.02.23.09.44.11.67.02.22,0,.55,0,.78-.52-.06-.79-.48-1.12-.78Z"/>
    <path class="cls-19" d="M71.3,92.08c.29.45.59.89.89,1.34-4.44.81-8.97-3.67-13.17-.67,0-.01-.12-.19-.17-.22-.06.03-.79.81-.84.89l-.22-.11c.01-.07-.01-.15,0-.22.09-.58.11-.96.11-1.56.19.24.02.24.3.13.84-.33,1.69-1.04,2.58-1.33,3.3-1.08,7.17,1.87,10.52,1.76Z"/>
    <path class="cls-13" d="M74.65,96.77c.15.18.25.35.33.45-.82.76-2.01,1.23-3.1,1.42-2.95.51-5.57-1.05-8.4-1.53-.06-.21-.3-.8-.56-.56-.03.03-.15.56-.45.67-.04-.15-.11-.33-.22-.45,0-.15.02-.31,0-.45,3.15-.03,5.89,1.96,9.1,1.67,1.23-.11,2.23-.69,3.3-1.23Z"/>
    <path class="cls-13" d="M72.19,93.42c.15.22.31.48.45.67-4.64,1.07-9.15-3.63-13.51-.67-.01-.14-.08-.53-.11-.67,4.2-3,8.73,1.48,13.17.67Z"/>
    <path class="cls-13" d="M70.85,91.41c.14.22.3.45.45.67-3.35.11-7.22-2.83-10.52-1.76-.89.29-1.75,1-2.58,1.33-.27.11-.11.11-.3-.13,0-.11,0-.22,0-.33.01,0-.03-.17.08-.22.73-.38,1.59-.92,2.35-1.2,3.46-1.28,7.09,1.3,10.52,1.65Z"/>
    <path class="cls-14" d="M57.9,91.18c0,.11,0,.22,0,.33,0,.61-.02.98-.11,1.56-.44-.12-.91-.45-1.23-.78-.05-.45.41-.63.67-.89.11-.03.64-.21.67-.22Z"/>
    <path class="cls-13" d="M66.27,104.71c.25.4-.33.68-.66.55-.07-.38.42-.92.66-.55Z"/>
    <path class="cls-13" d="M66.61,104.02c-.05.08-.44.05-.56,0,.01-1.04.82-.39.56,0Z"/>
    <path class="cls-13" d="M71.75,105.14c.12-.13.09-.54.11-.56.32-.33,1.13.69-.11.56Z"/>
    <path class="cls-13" d="M87.04,103.8c.74-.44,1.16,1.31.72,1.45-.53.17-.53-1.19-.72-1.45Z"/>
    <path class="cls-14" d="M63.49,97.1c.12.44.27,1.08.33,1.56-.31.6-.98-.49-1.45-.45.05-.45.22-.55.11-1,.3-.11.42-.64.45-.67.26-.24.5.35.56.56Z"/>
    <path class="cls-2" d="M62.48,97.21c.11.45-.06.56-.11,1-.02.21-.11.57-.11.67.03-.24.01-.25-.22-.22.21-.63.1-1.14.11-1.67,0-.13.11-.21.11-.22.11.11.19.29.22.45Z"/>
    <path class="cls-14" d="M59.02,92.75c.03.14.1.53.11.67,0,.01-.1.08-.09.17.02.27.15.55.09.84-.04-.06-1.06-.57-1.23-.56.05-.13.09-.42.11-.45.05-.09.77-.86.84-.89.04.03.16.21.17.22Z"/>
    <path class="cls-14" d="M62.26,96.32c.02.14,0,.3,0,.45,0,.01-.11.1-.11.22l-1.23-.67c.06-.14.04-.28.17-.44.04-.05.62-.56.67-.57.22-.05.47.82.5,1Z"/>
  </g>
</svg>