<?xml version="1.0" encoding="UTF-8"?>
<svg id="Layer_1" data-name="Layer 1" xmlns="http://www.w3.org/2000/svg" viewBox="0 0 278.93 278.93">
  <defs>
    <style>
      .cls-1 {
        fill: #231f20;
      }

      .cls-2 {
        fill: #fff;
      }
    </style>
  </defs>
  <path class="cls-1" d="M78.49,35.99v-13.26h2.68v5.89l5.41-5.89h3.6l-4.99,5.17,5.27,8.1h-3.46l-3.65-6.22-2.17,2.22v4.01h-2.68Z"/>
  <path class="cls-1" d="M98.14,32.93l2.53.43c-.33.93-.84,1.64-1.54,2.12-.7.49-1.58.73-2.64.73-1.67,0-2.91-.55-3.71-1.64-.63-.87-.95-1.98-.95-3.31,0-1.59.42-2.84,1.25-3.74.83-.9,1.88-1.35,3.16-1.35,1.43,0,2.56.47,3.38,1.42s1.22,2.39,1.18,4.34h-6.37c.02.75.22,1.34.62,1.76.39.42.88.63,1.47.63.4,0,.73-.11,1-.33.27-.22.48-.57.62-1.05ZM98.29,30.36c-.02-.74-.21-1.29-.57-1.68-.36-.38-.8-.57-1.32-.57-.55,0-1.01.2-1.38.61-.36.4-.54.95-.53,1.65h3.8Z"/>
  <path class="cls-1" d="M103.57,26.38h2.37v1.41c.31-.48.72-.87,1.25-1.18.53-.3,1.11-.45,1.75-.45,1.12,0,2.06.44,2.84,1.31.78.87,1.17,2.09,1.17,3.65s-.39,2.85-1.18,3.74-1.73,1.33-2.85,1.33c-.53,0-1.01-.11-1.44-.32-.43-.21-.88-.57-1.36-1.09v4.84h-2.54v-13.26ZM106.08,31.02c0,1.08.21,1.88.64,2.39.43.52.95.77,1.57.77s1.08-.24,1.47-.71c.39-.47.59-1.25.59-2.33,0-1.01-.2-1.75-.61-2.24-.4-.49-.9-.73-1.5-.73s-1.14.24-1.55.72-.62,1.19-.62,2.13Z"/>
  <path class="cls-1" d="M117.62,29.31l-2.31-.42c.26-.93.71-1.62,1.34-2.06.63-.45,1.57-.67,2.82-.67,1.13,0,1.98.13,2.53.4.55.27.95.61,1.17,1.02.23.41.34,1.17.34,2.28l-.03,2.97c0,.84.04,1.47.12,1.87.08.4.23.83.46,1.29h-2.52c-.07-.17-.15-.42-.24-.75-.04-.15-.07-.25-.09-.3-.43.42-.9.74-1.39.95-.5.21-1.02.32-1.58.32-.99,0-1.77-.27-2.34-.81-.57-.54-.86-1.22-.86-2.04,0-.54.13-1.03.39-1.45.26-.43.62-.75,1.09-.98s1.14-.42,2.02-.59c1.19-.22,2.01-.43,2.47-.62v-.25c0-.49-.12-.84-.36-1.04s-.7-.31-1.37-.31c-.45,0-.8.09-1.06.27-.25.18-.46.49-.62.94ZM121.02,31.38c-.33.11-.84.24-1.55.39-.71.15-1.17.3-1.38.44-.33.24-.5.53-.5.9s.13.66.4.92c.27.26.6.39,1.01.39.46,0,.9-.15,1.31-.45.31-.23.51-.51.61-.84.07-.22.1-.63.1-1.24v-.51Z"/>
  <path class="cls-1" d="M126.78,35.99v-13.26h2.54v13.26h-2.54Z"/>
  <path class="cls-1" d="M134.59,29.31l-2.31-.42c.26-.93.71-1.62,1.34-2.06.63-.45,1.57-.67,2.82-.67,1.13,0,1.98.13,2.53.4.55.27.95.61,1.17,1.02.23.41.34,1.17.34,2.28l-.03,2.97c0,.84.04,1.47.12,1.87.08.4.23.83.46,1.29h-2.52c-.07-.17-.15-.42-.24-.75-.04-.15-.07-.25-.09-.3-.43.42-.9.74-1.39.95-.5.21-1.02.32-1.58.32-.99,0-1.77-.27-2.34-.81-.57-.54-.86-1.22-.86-2.04,0-.54.13-1.03.39-1.45.26-.43.62-.75,1.09-.98s1.14-.42,2.02-.59c1.19-.22,2.01-.43,2.47-.62v-.25c0-.49-.12-.84-.36-1.04s-.7-.31-1.37-.31c-.45,0-.8.09-1.06.27-.25.18-.46.49-.62.94ZM137.99,31.38c-.33.11-.84.24-1.55.39-.71.15-1.17.3-1.38.44-.33.24-.5.53-.5.9s.13.66.4.92c.27.26.6.39,1.01.39.46,0,.9-.15,1.31-.45.31-.23.51-.51.61-.84.07-.22.1-.63.1-1.24v-.51Z"/>
  <path class="cls-1" d="M149.67,22.73h4.89c1.1,0,1.95.08,2.52.25.78.23,1.44.64,2,1.22.55.59.98,1.3,1.27,2.15.29.85.43,1.89.43,3.13,0,1.09-.14,2.03-.41,2.82-.33.96-.8,1.75-1.42,2.34-.46.45-1.09.81-1.88,1.06-.59.19-1.38.28-2.37.28h-5.04v-13.26ZM152.35,24.97v8.78h2c.75,0,1.29-.04,1.62-.13.43-.11.79-.29,1.08-.55s.52-.69.7-1.28.27-1.4.27-2.43-.09-1.81-.27-2.36-.43-.98-.76-1.28c-.33-.31-.74-.52-1.24-.62-.37-.08-1.11-.13-2.2-.13h-1.2Z"/>
  <path class="cls-1" d="M163.8,25.08v-2.35h2.54v2.35h-2.54ZM163.8,35.99v-9.61h2.54v9.61h-2.54Z"/>
  <path class="cls-1" d="M178.45,35.99h-2.54v-4.9c0-1.04-.05-1.71-.16-2.01s-.29-.54-.53-.71c-.24-.17-.54-.25-.88-.25-.44,0-.84.12-1.19.36s-.59.56-.72.96-.19,1.13-.19,2.21v4.35h-2.54v-9.61h2.36v1.41c.84-1.09,1.89-1.63,3.17-1.63.56,0,1.07.1,1.54.3.46.2.82.46,1.05.77s.4.67.5,1.07c.09.4.14.97.14,1.71v5.97Z"/>
  <path class="cls-1" d="M183.69,29.31l-2.31-.42c.26-.93.71-1.62,1.34-2.06.63-.45,1.57-.67,2.82-.67,1.13,0,1.98.13,2.53.4.55.27.95.61,1.17,1.02.23.41.34,1.17.34,2.28l-.03,2.97c0,.84.04,1.47.12,1.87.08.4.23.83.46,1.29h-2.52c-.07-.17-.15-.42-.24-.75-.04-.15-.07-.25-.09-.3-.43.42-.9.74-1.39.95-.5.21-1.02.32-1.58.32-.99,0-1.77-.27-2.34-.81-.57-.54-.86-1.22-.86-2.04,0-.54.13-1.03.39-1.45.26-.43.62-.75,1.09-.98s1.14-.42,2.02-.59c1.19-.22,2.01-.43,2.47-.62v-.25c0-.49-.12-.84-.36-1.04s-.7-.31-1.37-.31c-.45,0-.8.09-1.06.27-.25.18-.46.49-.62.94ZM187.09,31.38c-.33.11-.84.24-1.55.39-.71.15-1.17.3-1.38.44-.33.24-.5.53-.5.9s.13.66.4.92c.27.26.6.39,1.01.39.46,0,.9-.15,1.31-.45.31-.23.51-.51.61-.84.07-.22.1-.63.1-1.24v-.51Z"/>
  <path class="cls-1" d="M191.96,33.25l2.55-.39c.11.49.33.87.66,1.13.33.26.8.38,1.39.38.66,0,1.15-.12,1.48-.36.22-.17.33-.4.33-.68,0-.19-.06-.35-.18-.48-.13-.12-.41-.23-.85-.33-2.05-.45-3.35-.87-3.9-1.24-.76-.52-1.14-1.24-1.14-2.16,0-.83.33-1.53.99-2.1s1.68-.85,3.06-.85,2.29.21,2.93.64c.64.43,1.08,1.06,1.32,1.9l-2.4.44c-.1-.37-.3-.66-.58-.86-.29-.2-.7-.3-1.23-.3-.67,0-1.15.09-1.44.28-.19.13-.29.3-.29.52,0,.18.08.33.25.46.23.17,1.02.41,2.38.71,1.35.31,2.3.68,2.84,1.13.53.45.8,1.08.8,1.89,0,.88-.37,1.64-1.1,2.27-.74.63-1.83.95-3.27.95-1.31,0-2.34-.27-3.11-.8s-1.26-1.25-1.5-2.16Z"/>
  <path class="cls-1" d="M29.44,211.17v-13.15h2.68v10.92h6.66v2.23h-9.34Z"/>
  <path class="cls-1" d="M41.43,200.26v-2.35h2.54v2.35h-2.54ZM41.43,211.17v-9.61h2.54v9.61h-2.54Z"/>
  <path class="cls-1" d="M49.24,204.49l-2.31-.42c.26-.93.71-1.62,1.34-2.06.63-.45,1.57-.67,2.82-.67,1.13,0,1.98.13,2.53.4.55.27.95.61,1.17,1.02.23.41.34,1.17.34,2.28l-.03,2.97c0,.84.04,1.47.12,1.87s.23.83.46,1.29h-2.52c-.07-.17-.15-.42-.24-.75-.04-.15-.07-.25-.09-.3-.43.42-.9.74-1.39.95-.5.21-1.02.32-1.58.32-.99,0-1.77-.27-2.34-.8-.57-.54-.86-1.22-.86-2.04,0-.54.13-1.03.39-1.45.26-.42.62-.75,1.09-.98.47-.23,1.14-.42,2.02-.59,1.19-.22,2.01-.43,2.47-.62v-.25c0-.49-.12-.84-.36-1.04s-.7-.31-1.37-.31c-.45,0-.8.09-1.06.27-.25.18-.46.49-.62.94ZM52.64,206.56c-.33.11-.84.24-1.55.39-.71.15-1.17.3-1.38.44-.33.23-.5.53-.5.9s.13.66.4.92c.27.26.6.39,1.01.39.46,0,.9-.15,1.31-.45.31-.23.51-.51.61-.84.07-.22.1-.63.1-1.24v-.51Z"/>
  <path class="cls-1" d="M67.14,211.17h-2.54v-4.9c0-1.04-.05-1.71-.16-2.01-.11-.3-.29-.54-.53-.71s-.54-.25-.88-.25c-.44,0-.84.12-1.19.36s-.59.56-.72.96c-.13.4-.19,1.13-.19,2.21v4.35h-2.54v-9.61h2.36v1.41c.84-1.09,1.89-1.63,3.17-1.63.56,0,1.07.1,1.54.3.46.2.82.46,1.05.77.24.31.4.67.5,1.07.09.4.14.97.14,1.71v5.97Z"/>
  <path class="cls-1" d="M72.38,204.49l-2.31-.42c.26-.93.71-1.62,1.34-2.06.63-.45,1.57-.67,2.82-.67,1.13,0,1.98.13,2.53.4.55.27.95.61,1.17,1.02.23.41.34,1.17.34,2.28l-.03,2.97c0,.84.04,1.47.12,1.87s.23.83.46,1.29h-2.52c-.07-.17-.15-.42-.24-.75-.04-.15-.07-.25-.09-.3-.43.42-.9.74-1.39.95-.5.21-1.02.32-1.58.32-.99,0-1.77-.27-2.34-.8-.57-.54-.86-1.22-.86-2.04,0-.54.13-1.03.39-1.45.26-.42.62-.75,1.09-.98.47-.23,1.14-.42,2.02-.59,1.19-.22,2.01-.43,2.47-.62v-.25c0-.49-.12-.84-.36-1.04s-.7-.31-1.37-.31c-.45,0-.8.09-1.06.27-.25.18-.46.49-.62.94ZM75.78,206.56c-.33.11-.84.24-1.55.39-.71.15-1.17.3-1.38.44-.33.23-.5.53-.5.9s.13.66.4.92c.27.26.6.39,1.01.39.46,0,.9-.15,1.31-.45.31-.23.51-.51.61-.84.07-.22.1-.63.1-1.24v-.51Z"/>
  <path class="cls-1" d="M87.48,211.17v-13.26h2.68v5.22h5.25v-5.22h2.68v13.26h-2.68v-5.8h-5.25v5.8h-2.68Z"/>
  <path class="cls-1" d="M103.49,204.49l-2.31-.42c.26-.93.71-1.62,1.34-2.06.63-.45,1.57-.67,2.82-.67,1.13,0,1.98.13,2.53.4.55.27.95.61,1.17,1.02.23.41.34,1.17.34,2.28l-.03,2.97c0,.84.04,1.47.12,1.87s.23.83.46,1.29h-2.52c-.07-.17-.15-.42-.24-.75-.04-.15-.07-.25-.09-.3-.43.42-.9.74-1.39.95-.5.21-1.02.32-1.58.32-.99,0-1.77-.27-2.34-.8-.57-.54-.86-1.22-.86-2.04,0-.54.13-1.03.39-1.45.26-.42.62-.75,1.09-.98.47-.23,1.14-.42,2.02-.59,1.19-.22,2.01-.43,2.47-.62v-.25c0-.49-.12-.84-.36-1.04s-.7-.31-1.37-.31c-.45,0-.8.09-1.06.27-.25.18-.46.49-.62.94ZM106.89,206.56c-.33.11-.84.24-1.55.39-.71.15-1.17.3-1.38.44-.33.23-.5.53-.5.9s.13.66.4.92c.27.26.6.39,1.01.39.46,0,.9-.15,1.31-.45.31-.23.51-.51.61-.84.07-.22.1-.63.1-1.24v-.51Z"/>
  <path class="cls-1" d="M112.47,201.56h2.34v1.31c.84-1.02,1.84-1.53,2.99-1.53.62,0,1.15.13,1.6.38s.82.64,1.11,1.15c.42-.51.88-.9,1.37-1.15.49-.25,1.01-.38,1.57-.38.71,0,1.3.14,1.79.43.49.29.85.71,1.09,1.26.18.41.26,1.07.26,1.99v6.14h-2.54v-5.49c0-.95-.09-1.57-.26-1.85-.24-.36-.6-.54-1.09-.54-.36,0-.69.11-1,.33-.31.22-.54.54-.68.96-.14.42-.21,1.08-.21,1.99v4.61h-2.54v-5.27c0-.93-.04-1.54-.14-1.81s-.23-.47-.42-.61c-.19-.13-.45-.2-.77-.2-.39,0-.75.11-1.06.32s-.54.52-.67.91c-.14.4-.2,1.06-.2,1.98v4.67h-2.54v-9.61Z"/>
  <path class="cls-1" d="M129.89,200.26v-2.35h2.54v2.35h-2.54ZM129.89,211.17v-9.61h2.54v9.61h-2.54Z"/>
  <path class="cls-1" d="M140.21,201.56v2.03h-1.74v3.87c0,.78.02,1.24.05,1.37s.11.24.23.32c.12.08.26.13.43.13.24,0,.58-.08,1.02-.24l.22,1.97c-.59.25-1.26.38-2.01.38-.46,0-.87-.08-1.24-.23-.37-.15-.64-.35-.81-.6s-.29-.58-.36-.99c-.05-.29-.08-.89-.08-1.79v-4.19h-1.17v-2.03h1.17v-1.91l2.55-1.48v3.39h1.74Z"/>
  <path class="cls-1" d="M144.63,204.49l-2.31-.42c.26-.93.71-1.62,1.34-2.06.63-.45,1.57-.67,2.82-.67,1.13,0,1.98.13,2.53.4.55.27.95.61,1.17,1.02.23.41.34,1.17.34,2.28l-.03,2.97c0,.84.04,1.47.12,1.87s.23.83.46,1.29h-2.52c-.07-.17-.15-.42-.24-.75-.04-.15-.07-.25-.09-.3-.43.42-.9.74-1.39.95-.5.21-1.02.32-1.58.32-.99,0-1.77-.27-2.34-.8-.57-.54-.86-1.22-.86-2.04,0-.54.13-1.03.39-1.45.26-.42.62-.75,1.09-.98.47-.23,1.14-.42,2.02-.59,1.19-.22,2.01-.43,2.47-.62v-.25c0-.49-.12-.84-.36-1.04s-.7-.31-1.37-.31c-.45,0-.8.09-1.06.27-.25.18-.46.49-.62.94ZM148.03,206.56c-.33.11-.84.24-1.55.39-.71.15-1.17.3-1.38.44-.33.23-.5.53-.5.9s.13.66.4.92c.27.26.6.39,1.01.39.46,0,.9-.15,1.31-.45.31-.23.51-.51.61-.84.07-.22.1-.63.1-1.24v-.51Z"/>
  <path class="cls-1" d="M153.73,208.63h2.54v1.82c0,.74-.06,1.32-.19,1.74-.13.43-.37.81-.72,1.14-.35.34-.8.6-1.34.8l-.5-1.05c.51-.17.88-.4,1.09-.7.22-.29.33-.7.34-1.21h-1.23v-2.54Z"/>
  <path class="cls-1" d="M164.95,206.85l2.61-.25c.16.87.47,1.52.95,1.93s1.13.62,1.94.62c.86,0,1.51-.18,1.95-.55.44-.36.66-.79.66-1.28,0-.31-.09-.58-.28-.8-.18-.22-.51-.41-.96-.58-.31-.11-1.03-.3-2.14-.58-1.44-.36-2.44-.79-3.02-1.31-.81-.73-1.22-1.62-1.22-2.67,0-.68.19-1.31.57-1.9s.93-1.04,1.66-1.34,1.59-.46,2.61-.46c1.67,0,2.92.37,3.76,1.09.84.73,1.28,1.7,1.33,2.92l-2.68.12c-.11-.68-.36-1.17-.74-1.47-.38-.3-.94-.45-1.7-.45s-1.39.16-1.83.48c-.28.21-.43.48-.43.82,0,.31.13.58.4.8.34.28,1.16.58,2.46.89s2.27.63,2.89.96c.62.33,1.11.78,1.47,1.35.35.57.53,1.27.53,2.11,0,.76-.21,1.47-.63,2.14-.42.66-1.02,1.16-1.79,1.48-.77.32-1.73.48-2.89.48-1.68,0-2.96-.39-3.86-1.16-.9-.77-1.44-1.9-1.61-3.39Z"/>
  <path class="cls-1" d="M178.75,211.17v-13.26h2.68v5.22h5.25v-5.22h2.68v13.26h-2.68v-5.8h-5.25v5.8h-2.68Z"/>
  <path class="cls-1" d="M192.8,208.63h2.54v1.82c0,.74-.06,1.32-.19,1.74-.13.43-.37.81-.72,1.14-.35.34-.8.6-1.34.8l-.5-1.05c.51-.17.88-.4,1.09-.7.22-.29.33-.7.34-1.21h-1.23v-2.54Z"/>
  <path class="cls-1" d="M204.66,211.17v-13.26h4.01l2.41,9.05,2.38-9.05h4.02v13.26h-2.49v-10.44l-2.63,10.44h-2.58l-2.62-10.44v10.44h-2.49Z"/>
  <path class="cls-1" d="M220.88,211.17v-2.54h2.54v2.54h-2.54Z"/>
  <path class="cls-1" d="M226.84,211.17v-13.26h2.68v5.89l5.41-5.89h3.6l-4.99,5.17,5.27,8.1h-3.46l-3.65-6.22-2.17,2.22v4.01h-2.68Z"/>
  <path class="cls-1" d="M249.66,211.17h-2.54v-4.9c0-1.04-.05-1.71-.16-2.01-.11-.3-.29-.54-.53-.71s-.54-.25-.88-.25c-.44,0-.84.12-1.19.36s-.59.56-.72.96c-.13.4-.19,1.13-.19,2.21v4.35h-2.54v-9.61h2.36v1.41c.84-1.09,1.89-1.63,3.17-1.63.56,0,1.07.1,1.54.3.46.2.82.46,1.05.77.24.31.4.67.5,1.07.09.4.14.97.14,1.71v5.97Z"/>
  <path class="cls-1" d="M23.3,254.96v-13.26h2.61l5.43,8.86v-8.86h2.49v13.26h-2.69l-5.35-8.65v8.65h-2.49Z"/>
  <path class="cls-1" d="M37.33,254.96v-13.26h2.68v13.26h-2.68Z"/>
  <path class="cls-1" d="M43.32,254.96v-13.26h4.3c1.63,0,2.69.07,3.18.2.76.2,1.4.63,1.91,1.3.51.67.77,1.53.77,2.58,0,.81-.15,1.5-.44,2.05-.29.55-.67.99-1.13,1.31-.46.32-.92.53-1.39.63-.64.13-1.57.19-2.78.19h-1.75v5h-2.68ZM46,243.95v3.76h1.46c1.06,0,1.76-.07,2.12-.21.36-.14.63-.36.84-.65s.3-.64.3-1.03c0-.48-.14-.88-.43-1.19s-.64-.51-1.08-.59c-.32-.06-.96-.09-1.93-.09h-1.29Z"/>
  <path class="cls-1" d="M54.03,254.96v-2.54h2.54v2.54h-2.54Z"/>
  <path class="cls-1" d="M65.9,254.96h-2.54v-9.58c-.93.87-2.02,1.51-3.28,1.93v-2.31c.66-.22,1.38-.63,2.16-1.24.78-.61,1.31-1.31,1.6-2.12h2.06v13.32Z"/>
  <path class="cls-1" d="M70.52,251.9l2.46-.27c.06.5.22.87.47,1.11.25.24.59.36,1,.36.52,0,.97-.24,1.34-.72.37-.48.6-1.48.71-3-.64.74-1.44,1.11-2.4,1.11-1.04,0-1.94-.4-2.7-1.21-.76-.8-1.14-1.85-1.14-3.14s.4-2.43,1.2-3.25c.8-.82,1.82-1.24,3.05-1.24,1.35,0,2.45.52,3.31,1.56s1.29,2.75,1.29,5.13-.45,4.17-1.35,5.25c-.9,1.07-2.07,1.61-3.51,1.61-1.04,0-1.88-.28-2.51-.83-.64-.55-1.05-1.38-1.23-2.47ZM76.27,246.34c0-.82-.19-1.46-.57-1.91-.38-.45-.81-.68-1.31-.68s-.86.18-1.17.56-.47.98-.47,1.82.17,1.49.51,1.89c.34.4.76.6,1.27.6s.9-.19,1.24-.58c.33-.39.5-.95.5-1.7Z"/>
  <path class="cls-1" d="M81.53,244.24v-2.36h8.69v1.85c-.72.71-1.45,1.72-2.19,3.04-.74,1.32-1.31,2.72-1.7,4.21-.39,1.49-.58,2.82-.57,3.99h-2.45c.04-1.83.42-3.7,1.14-5.61.71-1.91,1.67-3.61,2.86-5.11h-5.78Z"/>
  <path class="cls-1" d="M101.2,244.95l-2.46.27c-.06-.51-.22-.88-.47-1.12s-.58-.36-.99-.36c-.54,0-.99.24-1.36.72s-.6,1.49-.7,3.01c.63-.75,1.42-1.12,2.36-1.12,1.06,0,1.97.4,2.73,1.21s1.14,1.85,1.14,3.13c0,1.36-.4,2.45-1.19,3.27s-1.82,1.23-3.07,1.23c-1.34,0-2.44-.52-3.3-1.56-.86-1.04-1.29-2.75-1.29-5.12s.45-4.18,1.35-5.26c.9-1.07,2.07-1.61,3.5-1.61,1.01,0,1.84.28,2.5.85.66.56,1.08,1.38,1.26,2.46ZM95.44,250.5c0,.83.19,1.46.57,1.91s.81.67,1.3.67.86-.18,1.18-.55.47-.97.47-1.81-.17-1.49-.51-1.9c-.34-.4-.76-.6-1.27-.6s-.9.19-1.24.57c-.34.38-.51.95-.51,1.7Z"/>
  <path class="cls-1" d="M107.95,241.65c1.28,0,2.29.46,3.01,1.38.86,1.09,1.29,2.89,1.29,5.4s-.43,4.31-1.3,5.41c-.72.9-1.72,1.36-3,1.36s-2.33-.5-3.12-1.49-1.18-2.76-1.18-5.31.43-4.29,1.3-5.39c.72-.91,1.72-1.36,3-1.36ZM107.95,243.76c-.31,0-.58.1-.82.29-.24.2-.43.55-.56,1.05-.17.66-.26,1.76-.26,3.32s.08,2.62.24,3.21c.16.58.35.97.59,1.16.24.19.51.29.82.29s.58-.1.82-.29c.24-.2.43-.55.56-1.05.17-.65.26-1.76.26-3.31s-.08-2.62-.24-3.21c-.16-.58-.35-.97-.59-1.17-.24-.2-.51-.29-.82-.29Z"/>
  <path class="cls-1" d="M119.7,254.96v-2.67h-5.43v-2.23l5.75-8.42h2.14v8.41h1.65v2.23h-1.65v2.67h-2.46ZM119.7,250.06v-4.53l-3.05,4.53h3.05Z"/>
  <path class="cls-1" d="M134.37,252.6v2.36h-8.91c.1-.89.39-1.74.87-2.54.48-.8,1.44-1.86,2.86-3.18,1.15-1.07,1.85-1.79,2.11-2.17.35-.53.52-1.04.52-1.56,0-.57-.15-1-.46-1.31-.3-.3-.72-.46-1.26-.46s-.95.16-1.27.48c-.31.32-.49.85-.54,1.59l-2.53-.25c.15-1.4.62-2.4,1.42-3.01.8-.61,1.79-.91,2.99-.91,1.31,0,2.34.35,3.08,1.06.75.71,1.12,1.58,1.12,2.63,0,.6-.11,1.17-.32,1.71s-.55,1.11-1.02,1.7c-.31.39-.86.96-1.67,1.69-.8.74-1.31,1.22-1.52,1.46s-.39.48-.52.71h5.05Z"/>
  <path class="cls-1" d="M145.43,252.6v2.36h-8.91c.1-.89.39-1.74.87-2.54.48-.8,1.44-1.86,2.86-3.18,1.15-1.07,1.85-1.79,2.11-2.17.35-.53.52-1.04.52-1.56,0-.57-.15-1-.46-1.31-.3-.3-.72-.46-1.26-.46s-.95.16-1.27.48c-.31.32-.49.85-.54,1.59l-2.53-.25c.15-1.4.62-2.4,1.42-3.01.8-.61,1.79-.91,2.99-.91,1.31,0,2.34.35,3.08,1.06.75.71,1.12,1.58,1.12,2.63,0,.6-.11,1.17-.32,1.71s-.55,1.11-1.02,1.7c-.31.39-.86.96-1.67,1.69-.8.74-1.31,1.22-1.52,1.46s-.39.48-.52.71h5.05Z"/>
  <path class="cls-1" d="M156.5,252.6v2.36h-8.91c.1-.89.39-1.74.87-2.54.48-.8,1.44-1.86,2.86-3.18,1.15-1.07,1.85-1.79,2.11-2.17.35-.53.52-1.04.52-1.56,0-.57-.15-1-.46-1.31-.3-.3-.72-.46-1.26-.46s-.95.16-1.27.48c-.31.32-.49.85-.54,1.59l-2.53-.25c.15-1.4.62-2.4,1.42-3.01.8-.61,1.79-.91,2.99-.91,1.31,0,2.34.35,3.08,1.06.75.71,1.12,1.58,1.12,2.63,0,.6-.11,1.17-.32,1.71s-.55,1.11-1.02,1.7c-.31.39-.86.96-1.67,1.69-.8.74-1.31,1.22-1.52,1.46s-.39.48-.52.71h5.05Z"/>
  <path class="cls-1" d="M163.27,241.65c1.28,0,2.29.46,3.01,1.38.86,1.09,1.29,2.89,1.29,5.4s-.43,4.31-1.3,5.41c-.72.9-1.72,1.36-3,1.36s-2.33-.5-3.12-1.49-1.18-2.76-1.18-5.31.43-4.29,1.3-5.39c.72-.91,1.72-1.36,3-1.36ZM163.27,243.76c-.31,0-.58.1-.82.29-.24.2-.43.55-.56,1.05-.17.66-.26,1.76-.26,3.32s.08,2.62.24,3.21c.16.58.35.97.59,1.16.24.19.51.29.82.29s.58-.1.82-.29c.24-.2.43-.55.56-1.05.17-.65.26-1.76.26-3.31s-.08-2.62-.24-3.21c-.16-.58-.35-.97-.59-1.17-.24-.2-.51-.29-.82-.29Z"/>
  <path class="cls-1" d="M176.55,254.96h-2.54v-9.58c-.93.87-2.02,1.51-3.28,1.93v-2.31c.66-.22,1.38-.63,2.16-1.24.78-.61,1.31-1.31,1.6-2.12h2.06v13.32Z"/>
  <path class="cls-1" d="M185.4,241.65c1.28,0,2.29.46,3.01,1.38.86,1.09,1.29,2.89,1.29,5.4s-.43,4.31-1.3,5.41c-.72.9-1.72,1.36-3,1.36s-2.33-.5-3.12-1.49-1.18-2.76-1.18-5.31.43-4.29,1.3-5.39c.72-.91,1.72-1.36,3-1.36ZM185.4,243.76c-.31,0-.58.1-.82.29-.24.2-.43.55-.56,1.05-.17.66-.26,1.76-.26,3.32s.08,2.62.24,3.21c.16.58.35.97.59,1.16.24.19.51.29.82.29s.58-.1.82-.29c.24-.2.43-.55.56-1.05.17-.65.26-1.76.26-3.31s-.08-2.62-.24-3.21c-.16-.58-.35-.97-.59-1.17-.24-.2-.51-.29-.82-.29Z"/>
  <path class="cls-1" d="M196.47,241.65c1.28,0,2.29.46,3.01,1.38.86,1.09,1.29,2.89,1.29,5.4s-.43,4.31-1.3,5.41c-.72.9-1.72,1.36-3,1.36s-2.33-.5-3.12-1.49-1.18-2.76-1.18-5.31.43-4.29,1.3-5.39c.72-.91,1.72-1.36,3-1.36ZM196.47,243.76c-.31,0-.58.1-.82.29-.24.2-.43.55-.56,1.05-.17.66-.26,1.76-.26,3.32s.08,2.62.24,3.21c.16.58.35.97.59,1.16.24.19.51.29.82.29s.58-.1.82-.29c.24-.2.43-.55.56-1.05.17-.65.26-1.76.26-3.31s-.08-2.62-.24-3.21c-.16-.58-.35-.97-.59-1.17-.24-.2-.51-.29-.82-.29Z"/>
  <path class="cls-1" d="M209.74,254.96h-2.54v-9.58c-.93.87-2.02,1.51-3.28,1.93v-2.31c.66-.22,1.38-.63,2.16-1.24.78-.61,1.31-1.31,1.6-2.12h2.06v13.32Z"/>
  <path class="cls-1" d="M222.88,252.6v2.36h-8.91c.1-.89.39-1.74.87-2.54.48-.8,1.44-1.86,2.86-3.18,1.15-1.07,1.85-1.79,2.11-2.17.35-.53.52-1.04.52-1.56,0-.57-.15-1-.46-1.31-.3-.3-.72-.46-1.26-.46s-.95.16-1.27.48c-.31.32-.49.85-.54,1.59l-2.53-.25c.15-1.4.62-2.4,1.42-3.01.8-.61,1.79-.91,2.99-.91,1.31,0,2.34.35,3.08,1.06.75.71,1.12,1.58,1.12,2.63,0,.6-.11,1.17-.32,1.71s-.55,1.11-1.02,1.7c-.31.39-.86.96-1.67,1.69-.8.74-1.31,1.22-1.52,1.46s-.39.48-.52.71h5.05Z"/>
  <path class="cls-1" d="M229.66,241.65c1.28,0,2.29.46,3.01,1.38.86,1.09,1.29,2.89,1.29,5.4s-.43,4.31-1.3,5.41c-.72.9-1.72,1.36-3,1.36s-2.33-.5-3.12-1.49-1.18-2.76-1.18-5.31.43-4.29,1.3-5.39c.72-.91,1.72-1.36,3-1.36ZM229.66,243.76c-.31,0-.58.1-.82.29-.24.2-.43.55-.56,1.05-.17.66-.26,1.76-.26,3.32s.08,2.62.24,3.21c.16.58.35.97.59,1.16.24.19.51.29.82.29s.58-.1.82-.29c.24-.2.43-.55.56-1.05.17-.65.26-1.76.26-3.31s-.08-2.62-.24-3.21c-.16-.58-.35-.97-.59-1.17-.24-.2-.51-.29-.82-.29Z"/>
  <path class="cls-1" d="M240.72,241.65c1.28,0,2.29.46,3.01,1.38.86,1.09,1.29,2.89,1.29,5.4s-.43,4.31-1.3,5.41c-.72.9-1.72,1.36-3,1.36s-2.33-.5-3.12-1.49-1.18-2.76-1.18-5.31.43-4.29,1.3-5.39c.72-.91,1.72-1.36,3-1.36ZM240.72,243.76c-.31,0-.58.1-.82.29-.24.2-.43.55-.56,1.05-.17.66-.26,1.76-.26,3.32s.08,2.62.24,3.21c.16.58.35.97.59,1.16.24.19.51.29.82.29s.58-.1.82-.29c.24-.2.43-.55.56-1.05.17-.65.26-1.76.26-3.31s-.08-2.62-.24-3.21c-.16-.58-.35-.97-.59-1.17-.24-.2-.51-.29-.82-.29Z"/>
  <path class="cls-1" d="M249.67,247.81c-.66-.28-1.14-.66-1.43-1.14-.3-.49-.45-1.02-.45-1.6,0-.99.34-1.81,1.04-2.45.69-.65,1.67-.97,2.95-.97s2.24.32,2.94.97c.7.65,1.04,1.46,1.04,2.45,0,.62-.16,1.16-.48,1.64-.32.48-.77.85-1.35,1.1.74.3,1.29.73,1.68,1.29.38.57.58,1.22.58,1.96,0,1.22-.39,2.22-1.17,2.99-.78.77-1.82,1.15-3.12,1.15-1.21,0-2.21-.32-3.01-.95-.95-.75-1.42-1.77-1.42-3.08,0-.72.18-1.38.53-1.98.36-.6.92-1.06,1.68-1.39ZM249.96,250.93c0,.7.18,1.25.54,1.64.36.39.81.59,1.34.59s.96-.19,1.3-.57.52-.92.52-1.63c0-.62-.17-1.12-.52-1.5s-.79-.57-1.33-.57c-.62,0-1.08.21-1.39.64-.3.43-.46.89-.46,1.39ZM250.2,245.25c0,.51.14.9.43,1.19s.67.42,1.14.42.87-.14,1.16-.43c.29-.29.43-.68.43-1.19,0-.48-.14-.86-.43-1.14-.29-.29-.66-.43-1.13-.43s-.88.14-1.17.43c-.29.29-.43.67-.43,1.15Z"/>
  <g>
    <path class="cls-2" d="M202.08,53.22v125.22h-125.22V53.22h125.22ZM110.26,58.97h-27.65v27.65h27.65s0-27.65,0-27.65ZM138.03,66.85c-.01-2.62,0-5.26,0-7.88h-15.76v3.88h11.45s.43.19.43.19v3.82h-8.01c0,1.33,0,2.67,0,4-1.09,0-2.55.13-3.57,0-.18-.02-.32-.02-.43-.19v-3.82c-1.29,0-2.59,0-3.88,0,0-1.29,0-2.59,0-3.88h-4v3.88c1.33,0,2.67,0,4,0,0,1.33,0,2.67,0,4h4v3.88h3.88v4c1.33,0,2.67,0,4,0,.01,2.24.25,5.46,0,7.57-.02.18-.02.32-.19.43h-3.63l-.19-.19v-3.82h-3.88v7.88h-8.01v7.88h3.82c.18.11.17.25.19.43.12,1.02-.01,2.49,0,3.57-1.33,0-2.67,0-4,0v4c1.33,0,2.67,0,4,0,0,2.63,0,5.26,0,7.88,2.63,0,5.26,0,7.88,0,0,1.33,0,2.67,0,4-1.29,0-2.59,0-3.88,0v3.82c-.11.18-.25.17-.43.19-.98.12-2.53.01-3.57,0,0-1.33,0-2.67,0-4h-4v-4h-7.88v-4h3.88v-3.88h-3.88v3.82l-.19.19h-3.63l-.19-.19v-15.7h7.88v-4h-11.76v23.77c-1.33,0-2.67,0-4,0,0-2.63,0-5.26,0-7.88-1.33,0-2.67,0-4,0,0-1.33,0-2.67,0-4,1.33,0,2.67,0,4,0v-11.88h-4v4h-7.88v3.88h7.88c0,1.33,0,2.67,0,4-1.29,0-2.59,0-3.88,0-.03,1.15.04,2.3,0,3.45,0,.23-.13.46-.13.55-1.29,0-2.59,0-3.88,0v7.88c3.96-.01,7.92.02,11.88,0,0,3.96,0,7.92,0,11.88-2.67,0-5.34,0-8.01,0v-3.82l.19-.19h3.82v-3.88h-7.88v11.88c3.96,0,7.92,0,11.88,0,0,2.62.01,5.26,0,7.88-1.33,0-2.67,0-4,0v-3.88h-7.88v3.88h3.82l.19.19v3.82h7.88c0-1.33,0-2.67,0-4,1.29,0,2.59,0,3.88,0-.02-1.04-.12-2.59,0-3.57.02-.18.02-.32.19-.43h3.82v4c-1.33,0-2.67,0-4,0,0,.09.12.32.13.55.03,1.15-.04,2.3,0,3.45h11.76v-3.82l.19-.19h3.82v7.88h4v-11.76h-7.88v3.88h-4v-4h3.88c.02-1.29-.03-2.59,0-3.88,4,.02,8.01-.02,12.01,0v3.88h3.88v4h7.88v-3.88h-3.88v-4c1.33,0,2.67,0,4,0,.03,1.29-.02,2.59,0,3.88h11.45s.43.19.43.19v3.82h3.88v-3.82l.43-.19,7.46.06.12,7.95h3.88v11.88h-7.88v-11.88h-11.88v-4h-4v8.01h-3.88c-.02,1.29.03,2.59,0,3.88-2.67,0-5.34,0-8.01,0v4c2.67,0,5.34,0,8.01,0,.03,1.29-.02,2.59,0,3.88h7.45s.43.19.43.19v3.82h3.88v-3.88h-3.88c0-1.33,0-2.67,0-4,1.33,0,2.67,0,4,0v3.88h7.45s.43.19.43.19v7.82h3.88v-3.82c.11-.18.25-.17.43-.19,2.12-.25,5.33,0,7.57,0,0,1.33,0,2.67,0,4-1.33,0-2.67,0-4,0v4h-11.45s-.43-.19-.43-.19v-3.82h-7.88v3.82l-.43.19h-11.45v-4.01h-4c0,1.33,0,2.67,0,4h-3.82l-.19-.19v-3.82h4c0-1.33,0-2.67,0-4h7.82l.19.19v3.82h3.88v-4h-4v-3.88l-11.77-.05-.12-7.95h-7.88v7.88h3.82l.19.19v3.82h-4v4h4v7.88h23.77v-4h3.82l.19.19v3.82h27.65v-3.82l.19-.19h3.82v-3.88c-2.62,0-5.26,0-7.88,0,0-.09-.12-.32-.13-.55-.03-1.15.03-2.3,0-3.45-1.29,0-2.59,0-3.88,0,0-1.33,0-2.67,0-4h7.88v4h4v-4h3.88v-3.88h4v-4h-4v-15.76s-7.45,0-7.45,0l-.43-.19v-3.82h-3.82c-.18-.11-.17-.25-.19-.43-.26-2.19.23-4.89,0-7.14l.19-.43h3.82v4c2.62,0,5.26,0,7.88,0,0,.09.13.32.13.55.05,2.44-.07,4.88,0,7.33h3.88v11.88c1.15.03,2.3-.04,3.45,0,.23,0,.46.13.55.13,0,2.62,0,5.26,0,7.88h4v7.88h3.88v-7.88h-3.82l-.19-.19v-3.63l.19-.19h3.82v-11.88c-1.33,0-2.67,0-4,0-.03-2.63.04-5.25,0-7.88h4v-7.88h-3.82l-.19-.19v-3.82h4v-7.88h-3.88v3.88c-1.33,0-2.67,0-4,0,0-1.33,0-2.67,0-4h3.88v-3.88h-3.88v-4c-1.33,0-2.67,0-4,0,0-1.09-.13-2.55,0-3.57.02-.18.02-.32.19-.43h3.82c0-1.29,0-2.59,0-3.88,1.29,0,2.59,0,3.88,0v-4h-3.88c0,1.33,0,2.67,0,4-2.24.01-5.46.25-7.57,0-.18-.02-.32-.02-.43-.19v-3.82h-3.88c0,2.62,0,5.26,0,7.88-1.35.03-2.64.03-4,0,0-1.29,0-2.59,0-3.88-1.29,0-2.59,0-3.88,0,0-.09-.12-.32-.13-.55-.03-1.15.04-2.3,0-3.45h-7.88v4h-3.88v3.88h3.88v4h-3.88v7.57s-.19.43-.19.43h-3.82v-19.89h3.88v-11.88h-7.88v-7.88h-3.88v15.76c1.29.02,2.59-.03,3.88,0,0-1.29,0-2.59,0-3.88h4v3.82c-.11.18-.25.17-.43.19-1.17.14-2.44-.1-3.57-.13,0,1.33,0,2.67,0,4h-4v-3.88h-3.88v-4h-4v7.88h-3.88v4h3.88v3.88h11.88v15.89h7.82l.19.19v3.82h3.88v7.88h-4v-3.88c-2.44-.06-4.88.05-7.33,0-.24,0-.46-.13-.55-.13,0-1.29,0-2.59,0-3.88-1.29,0-2.59,0-3.88,0,0-.09-.12-.32-.13-.55-.03-1.15.03-2.3,0-3.45-1.29,0-2.59,0-3.88,0,0-1.29,0-2.59,0-3.88-1.15-.03-2.3.04-3.45,0-.24,0-.46-.13-.55-.13,0-1.29,0-2.59,0-3.88h4v-4c-2.67-.01-5.34.01-8.01,0-.03-1.29.02-2.59,0-3.88-1.29-.02-2.59.03-3.88,0,0-1.33,0-2.67,0-4h-4c0,1.33,0,2.67,0,4-2.63,0-5.25-.02-7.88,0v-4h3.88v-3.82l.19-.19h7.82v-4h3.88v-7.88c-1.29,0-2.59,0-3.88,0,0-1.29,0-2.59,0-3.88h-3.82c-.18-.11-.17-.25-.19-.43-.12-1.02.01-2.49,0-3.57,2.62.02,5.26-.01,7.88,0v-3.82c.11-.18.25-.17.43-.19,1.02-.12,2.49.01,3.57,0,0,1.33,0,2.67,0,4h4c0-1.33,0-2.67,0-4,3.96-.01,7.93-.02,11.88,0,0,1.33,0,2.67,0,4h3.88v-4c-1.29,0-2.59,0-3.88,0-.01-2.62,0-5.26,0-7.88h-7.88v3.82l-.19.19h-3.82c0,1.29,0,2.59,0,3.88-1.33,0-2.67,0-4,0ZM165.8,58.97h-4v15.76h4v-15.76ZM197.45,58.97h-27.65v27.65s27.65,0,27.65,0v-27.65ZM122.14,74.86h-7.88v3.88h7.88v-3.88ZM142.03,74.86h-4v3.88h4v-3.88ZM165.8,78.74h-4v7.88h4v-7.88ZM118.26,82.74h-4v3.88h4v-3.88ZM110.26,98.63h-3.88v3.88h3.88v-3.88ZM197.45,98.63h-3.88v3.88h3.88v-3.88ZM130.15,142.16h-7.88v3.88h7.88v-3.88ZM82.61,146.16v27.65h27.65v-27.65s-27.65,0-27.65,0ZM189.57,158.04h-4v3.88h4v-3.88ZM197.45,165.93h-15.76v3.88h3.88v4h7.88v-3.82l.19-.19h3.82v-3.88Z"/>
    <path class="cls-2" d="M102.38,126.27c.01-2.62,0-5.26,0-7.88h8.01v3.88c2.44.05,4.88-.04,7.33,0,.24,0,.46.13.55.13,0,1.29,0,2.59,0,3.88-2.67,0-5.34,0-8.01,0-.03-1.29.02-2.59,0-3.88h-3.88c0,1.29,0,2.59,0,3.88-1.33,0-2.67,0-4,0Z"/>
    <path class="cls-2" d="M146.03,118.39c.03,1.29-.02,2.59,0,3.88,1.29.02,2.59-.03,3.88,0,0,1.33,0,2.67,0,4h4v4h-7.82l-.19-.43v-7.45s-3.87,0-3.87,0c0-1.33,0-2.67,0-4,1.33,0,2.67,0,4,0Z"/>
    <path class="cls-2" d="M118.26,106.51c0-1.33,0-2.67,0-4,1.08,0,2.55-.13,3.57,0,.18.02.32.02.43.19v3.63c-.11.18-.25.17-.43.19-1.02.12-2.49-.01-3.57,0Z"/>
    <path class="cls-2" d="M169.8,94.62c.03,1.29-.02,2.59,0,3.88,1.29.02,2.59-.03,3.88,0,0,1.33,0,2.67,0,4,1.33,0,2.67,0,4,0,0,1.33,0,2.67,0,4h-4v7.88h4v-4h3.88c.05-2.44-.04-4.88,0-7.33,0-.24.13-.46.13-.55,1.29,0,2.59,0,3.88,0-.02,3.96,0,7.93,0,11.88-1.29,0-2.59,0-3.88,0v4c1.29,0,2.59,0,3.88,0,0,1.29,0,2.59,0,3.88h3.82l.19.19v3.82c-2.67,0-5.34,0-8.01,0-.03-1.29.02-2.59,0-3.88h-3.88v-4h-11.88v-4h3.88v-3.88h-3.88v-8.01h3.88v-3.88h-3.88v-4c1.33,0,2.67,0,4,0Z"/>
    <path class="cls-2" d="M189.57,114.39c0,1.33,0,2.67,0,4-1.33,0-2.67,0-4,0,0-1.33,0-2.67,0-4,1.33,0,2.67,0,4,0Z"/>
    <path class="cls-2" d="M169.8,165.93c.02,1.04.12,2.59,0,3.57-.02.18-.02.32-.19.43h-3.82c0-1.33,0-2.67,0-4,1.33,0,2.67,0,4,0Z"/>
    <path class="cls-2" d="M142.03,150.04c0-1.33,0-2.67,0-4h7.88v4c-2.62,0-5.26,0-7.88,0,0,1.33,0,2.67,0,4-2.62-.01-5.26,0-7.88,0-.03-1.36-.03-2.63,0-4,2.62,0,5.26,0,7.88,0Z"/>
    <path class="cls-2" d="M130.15,98.63c0,1.29,0,2.59,0,3.88,1.29,0,2.59,0,3.88,0,0,.09.13.32.13.55.05,2.44-.07,4.89,0,7.33,1.29.02,2.59-.03,3.88,0,0,1.33,0,2.67,0,4,1.33,0,2.67,0,4,0,0,1.33,0,2.67,0,4-1.33,0-2.67,0-4,0v4h-3.88c-.02,1.29.03,2.59,0,3.88-2.67-.01-5.34,0-8.01,0,0-2.63,0-5.26,0-7.88,1.33,0,2.67,0,4,0v3.88h3.88v-7.88c-2.62,0-5.26,0-7.88,0,0-5.25-.03-10.51,0-15.76,1.31,0,2.67-.03,4,0Z"/>
    <path class="cls-2" d="M90.49,106.51c0,1.33,0,2.67,0,4h-3.82c-.18-.11-.17-.25-.19-.43-.12-.98-.01-2.53,0-3.57,1.33,0,2.67,0,4,0Z"/>
    <path class="cls-2" d="M193.44,138.16c0,.09.13.32.13.55.02,2.45,0,4.89-.06,7.33-.14.2-3.4.13-3.95.12,0-2.67,0-5.34,0-8.01,1.29,0,2.59,0,3.88,0Z"/>
    <path class="cls-2" d="M134.15,126.27c1.29,0,2.59,0,3.88,0v4c-1.29,0-2.59,0-3.88,0-.03-1.36-.03-2.63,0-4Z"/>
    <path class="cls-2" d="M110.26,126.27c.03,1.37.03,2.64,0,4-1.29,0-2.59,0-3.88,0,0-1.33,0-2.67,0-4,1.29,0,2.59,0,3.88,0Z"/>
    <path class="cls-2" d="M102.38,126.27c0,1.33,0,2.67,0,4-2.63,0-5.26,0-7.88,0,0-1.33,0-2.67,0-4,2.62,0,5.26,0,7.88,0Z"/>
    <path class="cls-2" d="M181.69,102.5c-1.33,0-2.67,0-4,0,0-1.33,0-2.67,0-4,.54-.01,3.81-.08,3.95.12.08,1.29.08,2.6.05,3.89Z"/>
    <path d="M193.44,138.16c1.33,0,2.67,0,4,0v11.88h-3.82l-.19.19v3.63l.19.19h3.82v7.88h-3.88v-7.88h-4c0-2.62,0-5.26,0-7.88.54.01,3.81.08,3.95-.12.06-2.44.08-4.89.06-7.33,0-.24-.13-.47-.13-.55Z"/>
    <path d="M126.14,70.86c0-1.33,0-2.67,0-4h8.01v-3.82l-.43-.19h-11.45s0-3.87,0-3.87h15.76c0,2.62-.01,5.26,0,7.88,1.33,0,2.67,0,4,0,0-1.29,0-2.59,0-3.88h3.82l.19-.19v-3.82h7.88c0,2.62-.01,5.26,0,7.88,1.29,0,2.59,0,3.88,0v4h-3.88c0-1.33,0-2.67,0-4-3.96-.02-7.93-.01-11.88,0,0,1.33,0,2.67,0,4h-4c0-1.33,0-2.67,0-4-1.09,0-2.55-.13-3.57,0-.18.02-.32.02-.43.19v3.82c-2.62-.01-5.26.02-7.88,0,0,1.08-.13,2.55,0,3.57.02.18.02.32.19.43h3.82c0,1.29,0,2.59,0,3.88,1.29,0,2.59,0,3.88,0v7.88h-3.88v4h-7.82l-.19.19v3.82h-3.88v4c2.63-.02,5.25,0,7.88,0-.03,5.25,0,10.51,0,15.76-2.63,0-5.26,0-7.88,0,0-2.63,0-5.26,0-7.88,1.08,0,2.55.13,3.57,0,.18-.02.32-.02.43-.19v-3.63c-.11-.18-.25-.17-.43-.19-1.02-.12-2.49.01-3.57,0,0-1.09.13-2.55,0-3.57-.02-.18-.02-.32-.19-.43h-3.82v-7.88h8.01v-7.88h3.88v3.82l.19.19h3.63c.18-.11.17-.25.19-.43.25-2.12,0-5.33,0-7.57-1.33,0-2.67,0-4,0v-4h-3.88v-3.88h-4c0-1.33,0-2.67,0-4-1.33,0-2.67,0-4,0v-3.88h4c0,1.29,0,2.59,0,3.88,1.29,0,2.59,0,3.88,0v3.82c.11.18.25.17.43.19,1.02.12,2.49-.01,3.57,0Z"/>
    <path d="M169.8,165.93c2.62,0,5.26,0,7.88,0v3.88h-3.82l-.19.19v3.82h-27.65v-3.82l-.19-.19h-3.82v4h-23.77v-7.88h-4v-4h4v-3.82l-.19-.19h-3.82v-7.88h7.88l.12,7.95,11.77.05v3.88h4v4h-3.88v-3.82l-.19-.19h-7.82c0,1.33,0,2.67,0,4h-4v3.82l.19.19h3.82c0-1.33,0-2.67,0-4h4v4h11.45s.43-.19.43-.19v-3.82h7.88v3.82l.43.19h11.45v-4.01c1.33,0,2.67,0,4,0,0,1.33,0,2.67,0,4h3.82c.18-.11.17-.25.19-.43.12-.98.01-2.53,0-3.57Z"/>
    <path d="M134.15,150.04c-.03,1.37-.03,2.64,0,4-2.67,0-5.34,0-8.01,0v-4c2.67,0,5.34,0,8.01,0Z"/>
    <path d="M142.03,154.04c0,1.33,0,2.67,0,4h3.88v3.88h-3.88v-3.82l-.43-.19h-7.45c-.02-1.28.03-2.58,0-3.87,2.62,0,5.26-.01,7.88,0Z"/>
    <path d="M177.68,98.5c0-2.62,0-5.26,0-7.88h3.88v3.82c.11.18.25.17.43.19,2.12.25,5.33,0,7.57,0,0-1.33,0-2.67,0-4h3.88v4c-1.29,0-2.59,0-3.88,0,0,1.29,0,2.59,0,3.88h-3.82c-.18.11-.17.25-.19.43-.12,1.02.01,2.49,0,3.57-1.29,0-2.59,0-3.88,0,.02-1.29.03-2.6-.05-3.89-.14-.2-3.4-.13-3.95-.12Z"/>
    <path d="M149.91,86.62c-1.29-.03-2.59.02-3.88,0v-15.76h3.88v7.88h7.88v11.88h-3.88v19.89h3.82l.19-.43v-7.57s3.87,0,3.87,0v-4h-3.88v-3.88h3.88v-4h7.88c.03,1.15-.04,2.3,0,3.45,0,.24.13.46.13.55-1.33,0-2.67,0-4,0v4h3.88v3.88h-3.88v8.01h3.88v3.88h-3.88v4h11.88v4h3.88c.02,1.29-.03,2.59,0,3.88-2.62,0-5.26,0-7.88,0v-4h-3.82l-.19.43c.23,2.25-.26,4.95,0,7.14.02.18.02.32.19.43h3.82v3.82l.43.19h7.45s0,15.76,0,15.76h4v4h-4v3.88h-3.88v4h-4v-4h-7.88c0,1.33,0,2.67,0,4,1.29,0,2.59,0,3.88,0,.03,1.15-.04,2.3,0,3.45,0,.23.13.46.13.55-1.33,0-2.67,0-4,0,0-1.33,0-2.67,0-4-2.24-.01-5.46-.25-7.57,0-.18.02-.32.02-.43.19v3.82h-3.88v-7.82l-.43-.19h-7.45s0-3.87,0-3.87c-1.33,0-2.67,0-4,0,0-1.33,0-2.67,0-4,2.62,0,5.26,0,7.88,0v-4h-7.88c0,1.33,0,2.67,0,4-2.62,0-5.26,0-7.88,0,.03-1.29-.02-2.59,0-3.88h3.88v-8.01h4v4h11.88v11.88h7.88v-11.88h-3.88l-.12-7.95-7.46-.06-.43.19v3.82h-3.88v-3.82l-.43-.19h-11.45c-.02-1.28.03-2.58,0-3.87,1.29,0,2.59,0,3.88,0v-4c-1.29,0-2.59,0-3.88,0,.03-1.29-.02-2.59,0-3.88h3.88v-4c1.33,0,2.67,0,4,0,0,1.33,0,2.67,0,4h3.88v7.45s.19.43.19.43h7.82v-4h-4c0-1.33,0-2.67,0-4,.09,0,.32.13.55.13,2.44.05,4.88-.07,7.33,0v3.88h4v-7.88h-3.88v-3.82l-.19-.19h-7.82v-15.89h-11.88v-3.88h-3.88v-4h3.88v-7.88h4v4h3.88v3.88h4c0-1.33,0-2.67,0-4,1.13.03,2.4.27,3.57.13.18-.02.32-.02.43-.19v-3.82h-4c0,1.29,0,2.59,0,3.88ZM169.8,138.16v-3.82l-.19-.19h-3.82v4h4ZM177.68,142.16h-11.88v11.88h11.88v-11.88Z"/>
    <path d="M90.49,102.5c0-1.33,0-2.67,0-4h-7.88s0-3.88,0-3.88h7.88v-4h4v11.88c-1.33,0-2.67,0-4,0,0,1.33,0,2.67,0,4-1.33,0-2.67,0-4,0,0-.09.12-.32.13-.55.03-1.15-.03-2.3,0-3.45,1.29,0,2.59,0,3.88,0Z"/>
    <path d="M94.5,114.39c1.33,0,2.67,0,4,0v-23.77s11.76,0,11.76,0v4h-7.88v15.7l.19.19h3.63l.19-.19v-3.82h3.88v3.88h-3.88v4h7.88v4h4c0,1.33,0,2.67,0,4-.09,0-.32-.13-.55-.13-2.44-.03-4.88.05-7.33,0v-3.88h-8.01c0,2.62.01,5.26,0,7.88-2.62,0-5.26,0-7.88,0,0-3.96,0-7.92,0-11.88-3.96.02-7.92-.01-11.88,0v-7.88c1.29,0,2.59,0,3.88,0-.02,1.04-.12,2.59,0,3.57.02.18.02.32.19.43h3.82c0-1.33,0-2.67,0-4,1.33,0,2.67,0,4,0,0,2.63,0,5.26,0,7.88Z"/>
    <path d="M126.14,98.63c0-1.33,0-2.67,0-4h4c0,1.33,0,2.67,0,4-1.33-.03-2.69,0-4,0Z"/>
    <path d="M169.8,94.62c1.29,0,2.59,0,3.88,0,0,1.29,0,2.59,0,3.88-1.29-.03-2.59.02-3.88,0-.02-1.29.03-2.59,0-3.88Z"/>
    <path d="M177.68,98.5c0,1.33,0,2.67,0,4-1.33,0-2.67,0-4,0,0-1.33,0-2.67,0-4,1.36.03,2.65.03,4,0Z"/>
    <path d="M130.15,98.63c1.29.03,2.59-.02,3.88,0,.02,1.29-.03,2.59,0,3.88-1.29,0-2.59,0-3.88,0,0-1.29,0-2.59,0-3.88Z"/>
    <path d="M118.26,102.5c0,1.33,0,2.67,0,4-1.33,0-2.67,0-4,0v-4c1.33,0,2.67,0,4,0Z"/>
    <path d="M134.03,102.5c2.67.01,5.34-.01,8.01,0v4h-4c0,1.29,0,2.59,0,3.88-1.29-.03-2.59.02-3.88,0-.06-2.44.06-4.89,0-7.33,0-.24-.13-.46-.13-.55Z"/>
    <path d="M181.69,102.5c0,.09-.13.32-.13.55-.03,2.44.05,4.88,0,7.33h-3.88v4h-4v-7.88h4c0-1.33,0-2.67,0-4,1.33,0,2.67,0,4,0Z"/>
    <path d="M185.56,102.5c1.33,0,2.67,0,4,0v4h3.88v3.88h-3.88c0,1.33,0,2.67,0,4-1.33,0-2.67,0-4,0,0-3.96-.02-7.93,0-11.88Z"/>
    <path d="M138.03,110.38c.09,0,.32.12.55.13,1.15.03,2.3-.03,3.45,0,0,1.29,0,2.59,0,3.88-1.33,0-2.67,0-4,0,0-1.33,0-2.67,0-4Z"/>
    <path d="M189.57,114.39c1.33,0,2.67,0,4,0v-3.88h3.88v7.88h-4v3.82l.19.19h3.82v7.88h-4c.04,2.63-.03,5.25,0,7.88-1.29,0-2.59,0-3.88,0,0,2.67,0,5.34,0,8.01-.09,0-.32-.12-.55-.13-1.15-.03-2.3.04-3.45,0v-11.88h-3.88c-.06-2.44.06-4.88,0-7.33,0-.24-.13-.46-.13-.55,2.67,0,5.34,0,8.01,0v-3.82l-.19-.19h-3.82c0-1.29,0-2.59,0-3.88,1.33,0,2.67,0,4,0,0-1.33,0-2.67,0-4Z"/>
    <path d="M126.14,114.39c2.63,0,5.26,0,7.88,0v7.88h-3.88v-3.88c-1.33,0-2.67,0-4,0,0-1.33,0-2.67,0-4Z"/>
    <path d="M142.03,114.39c1.29,0,2.59,0,3.88,0,.03,1.15-.04,2.3,0,3.45,0,.24.13.46.13.55-1.33,0-2.67,0-4,0,0-1.33,0-2.67,0-4Z"/>
    <path d="M185.56,114.39c0,1.33,0,2.67,0,4-1.29,0-2.59,0-3.88,0v-4c1.29,0,2.59,0,3.88,0Z"/>
    <path d="M94.5,130.27c-3.96,0-7.92,0-11.88,0v-11.88h7.88v3.88h-3.82l-.19.19v3.82c2.67,0,5.34,0,8.01,0,0,1.33,0,2.67,0,4Z"/>
    <path d="M126.14,118.39c0,2.63,0,5.26,0,7.88,2.67,0,5.34-.01,8.01,0-.03,1.37-.03,2.64,0,4-1.33,0-2.67,0-4,0v4h3.88v3.88h-7.88v-4h-3.88v-3.88c-4-.02-8.01.02-12.01,0,.03-1.36.03-2.63,0-4,2.67,0,5.34,0,8.01,0,0-1.29,0-2.59,0-3.88,1.04.02,2.59.12,3.57,0,.18-.02.32-.02.43-.19v-3.82c1.29,0,2.59,0,3.88,0Z"/>
    <path d="M146.03,118.39c1.29,0,2.59,0,3.88,0,0,1.29,0,2.59,0,3.88-1.29-.03-2.59.02-3.88,0-.02-1.29.03-2.59,0-3.88Z"/>
    <path d="M106.38,126.27c0-1.29,0-2.59,0-3.88h3.88c.02,1.29-.03,2.59,0,3.88-1.29,0-2.59,0-3.88,0Z"/>
    <path d="M106.38,126.27c0,1.33,0,2.67,0,4,1.29,0,2.59,0,3.88,0-.03,1.29.02,2.59,0,3.88h-3.88v4h4v-3.88h7.88v11.76h-4v-7.88h-3.82l-.19.19v3.82h-11.76c-.03-1.15.04-2.3,0-3.45,0-.23-.13-.46-.13-.55,1.33,0,2.67,0,4,0v-4h-3.82c-.18.11-.17.25-.19.43-.12.98-.01,2.53,0,3.57-1.29,0-2.59,0-3.88,0,0,1.33,0,2.67,0,4h-7.88v-3.82l-.19-.19h-3.82v-3.88h7.88v3.88c1.33,0,2.67,0,4,0,.01-2.62,0-5.26,0-7.88,2.63,0,5.26,0,7.88,0,0-1.33,0-2.67,0-4,1.33,0,2.67,0,4,0Z"/>
    <path d="M110.26,58.97v27.65s-27.65,0-27.65,0v-27.65h27.65ZM106.38,82.74v-19.7l-19.84-.07.13,19.77h19.7Z"/>
    <path d="M82.61,146.16h27.65s0,27.65,0,27.65h-27.65v-27.65ZM106.38,150.04h-19.7l-.13,19.77,19.84-.07v-19.7Z"/>
    <path d="M197.45,58.97v27.65h-27.65s0-27.65,0-27.65h27.65ZM173.68,82.74h19.7l.07-19.84-19.77.13v19.7Z"/>
    <polygon points="197.45 165.93 197.45 169.8 193.63 169.8 193.44 169.99 193.44 173.81 185.56 173.81 185.56 169.8 181.69 169.8 181.69 165.93 197.45 165.93"/>
    <rect x="161.8" y="58.97" width="4" height="15.76"/>
    <rect x="161.8" y="78.74" width="4" height="7.88"/>
    <rect x="122.27" y="142.16" width="7.88" height="3.88"/>
    <rect x="114.26" y="74.86" width="7.88" height="3.88"/>
    <rect x="138.03" y="74.86" width="4" height="3.88"/>
    <rect x="114.26" y="82.74" width="4" height="3.88"/>
    <rect x="185.56" y="158.04" width="4" height="3.88"/>
    <rect x="106.38" y="98.63" width="3.88" height="3.88"/>
    <rect x="193.57" y="98.63" width="3.88" height="3.88"/>
    <path class="cls-2" d="M177.68,142.16v11.88h-11.88v-11.88h11.88ZM173.68,146.16h-3.88v3.88h3.88v-3.88Z"/>
    <polygon class="cls-2" points="169.8 138.16 165.8 138.16 165.8 134.15 169.61 134.15 169.8 134.34 169.8 138.16"/>
    <path class="cls-2" d="M106.38,82.74h-19.7l-.13-19.77,19.84.07v19.7ZM102.38,66.85h-11.88v11.88h11.88v-11.88Z"/>
    <path class="cls-2" d="M106.38,150.04v19.7l-19.84.07.13-19.77h19.7ZM102.38,154.04h-11.88v11.88h11.88v-11.88Z"/>
    <path class="cls-2" d="M173.68,82.74v-19.7l19.77-.13-.07,19.84h-19.7ZM189.57,66.85h-11.88v11.88h11.88v-11.88Z"/>
    <rect x="169.8" y="146.16" width="3.88" height="3.88"/>
    <rect x="90.49" y="66.85" width="11.88" height="11.88"/>
    <rect x="90.49" y="154.04" width="11.88" height="11.88"/>
    <rect x="177.68" y="66.85" width="11.88" height="11.88"/>
  </g>
</svg>